<svg version="1.1" id="Layer_1" xmlns="http://www.w3.org/2000/svg" xmlns:xlink="http://www.w3.org/1999/xlink" x="0px" y="0px"
	 width="100%" viewBox="0 0 500 500" enable-background="new 0 0 500 500" xml:space="preserve">
    <path fill="#F6FAFC" opacity="1.000000" stroke="none" 
        d="
        M81.013283,70.041626 
            C87.501602,64.249573 93.607239,57.947289 100.539886,52.747650 
            C148.247238,16.966106 202.057770,-0.094220 261.616516,2.243582 
            C378.007263,6.812156 476.623047,93.104462 495.990051,207.819672 
            C509.377625,287.117310 488.437012,357.111450 435.846863,417.772400 
            C435.306976,418.395142 434.655090,418.920837 433.575745,419.311188 
            C424.241638,407.083344 415.387268,395.036133 406.623688,383.112457 
            C410.916412,378.000793 415.753113,372.926514 419.767456,367.268707 
            C423.795471,361.591583 426.966919,355.310333 430.604431,349.349182 
            C431.261902,348.271637 432.190338,346.979309 433.276520,346.603333 
            C442.463165,343.423553 446.010986,335.938843 448.154022,327.408325 
            C451.243195,315.111755 449.728821,302.850464 447.021301,290.783691 
            C438.836792,254.307602 437.163147,216.168716 419.594818,181.971680 
            C419.585846,181.981415 419.674683,181.810776 419.812714,181.747421 
            C420.865967,181.264084 421.955322,180.853333 422.984711,180.325027 
            C438.715057,172.252167 449.744781,160.166641 449.877136,141.927872 
            C449.992340,126.054825 446.184570,110.453484 438.103638,96.463501 
            C416.839294,59.649956 363.619934,59.179844 341.574188,95.570000 
            C339.836304,98.438675 338.314972,97.832054 335.902374,97.098030 
            C323.018402,93.178154 310.239777,88.738510 297.134796,85.750160 
            C252.714005,75.620804 208.876053,77.581261 165.947128,93.601524 
            C164.117279,94.284386 162.219589,94.785469 159.810226,95.541763 
            C160.700729,80.098274 152.379486,71.125099 139.532806,66.340530 
            C120.770584,59.352806 102.044884,59.435925 84.063164,69.530815 
            C83.217476,70.005585 82.037552,69.884964 81.013283,70.041626 
        z"/>
    <path fill="#333243" opacity="1.000000" stroke="none" 
        d="
        M81.031860,70.031982 
            C82.037552,69.884964 83.217476,70.005585 84.063164,69.530815 
            C102.044884,59.435925 120.770584,59.352806 139.532806,66.340530 
            C152.379486,71.125099 160.700729,80.098274 159.810226,95.541763 
            C162.219589,94.785469 164.117279,94.284386 165.947128,93.601524 
            C208.876053,77.581261 252.714005,75.620804 297.134796,85.750160 
            C310.239777,88.738510 323.018402,93.178154 335.902374,97.098030 
            C338.314972,97.832054 339.836304,98.438675 341.574188,95.570000 
            C363.619934,59.179844 416.839294,59.649956 438.103638,96.463501 
            C446.184570,110.453484 449.992340,126.054825 449.877136,141.927872 
            C449.744781,160.166641 438.715057,172.252167 422.984711,180.325027 
            C421.955322,180.853333 420.865967,181.264084 419.812714,181.747421 
            C419.674683,181.810776 419.585846,181.981415 419.594818,181.971680 
            C437.163147,216.168716 438.836792,254.307602 447.021301,290.783691 
            C449.728821,302.850464 451.243195,315.111755 448.154022,327.408325 
            C446.010986,335.938843 442.463165,343.423553 433.276520,346.603333 
            C432.190338,346.979309 431.261902,348.271637 430.604431,349.349182 
            C426.966919,355.310333 423.795471,361.591583 419.767456,367.268707 
            C415.753113,372.926514 410.916412,378.000793 406.623688,383.112457 
            C415.387268,395.036133 424.241638,407.083344 433.279968,419.496948 
            C431.534424,421.959351 429.604919,424.055328 427.355530,426.320984 
            C420.005798,416.796844 412.944641,407.125580 405.954742,397.403076 
            C398.718567,387.338013 400.680511,388.984070 390.993591,393.954529 
            C384.650024,397.209503 378.133392,400.358490 371.360779,402.500366 
            C354.703400,407.768311 337.873688,412.499298 321.050201,417.221619 
            C319.323059,417.706451 317.170105,416.674347 315.214752,416.346069 
            C316.523956,414.936310 317.571259,412.876953 319.186310,412.225800 
            C327.520020,408.865601 336.000732,405.870331 344.427307,402.740143 
            C362.578003,395.997803 380.235321,388.339264 396.035645,376.837006 
            C404.978027,370.327148 410.121948,360.987976 415.844116,352.037140 
            C419.251190,346.707703 422.453094,341.241272 425.587677,335.745392 
            C427.810822,331.847504 429.979309,328.274628 436.203125,332.569244 
            C437.189819,326.877075 438.414246,322.099274 438.784729,317.256165 
            C439.994049,301.447357 435.801422,286.259827 433.045319,270.905762 
            C430.256348,255.368591 428.239166,239.665985 424.773346,224.286118 
            C422.190979,212.826721 417.999664,201.710846 414.165619,190.565567 
            C413.171173,187.674835 411.018372,185.097305 409.066010,182.639343 
            C405.142548,177.699860 405.938141,174.624695 411.922638,172.108887 
            C416.011475,170.389984 420.378510,169.008774 423.997742,166.556473 
            C435.927917,158.472855 439.503418,146.448593 437.728455,132.878860 
            C436.721588,125.181183 434.654785,117.507309 432.124481,110.146126 
            C425.584564,91.120277 411.351074,80.799095 391.867676,79.300385 
            C375.559174,78.045891 360.891571,83.707787 350.540039,97.137383 
            C347.614563,100.932762 346.491058,106.130157 344.614380,110.714539 
            C343.859131,112.559464 343.656494,114.740295 342.541382,116.293816 
            C341.635193,117.556320 339.569855,118.980042 338.335022,118.735367 
            C337.088531,118.488396 335.204315,116.126694 335.374603,114.947899 
            C336.317413,108.422272 332.337494,106.301651 327.289185,104.453827 
            C309.875702,98.080017 291.998932,93.629311 273.543396,91.948296 
            C261.650330,90.865013 249.687881,90.420044 237.745407,90.027382 
            C209.899780,89.111855 183.533447,96.278519 157.593307,105.353142 
            C152.356796,107.185028 147.486710,110.064262 142.238297,112.560188 
            C139.669083,107.365265 141.605392,104.043381 144.728592,101.292664 
            C150.869675,95.883987 151.458267,89.309517 145.487946,83.148430 
            C143.026154,80.607971 139.672348,78.692650 136.398010,77.216797 
            C110.983017,65.761246 78.777382,72.408585 68.264465,106.279282 
            C62.957134,123.378525 63.626499,139.403992 74.302956,154.282669 
            C75.826157,156.405411 77.747841,158.438644 79.910774,159.870132 
            C87.227081,164.712234 89.425743,164.051910 94.473305,156.926483 
            C99.088768,150.411057 104.036919,144.132248 108.747810,137.682953 
            C110.410347,135.406891 111.996544,133.033585 113.282417,130.532364 
            C116.126190,125.000786 113.959679,120.551941 107.751724,119.061806 
            C105.522507,118.526711 102.814255,119.001434 101.021408,117.890648 
            C98.910507,116.582794 96.541725,114.194229 96.238159,112.003601 
            C96.042679,110.592926 99.105751,107.711571 101.149086,107.178421 
            C112.717010,104.160072 125.488037,112.104103 126.174896,122.686508 
            C126.354744,125.457405 125.488274,128.710419 124.044968,131.104614 
            C115.281410,145.641815 106.218796,159.998871 97.242912,174.407883 
            C85.074295,193.942245 78.885231,215.652344 74.051208,237.870514 
            C72.714111,244.016098 71.241997,250.137161 69.643913,256.220093 
            C66.710541,267.385681 64.181099,278.699921 60.463371,289.604462 
            C57.034813,299.660858 55.778412,309.924500 57.214302,320.091583 
            C59.311234,334.939331 62.861908,349.645996 72.975220,361.549042 
            C76.614624,365.832489 80.696114,369.804840 84.942978,373.496887 
            C107.561607,393.160370 131.443909,410.804871 160.637543,419.736755 
            C161.678986,420.055389 162.601761,420.761963 163.465363,422.429138 
            C158.370972,422.429138 153.003754,423.466522 148.238937,422.213379 
            C138.290604,419.596954 128.585526,415.969147 118.943001,412.326752 
            C115.873314,411.167206 114.222313,411.405670 112.330811,414.054565 
            C105.752106,423.267639 98.980286,432.342865 92.100151,441.758728 
            C90.030922,440.519531 88.143456,438.992065 86.258682,436.872803 
            C94.155777,426.244080 102.050201,416.207184 110.167046,405.887482 
            C106.179878,403.203461 102.370041,400.567017 98.489464,398.039124 
            C82.240196,387.454102 67.763969,374.906433 58.014214,357.955597 
            C40.690132,327.836182 38.180763,297.442719 57.679718,266.956268 
            C59.585114,263.977203 60.009007,259.836487 60.409885,256.157501 
            C61.074581,250.057434 59.936401,243.509979 61.718945,237.829147 
            C67.333069,219.937378 73.804634,202.306732 80.277153,184.697342 
            C82.090881,179.762833 85.052719,175.250305 87.812691,169.916550 
            C72.828491,169.217651 65.766479,159.311172 60.369762,147.744095 
            C51.303925,128.312820 54.544319,109.496475 63.791935,91.093170 
            C64.663391,89.358910 65.274467,87.493820 66.006432,85.689468 
            C69.939217,81.479012 73.871994,77.268547 78.492630,72.872520 
            C79.796333,71.785698 80.412178,70.884445 81.028015,69.983192 
            C81.028015,69.983192 81.050438,70.022331 81.031860,70.031982 
        z"/>
    <path fill="#F6FAFC" opacity="1.000000" stroke="none" 
        d="
        M65.669128,85.799316 
            C65.274467,87.493820 64.663391,89.358910 63.791935,91.093170 
            C54.544319,109.496475 51.303925,128.312820 60.369762,147.744095 
            C65.766479,159.311172 72.828491,169.217651 87.812691,169.916550 
            C85.052719,175.250305 82.090881,179.762833 80.277153,184.697342 
            C73.804634,202.306732 67.333069,219.937378 61.718945,237.829147 
            C59.936401,243.509979 61.074581,250.057434 60.409885,256.157501 
            C60.009007,259.836487 59.585114,263.977203 57.679718,266.956268 
            C38.180763,297.442719 40.690132,327.836182 58.014214,357.955597 
            C67.763969,374.906433 82.240196,387.454102 98.489464,398.039124 
            C102.370041,400.567017 106.179878,403.203461 110.167046,405.887482 
            C102.050201,416.207184 94.155777,426.244080 86.103943,436.574493 
            C74.613144,424.755676 62.229301,413.453247 52.147121,400.376251 
            C24.058527,363.944275 7.779335,322.336487 3.407891,276.587708 
            C-3.320836,206.169113 16.470236,143.655060 61.758892,89.269234 
            C62.797340,88.022194 64.134178,87.023636 65.669128,85.799316 
        z"/>
    <path fill="#F6FAFC" opacity="1.000000" stroke="none" 
        d="
        M80.719772,69.883194 
            C80.412178,70.884445 79.796333,71.785698 78.841110,72.755356 
            C79.138329,71.810234 79.774925,70.796707 80.719772,69.883194 
        z"/>
    <path fill="#2F2D3F" opacity="1.000000" stroke="none" 
        d="
        M145.418518,362.641785 
            C142.668549,360.616760 138.467972,359.217621 140.322311,355.423004 
            C142.243301,351.492004 146.284622,353.122833 149.678467,354.029633 
            C155.497406,355.584320 161.341949,357.043121 167.071365,358.515350 
            C166.658951,351.121246 166.525238,344.870392 165.790421,338.690979 
            C165.637253,337.402954 163.441833,335.843109 161.881424,335.317566 
            C147.824280,330.583282 138.551987,321.254059 135.471085,306.736053 
            C132.386871,292.202423 140.717514,280.865875 153.413956,278.695679 
            C174.201965,275.142395 194.357117,277.147095 213.063950,287.720673 
            C222.294907,292.938232 224.452942,303.368744 218.190125,312.692871 
            C210.269958,324.484375 199.679932,332.588318 185.454956,335.402313 
            C183.530426,335.783020 181.673203,336.503845 179.335007,337.201324 
            C179.903717,341.777863 179.911438,346.313568 181.097946,350.516479 
            C184.174408,361.414062 189.124512,363.902435 200.275909,361.467407 
            C210.951996,359.136200 221.801544,357.542114 232.389587,354.885651 
            C239.101990,353.201569 245.404648,350.354950 250.622345,345.150665 
            C255.699783,340.086304 262.964539,341.474243 263.277374,347.253387 
            C263.438782,350.234833 261.035431,354.206970 258.570282,356.279846 
            C254.836502,359.419617 249.873215,361.041107 245.723679,363.753418 
            C234.399429,371.155426 221.163177,372.893097 208.554184,373.513550 
            C190.033615,374.424866 171.483215,371.358429 153.478302,366.281403 
            C150.787628,365.522644 148.310944,364.005035 145.418518,362.641785 
        M162.481125,300.273682 
            C164.874023,299.723419 167.266922,299.173187 170.234344,298.490814 
            C165.476181,293.193054 160.266083,292.850830 152.844070,297.294403 
            C156.368378,298.479095 159.034119,299.375183 162.481125,300.273682 
        z"/>
    <path fill="#2F2E3F" opacity="1.000000" stroke="none" 
        d="
        M294.025208,270.749237 
            C291.332306,275.664764 289.331390,280.747772 285.891327,284.517517 
            C281.528900,289.298004 273.643127,288.018646 269.640747,282.891144 
            C261.296722,272.201447 263.200562,251.080063 272.673279,242.527222 
            C278.738403,237.051102 286.520142,237.880356 290.887115,244.849884 
            C295.892426,252.838104 295.862030,261.482025 294.025208,270.749237 
        M279.438751,253.811401 
            C282.115021,251.067108 281.508118,248.820374 278.378418,246.488190 
            C276.704102,249.265259 276.017334,251.539795 279.438751,253.811401 
        z"/>
    <path fill="#302F3F" opacity="1.000000" stroke="none" 
        d="
        M375.479370,113.329895 
            C387.691956,107.164856 397.358917,107.920967 404.119995,115.528648 
            C405.526031,117.110741 406.773712,119.033249 407.421082,121.018433 
            C407.839630,122.301880 407.033295,123.984756 406.775818,125.488647 
            C405.444336,125.166885 403.824707,125.223259 402.827179,124.463211 
            C395.222046,118.668701 378.256531,123.081390 372.908508,130.223206 
            C376.845856,133.169739 381.609680,135.465790 384.476044,139.213196 
            C387.779388,143.531860 389.729828,149.020950 391.533783,154.254761 
            C391.980042,155.549454 389.961395,158.516907 388.357880,159.377121 
            C387.439270,159.869888 383.995880,158.022461 383.538055,156.623520 
            C380.585236,147.601212 374.184937,143.021194 365.425934,140.500488 
            C359.535950,138.805435 357.533691,131.279694 361.861725,126.073074 
            C365.729340,121.420303 370.685852,117.672661 375.479370,113.329895 
        z"/>
    <path fill="#2F2E3E" opacity="1.000000" stroke="none" 
        d="
        M117.633179,260.478027 
            C117.449860,252.225113 119.188538,244.858398 124.513329,238.909027 
            C130.019424,232.757065 137.551559,233.938934 141.987396,240.870117 
            C147.983246,250.238846 142.843552,268.650818 137.719772,273.686737 
            C132.171997,279.139404 125.414352,278.727203 121.487846,272.029053 
            C119.547363,268.718781 118.950417,264.620972 117.633179,260.478027 
        M134.003052,246.743988 
            C133.192780,245.713425 132.382507,244.682861 131.572220,243.652298 
            C130.954178,243.832809 130.336121,244.013321 129.718063,244.193832 
            C129.908096,246.348114 130.098114,248.502411 130.288132,250.656693 
            C131.548309,249.616318 132.808487,248.575943 134.003052,246.743988 
        z"/>
    <path fill="#2F2D3F" opacity="1.000000" stroke="none" 
        d="
        M307.803040,196.627197 
            C305.109131,197.182678 302.457153,198.219162 300.279388,197.596603 
            C292.828674,195.466675 285.497223,192.881271 278.228394,190.178802 
            C276.285614,189.456512 273.368378,187.752014 273.313934,186.401031 
            C273.232849,184.391006 274.799011,181.596695 276.535583,180.350403 
            C286.158447,173.444397 305.300690,180.263321 308.565796,191.637451 
            C308.969421,193.043488 308.257355,194.769836 307.803040,196.627197 
        z"/>
    <path fill="#2F2D3F" opacity="1.000000" stroke="none" 
        d="
        M125.029297,174.900177 
            C130.433075,173.826706 135.479904,172.660583 140.592041,172.155792 
            C142.305359,171.986618 144.555603,173.104919 145.895935,174.350052 
            C147.602005,175.934921 148.633057,178.246414 149.955109,180.244675 
            C148.085281,181.307968 146.334412,182.851181 144.324509,183.349442 
            C136.646729,185.252823 128.897446,186.878616 121.141960,188.445175 
            C120.050652,188.665619 118.145851,188.351089 117.726807,187.635040 
            C116.994896,186.384369 116.371552,184.055817 117.030716,183.189987 
            C119.273674,180.243835 122.096458,177.739120 125.029297,174.900177 
        z"/>
    <path fill="#E4E8EB" opacity="1.000000" stroke="none" 
        d="
        M162.090500,300.272461 
            C159.034119,299.375183 156.368378,298.479095 152.844070,297.294403 
            C160.266083,292.850830 165.476181,293.193054 170.234344,298.490814 
            C167.266922,299.173187 164.874023,299.723419 162.090500,300.272461 
        z"/>
    <path fill="#D2D5DA" opacity="1.000000" stroke="none" 
        d="
        M279.045746,253.750397 
            C276.017334,251.539795 276.704102,249.265259 278.378418,246.488190 
            C281.508118,248.820374 282.115021,251.067108 279.045746,253.750397 
        z"/>
    <path fill="#D1D5D9" opacity="1.000000" stroke="none" 
        d="
        M134.035858,247.139771 
            C132.808487,248.575943 131.548309,249.616318 130.288132,250.656693 
            C130.098114,248.502411 129.908096,246.348114 129.718063,244.193832 
            C130.336121,244.013321 130.954178,243.832809 131.572220,243.652298 
            C132.382507,244.682861 133.192780,245.713425 134.035858,247.139771 
        z"/>
</svg>