<?xml version="1.0" standalone="no"?>
<!DOCTYPE svg PUBLIC "-//W3C//DTD SVG 20010904//EN"
 "http://www.w3.org/TR/2001/REC-SVG-20010904/DTD/svg10.dtd">
<svg version="1.0" xmlns="http://www.w3.org/2000/svg"
 width="500.000000pt" height="500.000000pt" viewBox="0 0 500.000000 500.000000"
 preserveAspectRatio="xMidYMid meet">

<g transform="translate(0.000000,500.000000) scale(0.100000,-0.100000)"
fill="#000000" stroke="none">
<path d="M1020 4383 c-213 -36 -385 -202 -450 -434 -52 -189 -29 -347 74 -501
47 -72 104 -114 173 -128 l54 -12 -60 -111 c-60 -115 -179 -433 -201 -540 -6
-33 -13 -108 -14 -167 -2 -104 -3 -110 -36 -162 -61 -95 -82 -150 -107 -273
-29 -142 -27 -220 12 -370 70 -268 223 -462 529 -666 53 -35 95 -67 96 -70 0
-3 -44 -60 -98 -125 -53 -66 -107 -133 -119 -150 l-22 -31 22 -22 23 -21 113
155 c75 103 120 155 132 155 10 0 42 -10 71 -21 141 -57 280 -96 346 -97 37 0
58 2 47 5 -170 42 -477 207 -585 313 -20 19 -62 53 -95 75 -73 49 -245 217
-245 239 0 9 -4 16 -8 16 -13 0 -58 97 -76 163 -9 31 -23 81 -31 110 -21 73
-20 277 0 343 9 27 18 60 21 73 3 13 18 59 35 102 35 91 37 100 50 204 6 44
16 97 24 117 14 37 22 68 30 119 20 135 159 529 186 529 5 0 9 6 9 13 0 17
109 201 121 205 5 2 9 8 9 13 0 6 31 58 68 117 133 208 137 220 105 286 -22
46 -112 96 -175 96 -46 0 -88 -22 -88 -46 0 -16 59 -56 72 -48 15 10 88 -17
103 -39 18 -25 20 -69 4 -100 -10 -19 -174 -242 -189 -257 -3 -3 -13 -18 -22
-35 -22 -39 -71 -45 -132 -16 -61 30 -129 131 -152 226 -14 56 -16 222 -3 267
7 23 14 52 16 63 5 33 72 163 99 193 63 70 83 87 139 113 33 15 76 30 95 34
19 3 51 9 70 13 93 17 234 -8 330 -59 78 -42 102 -79 106 -164 3 -53 0 -65
-14 -69 -28 -9 -72 -55 -72 -76 0 -28 24 -25 84 9 58 33 397 139 470 146 26 3
51 7 56 10 30 18 545 28 705 12 161 -15 491 -97 579 -145 49 -26 51 -29 56
-77 4 -35 10 -51 21 -53 12 -2 21 15 38 70 41 137 66 174 164 240 104 70 144
82 293 82 l131 1 75 -38 c177 -90 247 -202 292 -470 19 -109 13 -168 -25 -257
-26 -61 -123 -155 -171 -165 -48 -11 -108 -43 -108 -59 0 -7 14 -31 31 -52 31
-38 79 -133 79 -156 0 -7 15 -62 34 -122 30 -98 57 -214 72 -318 5 -35 12 -78
19 -118 2 -14 9 -52 14 -85 5 -33 16 -91 25 -130 16 -70 21 -102 31 -184 3
-24 9 -70 14 -102 7 -39 6 -92 0 -151 -14 -124 -41 -172 -76 -137 -6 6 -16 9
-21 5 -6 -3 -40 -57 -77 -118 -37 -62 -72 -114 -76 -116 -5 -2 -9 -8 -9 -13 0
-18 -69 -118 -110 -159 -23 -23 -78 -65 -123 -94 -140 -91 -261 -146 -577
-262 -85 -31 -159 -61 -164 -65 -25 -23 73 -3 255 51 41 12 79 23 84 24 76 16
382 129 395 147 11 14 93 50 105 45 12 -4 219 -286 211 -286 -3 0 4 -10 15
-22 10 -13 27 -33 36 -46 l18 -23 27 28 28 29 -106 144 c-58 80 -122 164 -141
188 l-35 42 69 74 c37 40 90 111 117 157 27 46 55 94 63 106 7 13 28 29 46 37
103 43 161 214 137 409 -6 50 -27 173 -46 272 -19 99 -41 219 -50 267 -8 47
-34 175 -59 283 -37 162 -54 216 -94 301 l-50 104 57 29 c31 16 76 45 98 65
86 74 154 210 154 308 0 64 -34 230 -67 331 -79 240 -287 397 -524 397 -195 0
-408 -109 -480 -245 -13 -25 -29 -45 -36 -45 -7 0 -50 14 -95 30 -110 41 -272
83 -443 117 -130 25 -157 27 -390 27 -141 0 -291 -6 -345 -13 -118 -15 -299
-60 -424 -105 l-94 -34 -7 56 c-9 72 -33 119 -86 166 -82 75 -217 117 -369
114 -47 0 -96 -3 -110 -5z"/>
<path d="M3847 3899 c-59 -14 -116 -47 -173 -101 -87 -82 -97 -145 -26 -174
93 -40 127 -61 154 -98 15 -21 28 -47 28 -56 0 -23 26 -44 45 -36 34 13 5 111
-53 177 -17 19 -53 46 -81 59 -28 13 -51 29 -51 36 0 16 84 68 141 87 62 21
153 15 190 -12 34 -25 45 -13 24 28 -17 34 -68 75 -105 86 -46 12 -55 13 -93
4z"/>
<path d="M1275 3262 c-45 -21 -105 -76 -105 -97 0 -7 7 -18 15 -25 12 -10 24
-8 64 9 27 11 80 25 119 31 38 5 79 13 92 18 l23 8 -30 34 c-25 28 -37 34 -84
37 -38 3 -66 -2 -94 -15z"/>
<path d="M2783 3205 c-17 -7 -37 -24 -43 -36 -17 -30 3 -44 81 -58 34 -6 86
-22 117 -37 91 -42 110 -46 122 -23 14 25 -5 61 -57 112 -58 56 -148 73 -220
42z"/>
<path d="M1272 2630 c-51 -32 -87 -117 -86 -205 0 -77 17 -120 60 -154 35 -28
56 -26 95 6 44 37 70 100 76 187 5 60 2 78 -15 112 -36 70 -77 87 -130 54z
m56 -93 c2 -18 -2 -29 -13 -33 -24 -9 -39 10 -31 41 9 35 40 30 44 -8z"/>
<path d="M2754 2591 c-64 -39 -104 -128 -104 -230 0 -81 17 -130 60 -173 48
-48 85 -50 133 -8 109 95 111 345 3 411 -39 24 -53 24 -92 0z m41 -86 c0 -43
-29 -40 -33 3 -3 28 0 33 15 30 13 -2 18 -12 18 -33z"/>
<path d="M1579 2221 c-149 -21 -242 -126 -225 -254 10 -71 26 -103 85 -174 56
-69 112 -106 183 -123 l47 -12 -6 -63 c-4 -45 -1 -78 12 -119 10 -31 15 -59
11 -63 -3 -3 -50 4 -104 16 -123 29 -174 32 -177 10 -6 -36 187 -105 350 -125
22 -2 47 -7 57 -10 9 -2 72 -9 140 -13 111 -8 134 -7 243 15 114 23 244 61
255 75 3 3 25 18 50 34 50 31 97 72 111 96 12 24 -25 69 -57 69 -16 0 -43 -17
-73 -45 -53 -50 -127 -84 -247 -114 -109 -28 -286 -45 -353 -34 l-55 8 -22 55
c-26 67 -40 199 -22 204 7 2 52 16 99 30 99 30 189 92 251 173 63 83 75 148
37 209 -25 41 -143 102 -256 133 -83 22 -251 33 -334 22z m89 -167 c18 -13 21
-19 11 -30 -23 -28 -149 -11 -149 20 0 25 105 33 138 10z"/>
</g>
</svg>
