<svg version="1.1" id="Layer_1" xmlns="http://www.w3.org/2000/svg" xmlns:xlink="http://www.w3.org/1999/xlink" x="0px" y="0px"
	 width="100%" viewBox="0 0 1080 1080" enable-background="new 0 0 1080 1080" xml:space="preserve">

<path fill="#F6FCFE" opacity="1.000000" stroke="none" 
	d="
M125.000000,1081.000000 
	C83.671722,1081.000000 42.343441,1081.000000 1.011369,1081.000000 
	C1.007579,721.049072 1.007579,361.098114 1.007579,1.073594 
	C360.906921,1.073594 720.813904,1.073594 1080.860352,1.073594 
	C1080.860352,360.999969 1080.860352,721.000000 1080.860352,1081.000000 
	C1058.247314,1081.000000 1035.583374,1081.000000 1012.478455,1080.604004 
	C1005.528870,1059.433960 1000.734802,1037.916504 992.123596,1018.054138 
	C977.987732,985.448547 961.399170,953.905029 945.767944,921.951233 
	C944.238159,918.823792 942.367188,915.817322 940.323730,912.994202 
	C923.637817,889.941833 906.981506,866.866333 890.061218,843.986328 
	C885.440552,837.738098 879.954468,832.129822 874.332275,825.609436 
	C876.569397,823.601257 878.997864,821.598572 881.225647,819.393127 
	C901.309082,799.510681 916.531128,776.260864 928.757446,750.907471 
	C929.582764,749.195984 931.440002,747.141724 933.116516,746.823364 
	C941.342041,745.262024 947.181580,740.377686 952.312683,734.263977 
	C963.432251,721.015015 966.912354,704.994873 968.574890,688.442749 
	C971.297363,661.336914 964.837402,635.095032 960.324463,608.725647 
	C957.184937,590.380981 952.972961,572.222412 949.469666,553.936646 
	C947.404602,543.157776 946.101746,532.228577 943.896301,521.481812 
	C940.490601,504.886383 936.204712,488.465942 933.024414,471.831268 
	C929.039734,450.989838 923.477417,430.726868 913.785583,411.777069 
	C910.402771,405.162872 906.489014,398.820282 902.594727,391.960938 
	C904.126831,391.245941 905.567688,390.496277 907.067688,389.894012 
	C908.760620,389.214386 910.584045,388.827423 912.217773,388.038086 
	C929.377686,379.747040 943.520935,367.789795 954.135925,352.010681 
	C965.906006,334.514557 972.602173,315.171204 969.546814,293.950836 
	C967.040344,276.543030 963.722412,259.104950 958.890259,242.216446 
	C952.917664,221.341995 943.484497,201.924240 928.381531,185.660995 
	C910.588440,166.500992 889.444214,153.440292 863.433411,149.281296 
	C839.622131,145.474014 816.415894,148.240891 793.660461,156.362183 
	C766.891602,165.915863 746.482727,182.499771 733.929504,208.226181 
	C732.624023,210.901703 731.546936,211.355560 728.611938,210.283676 
	C713.804138,204.875656 699.046753,199.206497 683.930847,194.797653 
	C667.038696,189.870743 649.885132,185.693848 632.652344,182.121674 
	C615.418152,178.549210 598.015442,175.586365 580.560974,173.326813 
	C553.871033,169.871719 527.047485,170.854111 500.218262,172.110077 
	C472.423798,173.411255 444.860931,175.354935 417.697021,182.384781 
	C399.186707,187.175125 380.648987,191.560440 362.867950,198.725662 
	C356.824158,201.161148 350.551727,203.029327 343.573730,205.436111 
	C343.573730,202.782288 343.528961,201.325058 343.580505,199.871246 
	C344.236328,181.368225 336.857269,166.608459 322.583862,155.152893 
	C308.332825,143.715302 291.737518,137.580032 273.942688,134.653961 
	C250.498276,130.798920 227.121750,130.872543 204.257187,138.218628 
	C172.206589,148.516068 150.078705,170.424728 134.289886,199.338593 
	C125.994614,214.529633 122.222153,231.181122 119.135788,248.107742 
	C116.265419,263.849823 117.082817,279.395264 120.701393,294.680664 
	C124.397278,310.292664 131.404480,324.710205 140.409119,338.014008 
	C148.833954,350.461212 159.427856,360.281555 174.682159,363.658936 
	C179.089218,364.634674 183.593658,365.170654 188.253952,365.941437 
	C184.740112,372.650116 181.350098,378.923645 178.143005,385.289337 
	C172.533691,396.423157 166.224655,407.293915 161.674698,418.851929 
	C154.009796,438.322662 147.640656,458.299255 140.452576,477.962952 
	C131.349655,502.864838 127.499916,528.516907 129.467102,554.911255 
	C130.050217,562.735229 127.988297,568.939880 123.498131,575.229065 
	C117.459503,583.687134 111.582527,592.158081 107.445724,602.053162 
	C101.637802,615.945251 99.839241,630.604065 96.527344,644.939941 
	C94.078300,655.540833 93.079590,666.444214 93.931969,677.619263 
	C95.724037,701.113831 101.784698,723.499634 109.936981,745.352783 
	C116.447975,762.806213 127.749611,777.614868 138.559082,792.557434 
	C157.783615,819.132812 183.248199,838.905273 210.091003,857.090698 
	C218.976074,863.110107 227.919861,869.042847 236.965363,875.101318 
	C236.090225,876.148865 235.447266,876.900513 234.823517,877.667725 
	C220.436478,895.361389 205.516022,912.653992 191.816956,930.865295 
	C178.098267,949.102600 166.708359,968.807373 158.190521,990.184631 
	C150.323227,1009.929260 140.796188,1029.018921 133.121964,1048.831543 
	C129.157257,1059.067383 127.629059,1070.246826 125.000000,1081.000000 
z"/>
<path fill="#302E41" opacity="1.000000" stroke="none" 
	d="
M125.467941,1081.000000 
	C127.629059,1070.246826 129.157257,1059.067383 133.121964,1048.831543 
	C140.796188,1029.018921 150.323227,1009.929260 158.190521,990.184631 
	C166.708359,968.807373 178.098267,949.102600 191.816956,930.865295 
	C205.516022,912.653992 220.436478,895.361389 234.823517,877.667725 
	C235.447266,876.900513 236.090225,876.148865 236.965363,875.101318 
	C227.919861,869.042847 218.976074,863.110107 210.091003,857.090698 
	C183.248199,838.905273 157.783615,819.132812 138.559082,792.557434 
	C127.749611,777.614868 116.447975,762.806213 109.936981,745.352783 
	C101.784698,723.499634 95.724037,701.113831 93.931969,677.619263 
	C93.079590,666.444214 94.078300,655.540833 96.527344,644.939941 
	C99.839241,630.604065 101.637802,615.945251 107.445724,602.053162 
	C111.582527,592.158081 117.459503,583.687134 123.498131,575.229065 
	C127.988297,568.939880 130.050217,562.735229 129.467102,554.911255 
	C127.499916,528.516907 131.349655,502.864838 140.452576,477.962952 
	C147.640656,458.299255 154.009796,438.322662 161.674698,418.851929 
	C166.224655,407.293915 172.533691,396.423157 178.143005,385.289337 
	C181.350098,378.923645 184.740112,372.650116 188.253952,365.941437 
	C183.593658,365.170654 179.089218,364.634674 174.682159,363.658936 
	C159.427856,360.281555 148.833954,350.461212 140.409119,338.014008 
	C131.404480,324.710205 124.397278,310.292664 120.701393,294.680664 
	C117.082817,279.395264 116.265419,263.849823 119.135788,248.107742 
	C122.222153,231.181122 125.994614,214.529633 134.289886,199.338593 
	C150.078705,170.424728 172.206589,148.516068 204.257187,138.218628 
	C227.121750,130.872543 250.498276,130.798920 273.942688,134.653961 
	C291.737518,137.580032 308.332825,143.715302 322.583862,155.152893 
	C336.857269,166.608459 344.236328,181.368225 343.580505,199.871246 
	C343.528961,201.325058 343.573730,202.782288 343.573730,205.436111 
	C350.551727,203.029327 356.824158,201.161148 362.867950,198.725662 
	C380.648987,191.560440 399.186707,187.175125 417.697021,182.384781 
	C444.860931,175.354935 472.423798,173.411255 500.218262,172.110077 
	C527.047485,170.854111 553.871033,169.871719 580.560974,173.326813 
	C598.015442,175.586365 615.418152,178.549210 632.652344,182.121674 
	C649.885132,185.693848 667.038696,189.870743 683.930847,194.797653 
	C699.046753,199.206497 713.804138,204.875656 728.611938,210.283676 
	C731.546936,211.355560 732.624023,210.901703 733.929504,208.226181 
	C746.482727,182.499771 766.891602,165.915863 793.660461,156.362183 
	C816.415894,148.240891 839.622131,145.474014 863.433411,149.281296 
	C889.444214,153.440292 910.588440,166.500992 928.381531,185.660995 
	C943.484497,201.924240 952.917664,221.341995 958.890259,242.216446 
	C963.722412,259.104950 967.040344,276.543030 969.546814,293.950836 
	C972.602173,315.171204 965.906006,334.514557 954.135925,352.010681 
	C943.520935,367.789795 929.377686,379.747040 912.217773,388.038086 
	C910.584045,388.827423 908.760620,389.214386 907.067688,389.894012 
	C905.567688,390.496277 904.126831,391.245941 902.594727,391.960938 
	C906.489014,398.820282 910.402771,405.162872 913.785583,411.777069 
	C923.477417,430.726868 929.039734,450.989838 933.024414,471.831268 
	C936.204712,488.465942 940.490601,504.886383 943.896301,521.481812 
	C946.101746,532.228577 947.404602,543.157776 949.469666,553.936646 
	C952.972961,572.222412 957.184937,590.380981 960.324463,608.725647 
	C964.837402,635.095032 971.297363,661.336914 968.574890,688.442749 
	C966.912354,704.994873 963.432251,721.015015 952.312683,734.263977 
	C947.181580,740.377686 941.342041,745.262024 933.116516,746.823364 
	C931.440002,747.141724 929.582764,749.195984 928.757446,750.907471 
	C916.531128,776.260864 901.309082,799.510681 881.225647,819.393127 
	C878.997864,821.598572 876.569397,823.601257 874.332275,825.609436 
	C879.954468,832.129822 885.440552,837.738098 890.061218,843.986328 
	C906.981506,866.866333 923.637817,889.941833 940.323730,912.994202 
	C942.367188,915.817322 944.238159,918.823792 945.767944,921.951233 
	C961.399170,953.905029 977.987732,985.448547 992.123596,1018.054138 
	C1000.734802,1037.916504 1005.528870,1059.433960 1012.018738,1080.604004 
	C1004.312439,1081.000000 996.624817,1081.000000 988.468628,1081.000000 
	C984.435425,1067.442993 981.047913,1053.836060 977.249207,1040.344971 
	C974.302063,1029.878052 971.264343,1019.400513 967.522644,1009.200806 
	C959.213806,986.551147 948.816345,964.911560 935.460022,944.710754 
	C928.330933,933.928284 922.376099,922.358765 915.080078,911.699829 
	C901.499451,891.859680 887.328064,872.423889 873.396484,852.824097 
	C870.713806,849.049988 867.650940,845.492798 865.404724,841.476868 
	C863.153320,837.451477 860.454163,837.641418 857.172668,839.474792 
	C847.784424,844.720032 838.677124,850.541077 828.998352,855.172119 
	C820.072021,859.443054 810.701111,862.946350 801.258301,865.944458 
	C776.023438,873.956482 750.697937,881.695801 725.301147,889.179626 
	C712.291199,893.013367 699.053223,896.074158 685.912415,899.461487 
	C684.958130,899.707520 683.735352,900.196777 683.019653,899.828979 
	C681.252869,898.921021 679.708374,897.580383 678.074585,896.413818 
	C679.228149,894.829224 680.046387,892.434387 681.591125,891.795105 
	C689.877258,888.365906 698.417542,885.555359 706.735535,882.198059 
	C735.489075,870.592896 765.611694,862.472229 793.241394,847.991638 
	C804.483093,842.099915 816.454956,837.472534 827.250610,830.886536 
	C847.045959,818.810120 866.690247,806.193848 879.781555,786.193298 
	C888.503662,772.867981 896.876953,759.310242 905.213806,745.738220 
	C910.964478,736.376343 916.247681,726.727173 922.000549,717.366699 
	C926.139160,710.632629 932.259888,711.240112 936.977966,718.687561 
	C944.029907,709.554810 945.638062,698.953491 946.080078,687.882935 
	C946.367798,680.677124 948.139404,673.465027 947.827820,666.317627 
	C947.452637,657.710449 945.542725,649.173218 944.354919,640.597656 
	C943.205017,632.296204 942.256287,623.964722 940.968628,615.685425 
	C940.266479,611.171143 938.987122,606.749512 938.067871,602.265625 
	C935.858765,591.490540 933.505432,580.739319 931.589539,569.911377 
	C929.530151,558.272156 928.004822,546.539490 926.060120,534.878662 
	C924.005920,522.561462 921.753601,510.277008 919.546631,497.985596 
	C918.066895,489.744598 916.626221,481.493500 914.929932,473.296173 
	C914.404236,470.756134 912.942871,468.425049 912.174011,465.917328 
	C909.106079,455.911499 905.630432,445.992096 903.278564,435.815887 
	C900.729858,424.788116 896.454163,414.542816 891.086914,404.750977 
	C888.297852,399.662659 884.884216,394.686401 880.821228,390.581512 
	C874.954651,384.654449 875.138000,377.994720 882.508484,374.104279 
	C886.367310,372.067383 890.488464,369.937683 894.709412,369.304474 
	C902.511963,368.133850 908.896057,364.448975 914.605896,359.591492 
	C923.179504,352.297913 931.968018,345.305664 936.866394,334.437073 
	C944.385498,317.753906 948.514465,300.974152 943.912537,282.657349 
	C940.839722,270.426544 939.534119,257.688812 935.733887,245.718842 
	C930.483459,229.181458 924.224487,213.180420 911.387756,200.125687 
	C901.568176,190.139435 890.080811,183.499802 878.142456,177.145752 
	C861.754150,168.423248 843.956848,167.928162 826.080322,169.596909 
	C817.549438,170.393280 808.846069,171.725433 800.769348,174.444366 
	C788.601013,178.540665 778.043335,185.889313 767.755310,193.620224 
	C759.114441,200.113449 752.433594,208.147858 747.623169,217.551529 
	C744.859619,222.953949 743.832153,229.239212 741.974182,235.111542 
	C740.241028,240.589432 738.911804,246.271790 736.448120,251.404984 
	C735.430176,253.525940 731.592346,255.996613 729.610596,255.579971 
	C726.025146,254.826172 722.911438,252.030228 723.012390,247.406281 
	C723.110474,242.910080 723.247681,238.404221 723.032104,233.918732 
	C722.975098,232.732574 721.950195,231.022903 720.912354,230.543381 
	C711.946533,226.400772 703.025757,222.083633 693.786987,218.634155 
	C687.007019,216.102707 679.752686,214.857544 672.740295,212.928238 
	C665.932312,211.055130 659.206482,208.868835 652.362915,207.144089 
	C647.127258,205.824570 641.751465,205.071701 636.461548,203.955154 
	C629.986206,202.588394 623.534180,201.110733 617.076538,199.661087 
	C616.600342,199.554199 616.175049,199.172180 615.701111,199.110779 
	C607.454102,198.042374 599.224243,196.774765 590.948181,196.012177 
	C577.991089,194.818268 565.016602,193.636230 552.022400,193.075775 
	C540.546875,192.580811 529.034424,192.932144 517.538269,192.930954 
	C513.207397,192.930511 508.875305,192.935486 504.545837,193.031525 
	C491.606842,193.318527 478.668243,193.631210 465.731354,193.998856 
	C464.432983,194.035736 463.147156,194.515289 461.389587,194.730515 
	C460.825714,194.630966 460.727783,194.590332 460.629822,194.549683 
	C460.738281,194.710892 460.846710,194.872101 460.955139,195.033325 
	C456.385834,195.347504 451.799774,195.514908 447.253815,196.033691 
	C444.733185,196.321365 442.271912,197.167313 439.798859,197.818390 
	C438.519775,198.155121 437.298767,198.830963 436.007782,198.983643 
	C429.859467,199.710785 423.659576,200.079453 417.551849,201.043198 
	C413.907043,201.618332 410.394623,203.043503 406.829224,204.108475 
	C397.387604,206.928650 387.940216,209.729874 378.512360,212.595444 
	C365.004944,216.700989 351.332550,220.361877 338.084808,225.185410 
	C330.664429,227.887177 324.092834,232.837952 316.877289,236.216949 
	C312.891907,238.083267 308.366486,238.796265 304.016876,240.048660 
	C301.397827,228.023758 308.511292,217.947937 321.969666,212.493973 
	C322.327301,209.840408 322.741791,207.417450 322.968597,204.977051 
	C324.509186,188.401230 314.516602,173.417816 299.063904,166.851166 
	C292.734314,164.161407 286.609314,160.850677 280.083771,158.801544 
	C273.862701,156.848007 267.206207,156.326431 260.803528,154.896072 
	C248.122345,152.063080 235.786713,152.663193 222.978378,155.461975 
	C211.907028,157.881210 201.233597,160.844986 191.368347,166.147049 
	C179.289200,172.638992 169.741074,182.231888 162.209976,193.599258 
	C157.530594,200.662247 153.082672,208.023712 149.697861,215.761673 
	C145.677795,224.951828 143.280304,234.787750 140.474777,244.452789 
	C136.951416,256.590607 138.489548,268.444977 138.207443,280.387543 
	C138.069611,286.221954 140.062256,292.200256 141.655685,297.957001 
	C143.420364,304.332458 145.145416,310.880737 148.137253,316.712738 
	C151.692917,323.643890 156.482330,329.958801 160.912613,336.420471 
	C166.834625,345.057800 176.160156,348.490845 185.429962,351.826660 
	C190.100952,353.507538 194.288239,351.652527 197.146225,347.503540 
	C204.641754,336.622162 211.991486,325.629242 219.833679,315.001282 
	C226.024246,306.611664 233.255966,298.977661 239.262314,290.469482 
	C242.927994,285.276917 245.820160,279.285400 247.808914,273.241180 
	C249.427399,268.322296 245.568314,264.404572 242.509460,260.714020 
	C237.481888,254.648087 230.613922,254.298416 223.471619,253.792191 
	C219.053101,253.479034 214.299362,252.300522 210.559692,250.065491 
	C208.250122,248.685165 206.631516,244.671005 206.371475,241.693542 
	C206.003113,237.475739 208.849762,233.831802 212.726227,232.413513 
	C223.634094,228.422684 234.461197,228.745926 245.232895,233.720627 
	C253.592117,237.581161 260.890472,242.393066 266.178986,250.138535 
	C271.202118,257.495300 272.589447,275.000092 265.009277,282.346252 
	C261.166046,286.070892 259.641327,292.092621 256.652649,296.812561 
	C248.336792,309.945557 239.679504,322.862701 231.391312,336.012756 
	C223.354889,348.763245 215.504166,361.634338 207.780380,374.576874 
	C203.899719,381.079590 200.643097,387.952606 196.823685,394.494324 
	C187.134659,411.089264 180.352448,428.884552 174.754807,447.175140 
	C171.053574,459.269165 167.133942,471.315247 163.999634,483.558807 
	C160.576645,496.930115 157.974884,510.510803 154.942444,523.983826 
	C154.446854,526.185730 153.816177,528.419556 152.837662,530.439880 
	C148.028183,540.370117 148.027328,550.959290 147.823013,561.653503 
	C147.737503,566.129028 145.926071,570.609375 144.652298,575.016113 
	C142.514618,582.411560 140.307739,589.792542 137.882156,597.097290 
	C136.252655,602.004639 134.014587,606.709412 132.373688,611.613525 
	C130.077576,618.476013 128.013840,625.419189 125.982796,632.366516 
	C124.306274,638.101074 122.777496,643.880371 121.286537,649.666443 
	C120.961166,650.929138 120.999458,652.304688 120.997360,653.628479 
	C120.976898,666.562073 120.496384,679.521790 121.186752,692.418396 
	C121.534508,698.914734 124.053154,705.289124 125.529167,711.732666 
	C126.694420,716.819641 127.499382,722.005493 128.951279,727.006042 
	C130.566132,732.567810 133.047424,737.882446 134.588791,743.460144 
	C137.215149,752.964111 142.451859,761.122925 147.678696,769.196411 
	C152.438278,776.548218 157.470596,783.968811 163.625488,790.114441 
	C172.878418,799.353577 183.078537,807.671631 193.151672,816.049744 
	C197.914139,820.010864 203.553299,822.910706 208.368637,826.817200 
	C214.441193,831.743530 219.704712,837.711914 225.971909,842.345215 
	C245.707123,856.935242 265.312561,871.763000 288.067108,881.664062 
	C295.814850,885.035278 302.986511,889.759399 310.791779,892.962952 
	C322.278900,897.677551 334.106476,901.560425 345.768555,905.853210 
	C348.025726,906.684021 350.189117,907.769592 352.267426,909.268677 
	C340.730286,911.708435 329.245941,912.058777 317.987122,909.008240 
	C305.601410,905.652344 293.300171,901.896973 281.168915,897.715637 
	C270.400787,894.004028 259.788696,889.754700 249.395187,885.100647 
	C246.786453,883.932556 245.801682,884.352112 244.558243,886.049133 
	C229.577118,906.496460 214.630219,926.968811 199.685257,947.442566 
	C198.023560,949.718872 196.167862,951.904602 194.849213,954.371277 
	C189.787689,963.839966 184.739685,973.323181 180.005249,982.957520 
	C174.525238,994.109009 168.846878,1005.210938 164.221527,1016.722839 
	C157.989746,1032.233032 152.547363,1048.067505 147.051941,1063.862183 
	C145.216415,1069.137817 144.258453,1074.718750 142.949646,1080.580078 
	C137.311951,1081.000000 131.623917,1081.000000 125.467941,1081.000000 
z"/>
<path fill="#2D2B3E" opacity="1.000000" stroke="none" 
	d="
M185.467941,1081.000000 
	C195.706375,1048.928955 214.732162,1022.359802 238.914459,999.045288 
	C240.346436,1004.799316 238.877945,1010.078735 236.442490,1014.745056 
	C229.378525,1028.279663 221.571320,1041.426514 214.520966,1054.967896 
	C210.252289,1063.166626 206.847061,1071.814941 203.026947,1080.630615 
	C197.311966,1081.000000 191.623917,1081.000000 185.467941,1081.000000 
z"/>
<path fill="#2D2B3D" opacity="1.000000" stroke="none" 
	d="
M750.468262,1081.000000 
	C749.640930,1074.136353 749.386597,1067.263916 748.819946,1060.417480 
	C748.725159,1059.272217 747.476013,1057.954224 746.415100,1057.205200 
	C742.484619,1054.430542 740.614502,1050.515381 742.718262,1048.168579 
	C745.544434,1045.016235 748.844910,1045.602173 752.148499,1047.739380 
	C753.212891,1048.428101 754.537598,1048.739380 755.771057,1049.137085 
	C759.153687,1050.227539 761.343140,1052.117065 762.220947,1055.896118 
	C764.124634,1064.091675 766.492249,1072.179565 768.835083,1080.655762 
	C762.978821,1081.000000 756.957703,1081.000000 750.468262,1081.000000 
z"/>
<path fill="#2E2C3F" opacity="1.000000" stroke="none" 
	d="
M526.675903,785.902344 
	C520.598328,788.197998 515.046204,790.956665 509.180939,792.593140 
	C501.155701,794.832275 492.895020,796.230652 484.730133,797.965332 
	C480.248535,798.917480 475.760712,799.841675 471.268097,800.740601 
	C464.169373,802.160889 457.114075,804.002991 449.944153,804.790039 
	C445.252441,805.305054 440.395264,804.175110 435.604279,803.953674 
	C426.978119,803.554993 418.300323,803.729126 409.727997,802.848022 
	C399.285889,801.774841 388.918793,799.932190 378.541870,798.280151 
	C372.533295,797.323608 366.573273,796.065491 360.584259,794.982422 
	C352.614960,793.541138 344.480713,792.707031 336.712646,790.549011 
	C329.789978,788.625854 323.102142,785.595886 316.626740,782.411560 
	C311.912262,780.093201 307.304504,777.170471 303.467224,773.630371 
	C301.729065,772.026978 300.746124,767.712402 301.680908,765.654724 
	C302.554962,763.730713 306.335449,762.454651 308.983063,762.145203 
	C314.986023,761.443542 320.591827,763.120178 325.909882,766.203918 
	C328.197083,767.530151 331.163239,767.744873 333.854126,768.305115 
	C344.104675,770.439148 354.368805,772.508118 365.798279,774.840210 
	C355.298035,757.792725 356.886719,740.644531 359.374725,723.343628 
	C341.258148,721.505859 325.524506,713.855103 313.323029,699.415100 
	C308.346558,693.525574 302.717194,687.965149 298.893890,681.379028 
	C293.856842,672.702087 291.964203,662.860046 290.678711,652.729675 
	C289.254150,641.503540 292.652649,632.114502 298.091888,623.062744 
	C306.956390,608.310852 321.010376,601.840881 337.407745,599.687683 
	C346.092468,598.547302 354.847412,597.123108 363.562042,597.178528 
	C392.712524,597.364075 420.856445,602.673767 447.219055,615.698547 
	C452.675293,618.394287 458.691071,620.441223 463.364441,624.152710 
	C482.109467,639.039307 477.695892,661.709290 466.581116,676.562805 
	C456.108154,690.558594 443.328186,702.195862 428.648438,711.177368 
	C420.521210,716.149780 410.395996,717.919006 401.090698,720.878479 
	C396.095795,722.467163 390.930237,723.519348 384.334869,725.196838 
	C385.087921,731.970764 386.614166,739.382507 386.564392,746.783630 
	C386.495667,757.006958 392.763550,764.940125 395.147614,774.226562 
	C395.899109,777.153809 397.781128,779.258118 401.868652,779.234497 
	C409.719330,779.189026 417.570160,780.335205 425.432037,780.523865 
	C428.999908,780.609558 432.583069,779.488403 436.178802,779.091003 
	C445.866333,778.020203 455.640198,777.496582 465.234222,775.887695 
	C472.941528,774.595154 480.439392,772.046204 488.023315,770.028992 
	C491.635162,769.068359 495.298767,768.241516 498.819122,767.011169 
	C504.710175,764.952332 510.430115,762.388550 516.358032,760.453552 
	C525.597290,757.437744 531.498169,750.357971 537.889282,743.739868 
	C543.609741,737.816284 550.594421,735.810242 558.647156,738.127808 
	C563.908875,739.642090 568.204346,748.937317 566.298340,754.080261 
	C563.889893,760.578796 559.389160,765.290955 553.818298,768.961548 
	C545.010681,774.764893 535.991455,780.247070 526.675903,785.902344 
M361.660767,644.488953 
	C365.704681,642.054871 364.988007,639.903259 361.495300,637.486694 
	C354.865723,632.899536 347.641235,633.515076 340.394135,634.931152 
	C337.024109,635.589722 333.801575,637.003235 330.201355,638.175781 
	C336.404205,646.792664 348.201202,649.022583 361.660767,644.488953 
z"/>
<path fill="#2E2C3F" opacity="1.000000" stroke="none" 
	d="
M632.965088,577.990173 
	C631.420349,588.501465 627.957703,597.832458 621.863220,606.049988 
	C615.655396,614.420349 607.565247,619.344971 596.779053,617.926392 
	C587.374756,616.689636 581.686951,610.069824 577.490906,602.478333 
	C571.630371,591.875488 569.372070,580.094299 570.133911,568.104126 
	C571.109802,552.747070 574.733093,538.036377 584.896423,525.772095 
	C590.229431,519.336670 597.491821,515.164307 605.455872,515.521545 
	C613.164856,515.867432 620.417664,519.797363 624.865540,526.932678 
	C634.661804,542.647827 637.263245,559.584595 632.965088,577.990173 
M597.158081,544.105347 
	C598.689392,545.032898 600.553650,546.989136 601.668030,546.628479 
	C603.070862,546.174438 604.642212,543.875244 604.740723,542.285461 
	C604.907898,539.587646 604.383118,536.667053 603.406982,534.125122 
	C602.254944,531.125183 598.385010,530.935547 597.387268,533.917664 
	C596.425842,536.791565 596.991211,540.176208 597.158081,544.105347 
z"/>
<path fill="#2D2C3E" opacity="1.000000" stroke="none" 
	d="
M816.583923,268.268677 
	C811.676270,271.324127 807.084106,274.176849 802.591858,277.179138 
	C801.196045,278.111938 800.071167,279.450073 798.062500,281.303802 
	C803.007080,283.403961 806.959045,285.110748 810.932800,286.765106 
	C823.717407,292.087524 831.604797,302.489349 837.639526,314.124664 
	C840.627869,319.886383 841.781494,326.791565 842.786255,333.329834 
	C843.599365,338.620758 840.183289,342.564911 835.935669,342.957397 
	C831.271118,343.388397 827.410828,340.295746 826.211243,334.882690 
	C823.163086,321.127625 813.751160,312.898468 802.427856,306.448517 
	C798.002197,303.927551 792.739807,302.691040 787.716431,301.440369 
	C775.411316,298.376770 772.966675,282.743042 778.902100,273.497040 
	C787.454102,260.175110 799.067810,250.277817 812.594604,242.837311 
	C818.475037,239.602707 825.327637,237.860794 832.327942,236.435043 
	C843.599060,234.139496 853.024292,236.930771 862.081970,242.097824 
	C870.533752,246.919189 875.753845,254.989548 878.638916,264.195526 
	C879.145203,265.810883 876.944092,268.563019 875.453003,270.335663 
	C875.020447,270.849854 872.210938,270.269012 871.336914,269.368866 
	C861.539856,259.279205 848.973206,259.953644 836.836853,261.307007 
	C830.035095,262.065460 823.560181,265.754822 816.583923,268.268677 
z"/>
<path fill="#2E2C3E" opacity="1.000000" stroke="none" 
	d="
M268.634979,593.583862 
	C261.478607,587.274109 256.945831,580.435425 255.491577,570.688965 
	C254.449387,563.704102 252.120590,557.072632 253.880600,549.906860 
	C255.317154,544.057922 255.922409,537.891357 258.162598,532.380371 
	C261.401947,524.411438 264.933441,516.403503 272.466614,511.091034 
	C280.280090,505.580841 294.764252,505.146851 301.670288,515.418640 
	C309.736053,527.415283 311.711792,540.613037 308.881226,554.577820 
	C307.503754,561.373779 306.172455,568.274780 303.792297,574.750305 
	C299.805298,585.597473 292.347321,593.769714 280.913544,596.620728 
	C277.379822,597.501831 272.960205,594.830139 268.634979,593.583862 
M278.420044,538.853577 
	C281.140411,540.668091 284.005219,541.312195 286.171936,538.347656 
	C288.562744,535.076538 287.897156,528.674316 285.174316,526.865479 
	C282.791382,525.282471 280.036011,525.112549 279.125183,528.304810 
	C278.243988,531.393188 278.391876,534.775269 278.420044,538.853577 
z"/>
<path fill="#2D2B3E" opacity="1.000000" stroke="none" 
	d="
M646.245117,390.685425 
	C651.623535,396.677246 657.366638,402.042053 661.526611,408.436737 
	C664.331421,412.748169 666.262817,418.540558 663.303772,423.873108 
	C662.287231,425.705078 659.426331,427.910156 657.706909,427.682922 
	C653.269104,427.096466 648.540894,426.011597 644.755310,423.745056 
	C636.750305,418.952240 628.234131,415.785889 619.507568,412.671143 
	C612.325134,410.107666 605.146973,409.533203 597.785828,408.704559 
	C594.746277,408.362427 590.924377,406.217682 589.347900,403.706482 
	C587.055115,400.054108 589.912109,393.177612 593.454285,390.323730 
	C601.233093,384.056366 610.502502,383.275635 619.810425,383.772797 
	C628.871460,384.256836 637.988098,385.320679 646.245117,390.685425 
z"/>
<path fill="#2D2B3E" opacity="1.000000" stroke="none" 
	d="
M321.113770,391.138031 
	C315.609650,392.614685 310.418793,393.993347 305.149139,394.927551 
	C298.273163,396.146606 291.185791,396.440582 284.464142,398.188934 
	C277.385284,400.030151 270.345947,402.552643 263.825775,405.841125 
	C258.801392,408.375214 254.870087,405.312775 252.974213,403.075470 
	C251.079788,400.839783 250.988708,394.913879 252.673828,392.198547 
	C258.538361,382.748627 267.862061,377.168213 278.095490,373.173431 
	C285.981689,370.094879 294.152802,370.236328 302.409363,371.066010 
	C310.392365,371.868286 320.159698,379.908875 321.864014,387.478027 
	C322.096771,388.511658 321.568085,389.716705 321.113770,391.138031 
z"/>
<path fill="#000000" opacity="1.000000" stroke="none" 
	d="
M460.977966,195.013641 
	C460.846710,194.872101 460.738281,194.710892 460.629822,194.549683 
	C460.727783,194.590332 460.825714,194.630966 460.981995,194.810089 
	C461.040375,194.948578 461.000763,194.993973 460.977966,195.013641 
z"/>
<path fill="#EBF0F3" opacity="1.000000" stroke="none" 
	d="
M361.325195,644.658508 
	C348.201202,649.022583 336.404205,646.792664 330.201355,638.175781 
	C333.801575,637.003235 337.024109,635.589722 340.394135,634.931152 
	C347.641235,633.515076 354.865723,632.899536 361.495300,637.486694 
	C364.988007,639.903259 365.704681,642.054871 361.325195,644.658508 
z"/>
<path fill="#E7ECEF" opacity="1.000000" stroke="none" 
	d="
M597.021973,543.720947 
	C596.991211,540.176208 596.425842,536.791565 597.387268,533.917664 
	C598.385010,530.935547 602.254944,531.125183 603.406982,534.125122 
	C604.383118,536.667053 604.907898,539.587646 604.740723,542.285461 
	C604.642212,543.875244 603.070862,546.174438 601.668030,546.628479 
	C600.553650,546.989136 598.689392,545.032898 597.021973,543.720947 
z"/>
<path fill="#E8EEF1" opacity="1.000000" stroke="none" 
	d="
M278.253906,538.440918 
	C278.391876,534.775269 278.243988,531.393188 279.125183,528.304810 
	C280.036011,525.112549 282.791382,525.282471 285.174316,526.865479 
	C287.897156,528.674316 288.562744,535.076538 286.171936,538.347656 
	C284.005219,541.312195 281.140411,540.668091 278.253906,538.440918 
z"/>
</svg>