<svg version="1.1" id="Layer_1" xmlns="http://www.w3.org/2000/svg" xmlns:xlink="http://www.w3.org/1999/xlink" x="0px" y="0px"
	 width="100%" viewBox="0 0 1080 1080" enable-background="new 0 0 1080 1080" xml:space="preserve">

<path fill="#2E2B40" opacity="1.000000" stroke="none" 
	d="
M432.940491,218.948471 
	C399.461090,219.390656 369.833649,230.024963 342.812897,248.557236 
	C325.955048,260.119232 311.239075,274.022156 297.747589,289.323944 
	C296.498718,290.740387 293.786865,290.866974 291.754333,291.592499 
	C291.555481,289.687958 290.613251,287.466949 291.269073,285.926208 
	C301.476532,261.944763 314.456543,239.577820 329.705261,218.394989 
	C333.368835,213.305756 335.318939,206.144424 335.807617,199.763763 
	C337.344360,179.698380 341.442657,160.304611 347.848816,141.283524 
	C361.081848,101.992249 385.957031,72.969414 422.751862,53.607590 
	C454.620453,36.838013 488.674225,28.196606 523.960632,22.848230 
	C553.313171,18.399242 581.597961,23.231585 609.816345,30.454197 
	C626.192627,34.645760 642.100769,39.866405 656.451782,49.083679 
	C681.498718,65.170738 698.611938,87.555969 710.719238,114.601730 
	C723.344604,142.804565 729.307434,172.444763 733.036987,202.776367 
	C733.660156,207.843979 735.594421,212.964523 735.157837,217.904648 
	C734.186218,228.898941 726.450256,235.963501 717.631958,240.828583 
	C706.324707,247.066742 694.581299,253.044159 682.320007,256.874084 
	C670.075439,260.698792 659.824097,267.071991 649.781372,274.478760 
	C641.215210,280.796570 632.612915,287.134827 623.567383,292.720245 
	C596.345703,309.529022 569.353699,307.889923 545.108948,287.206940 
	C532.372620,276.341675 520.437500,264.434723 508.937775,252.246078 
	C491.234039,233.481796 469.883423,222.665955 444.347687,219.884674 
	C440.715973,219.489136 437.066498,219.257248 432.940491,218.948471 
M306.681824,267.883759 
	C307.983887,266.891235 309.454254,266.057343 310.562164,264.881836 
	C322.368591,252.354553 336.269257,242.489532 350.836121,233.560883 
	C357.300232,229.598755 364.276764,226.472702 371.463623,222.924362 
	C371.463623,222.924362 371.908417,222.911316 372.330383,222.710419 
	C372.598053,222.544800 372.826263,222.336075 373.751709,221.925339 
	C378.483307,220.337784 383.177277,218.625595 387.953094,217.184570 
	C407.087036,211.411224 426.672241,208.748779 446.516296,211.360611 
	C472.699738,214.806839 495.403900,225.516113 513.764526,245.159241 
	C523.264465,255.322754 533.880493,264.443085 544.273315,274.416840 
	C544.480225,274.661469 544.723694,274.861755 544.996582,275.001556 
	C544.996582,275.001556 544.979126,275.003204 545.176453,275.644226 
	C549.755310,279.190826 554.077942,283.146729 558.962524,286.205017 
	C572.066101,294.409271 586.154297,298.121582 601.322510,292.811920 
	C606.609924,290.961090 611.821228,288.381073 616.437317,285.215393 
	C633.674255,273.394440 650.649902,261.192535 668.792236,248.378815 
	C667.195374,247.166199 665.353821,245.522324 663.287964,244.239792 
	C652.003174,237.234070 641.047913,229.554352 629.229492,223.593079 
	C618.307373,218.083878 606.439819,214.448898 595.001648,209.997162 
	C595.001648,209.997162 595.015869,210.003540 594.584900,209.599014 
	C594.029053,209.416870 593.473267,209.234726 592.486572,209.009583 
	C592.486572,209.009583 592.056152,208.961533 591.613647,208.581757 
	C591.067566,208.399796 590.521484,208.217834 589.234619,207.868927 
	C559.786072,199.483566 529.556396,196.078262 499.128265,195.269699 
	C474.044189,194.603149 448.904327,195.360550 423.806671,196.089508 
	C402.441345,196.710083 381.430481,200.052795 361.357239,207.787567 
	C350.359711,212.025208 338.951874,216.326569 331.252380,225.510223 
	C324.830902,233.169479 320.321899,242.432114 314.493927,251.473495 
	C311.660858,256.981262 308.827789,262.489014 305.731567,268.212555 
	C305.731171,268.438110 305.730774,268.663666 305.730347,268.889221 
	C305.822510,268.595123 305.914673,268.301056 306.681824,267.883759 
M598.008667,199.993927 
	C598.008667,199.993927 598.014709,199.928955 598.414124,200.518234 
	C613.477539,207.139359 628.905273,213.059036 643.476746,220.627304 
	C653.252747,225.704849 663.513184,231.678040 670.467468,239.872421 
	C678.223816,249.012009 684.918823,248.801422 693.814087,244.050720 
	C694.831665,243.507248 696.059326,243.348709 697.059143,242.781693 
	C704.981995,238.288864 713.228455,234.249100 720.667725,229.056244 
	C727.227905,224.477005 727.409668,221.650299 724.648010,214.474686 
	C724.351685,213.704681 724.096191,212.898773 723.970215,212.086487 
	C722.594177,203.215912 721.053528,194.365295 719.928223,185.462433 
	C715.834167,153.074066 704.801514,123.119392 687.523499,95.597702 
	C682.782227,88.045509 675.689392,81.969627 669.439331,74.842270 
	C669.297302,74.578857 669.110291,74.352585 668.788452,73.635010 
	C668.489319,73.469299 668.190125,73.303596 667.424194,72.660995 
	C661.245422,68.149590 655.507874,62.804184 648.815430,59.263695 
	C608.857361,38.124645 566.481384,28.049902 521.214844,34.084438 
	C489.734131,38.281170 459.193817,46.398376 430.510742,60.347435 
	C399.176910,75.585602 375.479614,98.594040 361.157318,130.702621 
	C353.268982,148.387161 348.133514,166.946289 344.295074,185.855408 
	C342.774048,193.348206 342.171448,201.027451 341.213501,208.154541 
	C347.644348,205.410370 353.768738,202.807343 359.884888,200.185104 
	C377.865997,192.475922 396.938263,189.147476 416.203461,188.171707 
	C444.795227,186.723587 473.467285,185.788910 502.083649,186.185974 
	C533.430969,186.620895 564.515686,190.507523 595.347595,199.530441 
	C596.249084,199.668640 597.150513,199.806839 598.008667,199.993927 
z"/>
<path fill="#F1E6D6" opacity="1.000000" stroke="none" 
	d="
M668.878418,74.163460 
	C669.110291,74.352585 669.297302,74.578857 669.543701,75.399399 
	C670.326843,77.288002 670.873657,78.708687 671.704041,79.937744 
	C687.552368,103.392990 698.252686,129.091858 705.318298,156.416397 
	C709.650269,173.169373 714.888672,189.714828 715.218506,207.263123 
	C715.333191,213.364075 713.298889,218.346634 708.916077,222.417953 
	C701.611267,229.203613 680.446106,232.345749 671.314758,228.428299 
	C653.582397,220.820908 635.815674,213.283096 617.918030,206.077057 
	C611.499023,203.492599 604.661316,201.948090 598.014709,199.928955 
	C598.014709,199.928955 598.008667,199.993927 597.814453,199.685318 
	C596.696777,199.260880 595.773376,199.145050 594.849915,199.029221 
	C564.515686,190.507523 533.430969,186.620895 502.083649,186.185974 
	C473.467285,185.788910 444.795227,186.723587 416.203461,188.171707 
	C396.938263,189.147476 377.865997,192.475922 359.884888,200.185104 
	C353.768738,202.807343 347.644348,205.410370 341.213501,208.154541 
	C342.171448,201.027451 342.774048,193.348206 344.295074,185.855408 
	C348.133514,166.946289 353.268982,148.387161 361.157318,130.702621 
	C375.479614,98.594040 399.176910,75.585602 430.510742,60.347435 
	C459.193817,46.398376 489.734131,38.281170 521.214844,34.084438 
	C566.481384,28.049902 608.857361,38.124645 648.815430,59.263695 
	C655.507874,62.804184 661.245422,68.149590 667.710083,73.160141 
	C668.290100,73.827347 668.584229,73.995407 668.878418,74.163460 
M520.555481,141.636398 
	C519.735901,131.920090 518.916321,122.203773 518.078430,112.269821 
	C519.812927,112.040871 520.765015,111.861244 521.724854,111.796700 
	C534.284790,110.952095 545.565796,106.751282 554.379395,97.683823 
	C557.289978,94.689461 559.611633,90.154778 560.184998,86.043053 
	C561.731750,74.950294 554.600281,65.671593 542.634033,62.257072 
	C531.528687,59.088219 520.873169,62.005280 510.431061,65.604141 
	C503.200317,68.096230 501.947937,70.293587 502.363953,77.967033 
	C503.831512,105.036026 505.250916,132.108170 506.946991,159.162933 
	C507.055023,160.885956 509.077606,163.492630 510.693848,163.940552 
	C517.071594,165.708008 521.918945,161.560532 521.646545,154.979126 
	C521.474670,150.827148 520.995850,146.687897 520.555481,141.636398 
M492.147217,82.757202 
	C489.122040,75.418274 483.334778,71.133797 476.011749,69.039253 
	C465.603363,66.062263 455.584503,68.867599 445.756317,72.112694 
	C438.731506,74.432167 437.499512,76.525581 437.887726,83.916405 
	C439.240448,109.668671 440.563629,135.422958 442.123108,161.162842 
	C442.224609,162.837952 443.897308,165.319748 445.395569,165.847870 
	C451.039917,167.837494 456.325806,163.808609 456.060974,157.884705 
	C455.816223,152.410934 455.016174,146.964447 454.604797,141.495117 
	C453.975067,133.123245 453.469086,124.742058 452.894409,116.122238 
	C465.027405,116.119438 475.232025,112.606560 484.250366,105.777740 
	C491.693390,100.141823 495.114532,92.946022 492.147217,82.757202 
M528.419739,128.837982 
	C529.797974,128.597992 531.176147,128.358002 532.130798,128.191788 
	C533.255615,130.450836 534.102478,132.151474 534.949280,133.852112 
	C535.383606,133.678192 535.817993,133.504288 536.252380,133.330383 
	C535.425232,129.307663 534.884888,125.196487 533.680298,121.290154 
	C532.713440,118.154716 529.421448,117.628815 527.445618,120.169456 
	C524.432739,124.043686 524.078491,128.408310 526.726013,133.260544 
	C527.189880,132.030777 527.653809,130.800995 528.419739,128.837982 
M555.795288,145.857468 
	C558.238037,143.703720 556.519104,141.827255 554.710083,141.594681 
	C553.215027,141.402496 550.071472,143.199692 550.079163,144.094620 
	C550.106934,147.337708 551.154419,150.572052 551.855652,153.997879 
	C551.733032,154.083282 550.261902,154.588150 550.114502,155.349319 
	C549.951660,156.190201 550.780640,157.772934 551.575928,158.120148 
	C552.757629,158.636063 554.846436,158.931473 555.539368,158.267258 
	C556.537659,157.310226 557.332642,155.191483 556.952393,153.957413 
	C556.300415,151.841446 554.676025,150.023926 553.452820,148.085556 
	C552.290222,146.243149 551.745361,144.816330 555.795288,145.857468 
M494.006836,147.351974 
	C492.540649,145.938629 491.074493,144.525284 489.608337,143.111923 
	C488.494690,144.391800 486.425659,145.690948 486.451019,146.947861 
	C486.520172,150.376312 487.462677,153.788956 488.104309,157.199387 
	C488.141327,157.396042 488.580536,157.517014 489.067078,157.818542 
	C489.566010,157.093338 490.070984,156.359390 490.562561,155.644928 
	C491.701538,156.705139 492.836334,157.761459 493.971130,158.817795 
	C494.351440,158.629898 494.731781,158.442017 495.112091,158.254120 
	C494.764618,156.848175 494.867889,154.963699 493.982025,154.129318 
	C491.666992,151.948639 492.728333,150.119049 494.006836,147.351974 
M482.017609,139.573578 
	C481.012604,138.118683 480.007599,136.663788 479.006653,135.214767 
	C474.648987,138.162384 473.615784,144.616806 476.625061,149.081589 
	C477.399780,147.651627 478.104797,146.350342 479.002808,144.692810 
	C480.540558,146.473526 481.730560,147.851532 482.920532,149.229523 
	C483.523529,148.987228 484.126526,148.744934 484.729523,148.502655 
	C483.923218,145.747208 483.116913,142.991760 482.017609,139.573578 
M465.022522,128.325943 
	C464.868103,127.017365 465.187714,125.255585 464.460327,124.494812 
	C462.957672,122.923149 460.867279,120.812233 459.072601,120.862160 
	C455.855072,120.951660 454.361542,125.920151 455.654877,130.370193 
	C456.442139,133.079025 457.449646,135.631622 460.960632,134.952728 
	C461.937988,134.763733 462.949371,133.734879 463.540649,132.827682 
	C464.245514,131.746201 464.515259,130.381104 465.022522,128.325943 
M540.093628,144.132690 
	C542.454834,145.514099 544.735291,146.298538 547.021851,143.015503 
	C545.177185,142.375046 543.725342,141.870956 542.380249,141.403931 
	C540.705444,137.511856 544.162964,132.405457 538.993591,128.818771 
	C537.445801,134.210052 536.793701,138.946701 540.093628,144.132690 
M468.743073,130.124893 
	C467.872498,130.292282 466.290222,130.352753 466.246399,130.644333 
	C465.954010,132.590515 465.931915,134.585999 465.930237,136.565552 
	C465.925354,142.345947 467.109924,143.169800 471.467621,141.910431 
	C470.603882,138.148956 469.779022,134.556931 468.743073,130.124893 
z"/>
<path fill="#6E2928" opacity="1.000000" stroke="none" 
	d="
M592.056152,208.961533 
	C592.056152,208.961533 592.486572,209.009583 592.923828,209.226196 
	C593.912659,209.629715 594.464294,209.816635 595.015869,210.003540 
	C595.015869,210.003540 595.001648,209.997162 595.229004,210.242584 
	C596.164490,210.922638 596.843567,211.415985 597.585022,211.783356 
	C615.270081,220.545807 630.486328,232.507965 643.638489,247.175430 
	C645.352844,249.087341 646.842407,250.658051 643.828979,252.769836 
	C633.078735,260.303711 622.893127,268.795532 611.573242,275.330139 
	C592.416809,286.388550 572.227234,287.828644 551.838379,277.941162 
	C549.602783,276.856995 547.267944,275.977600 544.979126,275.003204 
	C544.979126,275.003204 544.996582,275.001556 544.864990,274.813141 
	C544.525024,274.379456 544.277954,274.182800 543.992249,274.034729 
	C533.880493,264.443085 523.264465,255.322754 513.764526,245.159241 
	C495.403900,225.516113 472.699738,214.806839 446.516296,211.360611 
	C426.672241,208.748779 407.087036,211.411224 387.953094,217.184570 
	C383.177277,218.625595 378.483307,220.337784 373.173706,222.105545 
	C372.326874,222.450623 372.097778,222.659149 371.908417,222.911316 
	C371.908417,222.911316 371.463623,222.924362 370.796204,222.941223 
	C365.589386,223.760254 360.815887,223.922562 356.553467,225.481964 
	C342.506348,230.621033 330.662292,239.412323 319.372620,249.025940 
	C318.198853,250.025452 316.448639,250.348007 314.965881,250.984650 
	C320.321899,242.432114 324.830902,233.169479 331.252380,225.510223 
	C338.951874,216.326569 350.359711,212.025208 361.357239,207.787567 
	C381.430481,200.052795 402.441345,196.710083 423.806671,196.089508 
	C448.904327,195.360550 474.044189,194.603149 499.128265,195.269699 
	C529.556396,196.078262 559.786072,199.483566 589.824097,208.144257 
	C590.961121,208.600250 591.508606,208.780899 592.056152,208.961533 
z"/>
<path fill="#8D82B7" opacity="1.000000" stroke="none" 
	d="
M598.214417,200.223602 
	C604.661316,201.948090 611.499023,203.492599 617.918030,206.077057 
	C635.815674,213.283096 653.582397,220.820908 671.314758,228.428299 
	C680.446106,232.345749 701.611267,229.203613 708.916077,222.417953 
	C713.298889,218.346634 715.333191,213.364075 715.218506,207.263123 
	C714.888672,189.714828 709.650269,173.169373 705.318298,156.416397 
	C698.252686,129.091858 687.552368,103.392990 671.704041,79.937744 
	C670.873657,78.708687 670.326843,77.288002 669.661865,75.586411 
	C675.689392,81.969627 682.782227,88.045509 687.523499,95.597702 
	C704.801514,123.119392 715.834167,153.074066 719.928223,185.462433 
	C721.053528,194.365295 722.594177,203.215912 723.970215,212.086487 
	C724.096191,212.898773 724.351685,213.704681 724.648010,214.474686 
	C727.409668,221.650299 727.227905,224.477005 720.667725,229.056244 
	C713.228455,234.249100 704.981995,238.288864 697.059143,242.781693 
	C696.059326,243.348709 694.831665,243.507248 693.814087,244.050720 
	C684.918823,248.801422 678.223816,249.012009 670.467468,239.872421 
	C663.513184,231.678040 653.252747,225.704849 643.476746,220.627304 
	C628.905273,213.059036 613.477539,207.139359 598.214417,200.223602 
z"/>
<path fill="#421824" opacity="1.000000" stroke="none" 
	d="
M545.077759,275.323730 
	C547.267944,275.977600 549.602783,276.856995 551.838379,277.941162 
	C572.227234,287.828644 592.416809,286.388550 611.573242,275.330139 
	C622.893127,268.795532 633.078735,260.303711 643.828979,252.769836 
	C646.842407,250.658051 645.352844,249.087341 643.638489,247.175430 
	C630.486328,232.507965 615.270081,220.545807 597.585022,211.783356 
	C596.843567,211.415985 596.164490,210.922638 595.222534,210.238235 
	C606.439819,214.448898 618.307373,218.083878 629.229492,223.593079 
	C641.047913,229.554352 652.003174,237.234070 663.287964,244.239792 
	C665.353821,245.522324 667.195374,247.166199 668.792236,248.378815 
	C650.649902,261.192535 633.674255,273.394440 616.437317,285.215393 
	C611.821228,288.381073 606.609924,290.961090 601.322510,292.811920 
	C586.154297,298.121582 572.066101,294.409271 558.962524,286.205017 
	C554.077942,283.146729 549.755310,279.190826 545.077759,275.323730 
z"/>
<path fill="#421824" opacity="1.000000" stroke="none" 
	d="
M314.729919,251.229065 
	C316.448639,250.348007 318.198853,250.025452 319.372620,249.025940 
	C330.662292,239.412323 342.506348,230.621033 356.553467,225.481964 
	C360.815887,223.922562 365.589386,223.760254 370.574768,222.962585 
	C364.276764,226.472702 357.300232,229.598755 350.836121,233.560883 
	C336.269257,242.489532 322.368591,252.354553 310.562164,264.881836 
	C309.454254,266.057343 307.983887,266.891235 306.341064,267.942017 
	C306.000275,268.000244 305.994720,267.996796 305.994720,267.996796 
	C308.827789,262.489014 311.660858,256.981262 314.729919,251.229065 
z"/>
<path fill="#8D82B7" opacity="1.000000" stroke="none" 
	d="
M595.098755,199.279831 
	C595.773376,199.145050 596.696777,199.260880 597.836121,199.660873 
	C597.150513,199.806839 596.249084,199.668640 595.098755,199.279831 
z"/>
<path fill="#421824" opacity="1.000000" stroke="none" 
	d="
M591.834900,208.771637 
	C591.508606,208.780899 590.961121,208.600250 590.194458,208.227737 
	C590.521484,208.217834 591.067566,208.399796 591.834900,208.771637 
z"/>
<path fill="#421824" opacity="1.000000" stroke="none" 
	d="
M594.800415,209.801285 
	C594.464294,209.816635 593.912659,209.629715 593.139282,209.247681 
	C593.473267,209.234726 594.029053,209.416870 594.800415,209.801285 
z"/>
<path fill="#421824" opacity="1.000000" stroke="none" 
	d="
M306.003540,268.003601 
	C305.914673,268.301056 305.822510,268.595123 305.730347,268.889221 
	C305.730774,268.663666 305.731171,268.438110 305.863159,268.104675 
	C305.994720,267.996796 306.000275,268.000244 306.003540,268.003601 
z"/>
<path fill="#421824" opacity="1.000000" stroke="none" 
	d="
M372.119385,222.810867 
	C372.097778,222.659149 372.326874,222.450623 372.805359,222.184982 
	C372.826263,222.336075 372.598053,222.544800 372.119385,222.810867 
z"/>
<path fill="#8D82B7" opacity="1.000000" stroke="none" 
	d="
M668.833435,73.899246 
	C668.584229,73.995407 668.290100,73.827347 667.943481,73.398590 
	C668.190125,73.303596 668.489319,73.469299 668.833435,73.899246 
z"/>
<path fill="#421824" opacity="1.000000" stroke="none" 
	d="
M544.132812,274.225769 
	C544.277954,274.182800 544.525024,274.379456 544.868530,274.821198 
	C544.723694,274.861755 544.480225,274.661469 544.132812,274.225769 
z"/>
<path fill="#473E4E" opacity="1.000000" stroke="none" 
	d="
M520.605103,142.089661 
	C520.995850,146.687897 521.474670,150.827148 521.646545,154.979126 
	C521.918945,161.560532 517.071594,165.708008 510.693848,163.940552 
	C509.077606,163.492630 507.055023,160.885956 506.946991,159.162933 
	C505.250916,132.108170 503.831512,105.036026 502.363953,77.967033 
	C501.947937,70.293587 503.200317,68.096230 510.431061,65.604141 
	C520.873169,62.005280 531.528687,59.088219 542.634033,62.257072 
	C554.600281,65.671593 561.731750,74.950294 560.184998,86.043053 
	C559.611633,90.154778 557.289978,94.689461 554.379395,97.683823 
	C545.565796,106.751282 534.284790,110.952095 521.724854,111.796700 
	C520.765015,111.861244 519.812927,112.040871 518.078430,112.269821 
	C518.916321,122.203773 519.735901,131.920090 520.605103,142.089661 
M555.053528,93.371643 
	C561.372009,82.917870 557.393188,71.716309 545.644348,66.383171 
	C531.929077,60.157368 519.368408,65.146240 506.859406,70.273903 
	C505.635254,70.775696 504.263611,72.798035 504.270325,74.107895 
	C504.306000,81.074501 504.644806,88.046318 505.090118,95.002785 
	C506.330475,114.378929 507.640991,133.750809 509.009216,153.118332 
	C509.262726,156.706482 507.168213,161.899216 513.870422,161.856445 
	C517.750122,161.831696 518.408386,159.130768 517.914978,152.406204 
	C517.007690,140.040482 516.649841,127.634850 516.024170,115.247810 
	C515.800903,110.826851 517.902954,109.541924 522.210388,108.802338 
	C534.221191,106.740112 546.064697,103.820480 555.053528,93.371643 
z"/>
<path fill="#39374A" opacity="1.000000" stroke="none" 
	d="
M492.273560,83.150940 
	C495.114532,92.946022 491.693390,100.141823 484.250366,105.777740 
	C475.232025,112.606560 465.027405,116.119438 452.894409,116.122238 
	C453.469086,124.742058 453.975067,133.123245 454.604797,141.495117 
	C455.016174,146.964447 455.816223,152.410934 456.060974,157.884705 
	C456.325806,163.808609 451.039917,167.837494 445.395569,165.847870 
	C443.897308,165.319748 442.224609,162.837952 442.123108,161.162842 
	C440.563629,135.422958 439.240448,109.668671 437.887726,83.916405 
	C437.499512,76.525581 438.731506,74.432167 445.756317,72.112694 
	C455.584503,68.867599 465.603363,66.062263 476.011749,69.039253 
	C483.334778,71.133797 489.122040,75.418274 492.273560,83.150940 
M439.939270,86.793907 
	C440.286011,93.262436 440.616547,99.731888 440.982574,106.199326 
	C441.986938,123.945618 442.949554,141.694824 444.123779,159.429947 
	C444.221039,160.898605 445.547729,163.142471 446.735840,163.473541 
	C448.357117,163.925323 450.932373,163.440674 452.090851,162.317810 
	C453.105774,161.334045 453.030640,158.896301 452.918457,157.133850 
	C452.306732,147.524429 451.441315,137.930817 450.865753,128.319626 
	C450.648376,124.690422 450.578400,120.955505 451.234375,117.415764 
	C451.520630,115.870987 453.718414,113.639160 455.189117,113.524246 
	C464.694611,112.781525 473.460083,109.960197 481.364685,104.778969 
	C495.406525,95.574944 494.326019,80.820023 479.331940,73.061928 
	C468.793335,67.609154 458.518250,70.857872 448.323059,73.781822 
	C439.359131,76.352661 439.235260,76.948326 439.939270,86.793907 
z"/>
<path fill="#39374A" opacity="1.000000" stroke="none" 
	d="
M528.268677,129.204590 
	C527.653809,130.800995 527.189880,132.030777 526.726013,133.260544 
	C524.078491,128.408310 524.432739,124.043686 527.445618,120.169456 
	C529.421448,117.628815 532.713440,118.154716 533.680298,121.290154 
	C534.884888,125.196487 535.425232,129.307663 536.252380,133.330383 
	C535.817993,133.504288 535.383606,133.678192 534.949280,133.852112 
	C534.102478,132.151474 533.255615,130.450836 532.130798,128.191788 
	C531.176147,128.358002 529.797974,128.597992 528.268677,129.204590 
z"/>
<path fill="#39374A" opacity="1.000000" stroke="none" 
	d="
M555.363647,145.841049 
	C551.745361,144.816330 552.290222,146.243149 553.452820,148.085556 
	C554.676025,150.023926 556.300415,151.841446 556.952393,153.957413 
	C557.332642,155.191483 556.537659,157.310226 555.539368,158.267258 
	C554.846436,158.931473 552.757629,158.636063 551.575928,158.120148 
	C550.780640,157.772934 549.951660,156.190201 550.114502,155.349319 
	C550.261902,154.588150 551.733032,154.083282 551.855652,153.997879 
	C551.154419,150.572052 550.106934,147.337708 550.079163,144.094620 
	C550.071472,143.199692 553.215027,141.402496 554.710083,141.594681 
	C556.519104,141.827255 558.238037,143.703720 555.363647,145.841049 
z"/>
<path fill="#473E4E" opacity="1.000000" stroke="none" 
	d="
M493.954071,147.730026 
	C492.728333,150.119049 491.666992,151.948639 493.982025,154.129318 
	C494.867889,154.963699 494.764618,156.848175 495.112091,158.254120 
	C494.731781,158.442017 494.351440,158.629898 493.971130,158.817795 
	C492.836334,157.761459 491.701538,156.705139 490.562561,155.644928 
	C490.070984,156.359390 489.566010,157.093338 489.067078,157.818542 
	C488.580536,157.517014 488.141327,157.396042 488.104309,157.199387 
	C487.462677,153.788956 486.520172,150.376312 486.451019,146.947861 
	C486.425659,145.690948 488.494690,144.391800 489.608337,143.111938 
	C491.074493,144.525284 492.540649,145.938629 493.954071,147.730026 
z"/>
<path fill="#39374A" opacity="1.000000" stroke="none" 
	d="
M482.164124,139.904938 
	C483.116913,142.991760 483.923218,145.747208 484.729523,148.502655 
	C484.126526,148.744934 483.523529,148.987228 482.920532,149.229523 
	C481.730560,147.851532 480.540558,146.473526 479.002808,144.692810 
	C478.104797,146.350342 477.399780,147.651627 476.625061,149.081589 
	C473.615784,144.616806 474.648987,138.162384 479.006653,135.214767 
	C480.007599,136.663788 481.012604,138.118683 482.164124,139.904938 
z"/>
<path fill="#39374A" opacity="1.000000" stroke="none" 
	d="
M464.997986,128.732391 
	C464.515259,130.381104 464.245514,131.746201 463.540649,132.827682 
	C462.949371,133.734879 461.937988,134.763733 460.960632,134.952728 
	C457.449646,135.631622 456.442139,133.079025 455.654877,130.370193 
	C454.361542,125.920151 455.855072,120.951660 459.072601,120.862160 
	C460.867279,120.812233 462.957672,122.923149 464.460327,124.494812 
	C465.187714,125.255585 464.868103,127.017365 464.997986,128.732391 
M458.586853,129.990509 
	C459.070221,130.713409 459.553589,131.436310 460.036957,132.159210 
	C460.347565,132.078934 460.658173,131.998642 460.968781,131.918350 
	C460.968781,129.065552 460.968781,126.212753 460.968781,123.359955 
	C460.439240,123.318443 459.909668,123.276924 459.380127,123.235405 
	C459.056549,125.237755 458.733002,127.240112 458.586853,129.990509 
z"/>
<path fill="#39374A" opacity="1.000000" stroke="none" 
	d="
M539.806763,143.875031 
	C536.793701,138.946701 537.445801,134.210052 538.993591,128.818771 
	C544.162964,132.405457 540.705444,137.511856 542.380249,141.403931 
	C543.725342,141.870956 545.177185,142.375046 547.021851,143.015503 
	C544.735291,146.298538 542.454834,145.514099 539.806763,143.875031 
z"/>
<path fill="#39374A" opacity="1.000000" stroke="none" 
	d="
M468.848633,130.544891 
	C469.779022,134.556931 470.603882,138.148956 471.467621,141.910431 
	C467.109924,143.169800 465.925354,142.345947 465.930237,136.565552 
	C465.931915,134.585999 465.954010,132.590515 466.246399,130.644333 
	C466.290222,130.352753 467.872498,130.292282 468.848633,130.544891 
z"/>
<path fill="#6F2B2B" opacity="1.000000" stroke="none" 
	d="
M554.816162,93.653343 
	C546.064697,103.820480 534.221191,106.740112 522.210388,108.802338 
	C517.902954,109.541924 515.800903,110.826851 516.024170,115.247810 
	C516.649841,127.634850 517.007690,140.040482 517.914978,152.406204 
	C518.408386,159.130768 517.750122,161.831696 513.870422,161.856445 
	C507.168213,161.899216 509.262726,156.706482 509.009216,153.118332 
	C507.640991,133.750809 506.330475,114.378929 505.090118,95.002785 
	C504.644806,88.046318 504.306000,81.074501 504.270325,74.107895 
	C504.263611,72.798035 505.635254,70.775696 506.859406,70.273903 
	C519.368408,65.146240 531.929077,60.157368 545.644348,66.383171 
	C557.393188,71.716309 561.372009,82.917870 554.816162,93.653343 
M526.832520,73.971016 
	C522.895508,74.236328 518.134216,74.731316 517.660461,79.153000 
	C517.071228,84.652084 518.229309,90.369843 518.968933,95.948601 
	C519.090820,96.868141 521.260254,98.459755 521.932800,98.216759 
	C528.634399,95.795517 535.714844,93.861572 541.708435,90.190269 
	C548.543823,86.003365 547.138245,77.984726 539.496887,75.474777 
	C535.808411,74.263199 531.668762,74.425018 526.832520,73.971016 
z"/>
<path fill="#6F2B2B" opacity="1.000000" stroke="none" 
	d="
M439.941956,86.336884 
	C439.235260,76.948326 439.359131,76.352661 448.323059,73.781822 
	C458.518250,70.857872 468.793335,67.609154 479.331940,73.061928 
	C494.326019,80.820023 495.406525,95.574944 481.364685,104.778969 
	C473.460083,109.960197 464.694611,112.781525 455.189117,113.524246 
	C453.718414,113.639160 451.520630,115.870987 451.234375,117.415764 
	C450.578400,120.955505 450.648376,124.690422 450.865753,128.319626 
	C451.441315,137.930817 452.306732,147.524429 452.918457,157.133850 
	C453.030640,158.896301 453.105774,161.334045 452.090851,162.317810 
	C450.932373,163.440674 448.357117,163.925323 446.735840,163.473541 
	C445.547729,163.142471 444.221039,160.898605 444.123779,159.429947 
	C442.949554,141.694824 441.986938,123.945618 440.982574,106.199326 
	C440.616547,99.731888 440.286011,93.262436 439.941956,86.336884 
M453.445007,99.683189 
	C454.818085,100.735725 456.597687,102.963455 457.498810,102.651726 
	C463.747467,100.490143 470.163971,98.402565 475.834015,95.101578 
	C480.934418,92.132233 480.216125,83.840279 474.703705,82.266373 
	C469.181091,80.689560 463.046021,80.743683 457.228149,81.040146 
	C455.564667,81.124908 452.996124,84.396591 452.727173,86.453392 
	C452.198944,90.492607 452.993225,94.704758 453.445007,99.683189 
z"/>
<path fill="#F1E6D6" opacity="1.000000" stroke="none" 
	d="
M458.498169,129.616486 
	C458.733002,127.240112 459.056549,125.237755 459.380127,123.235405 
	C459.909668,123.276924 460.439240,123.318443 460.968781,123.359955 
	C460.968781,126.212753 460.968781,129.065552 460.968781,131.918350 
	C460.658173,131.998642 460.347565,132.078934 460.036957,132.159210 
	C459.553589,131.436310 459.070221,130.713409 458.498169,129.616486 
z"/>
<path fill="#473E4E" opacity="1.000000" stroke="none" 
	d="
M527.282959,73.968002 
	C531.668762,74.425018 535.808411,74.263199 539.496887,75.474777 
	C547.138245,77.984726 548.543823,86.003365 541.708435,90.190269 
	C535.714844,93.861572 528.634399,95.795517 521.932800,98.216759 
	C521.260254,98.459755 519.090820,96.868141 518.968933,95.948601 
	C518.229309,90.369843 517.071228,84.652084 517.660461,79.153000 
	C518.134216,74.731316 522.895508,74.236328 527.282959,73.968002 
M541.721741,86.914375 
	C544.208069,82.296867 543.687622,78.682190 539.302979,77.830551 
	C533.968262,76.794365 528.301758,77.361328 522.785034,77.495285 
	C522.062927,77.512817 520.806885,79.051262 520.771362,79.924904 
	C520.573669,84.778831 520.676453,89.645004 520.676453,95.993484 
	C528.455139,92.761703 534.817139,90.118507 541.721741,86.914375 
z"/>
<path fill="#39374A" opacity="1.000000" stroke="none" 
	d="
M453.342651,99.264267 
	C452.993225,94.704758 452.198944,90.492607 452.727173,86.453392 
	C452.996124,84.396591 455.564667,81.124908 457.228149,81.040146 
	C463.046021,80.743683 469.181091,80.689560 474.703705,82.266373 
	C480.216125,83.840279 480.934418,92.132233 475.834015,95.101578 
	C470.163971,98.402565 463.747467,100.490143 457.498810,102.651726 
	C456.597687,102.963455 454.818085,100.735725 453.342651,99.264267 
M455.229706,85.208939 
	C455.229706,90.006111 455.229706,94.803284 455.229706,100.730614 
	C461.700348,98.394897 467.699646,96.601624 473.313324,93.981964 
	C475.056396,93.168549 476.865601,89.963669 476.617859,88.126930 
	C476.368103,86.274910 473.886108,83.987778 471.881927,83.250099 
	C466.431244,81.243874 460.840149,81.500160 455.229706,85.208939 
z"/>
<path fill="#F1E6D6" opacity="1.000000" stroke="none" 
	d="
M541.450439,87.194847 
	C534.817139,90.118507 528.455139,92.761703 520.676453,95.993484 
	C520.676453,89.645004 520.573669,84.778831 520.771362,79.924904 
	C520.806885,79.051262 522.062927,77.512817 522.785034,77.495285 
	C528.301758,77.361328 533.968262,76.794365 539.302979,77.830551 
	C543.687622,78.682190 544.208069,82.296867 541.450439,87.194847 
z"/>
<path fill="#F1E6D6" opacity="1.000000" stroke="none" 
	d="
M455.410034,84.811829 
	C460.840149,81.500160 466.431244,81.243874 471.881927,83.250099 
	C473.886108,83.987778 476.368103,86.274910 476.617859,88.126930 
	C476.865601,89.963669 475.056396,93.168549 473.313324,93.981964 
	C467.699646,96.601624 461.700348,98.394897 455.229706,100.730614 
	C455.229706,94.803284 455.229706,90.006111 455.410034,84.811829 
z"/>
</svg>