<svg version="1.1" id="Layer_1" xmlns="http://www.w3.org/2000/svg" 			xmlns:xlink="http://www.w3.org/1999/xlink" x="0px" y="0px"
	 width="100%" viewBox="0 0 1080 1080" enable-background="new 0 0 1080 1080" xml:space="preserve">

	<path fill="transparent" opacity="1.000000" stroke="none" 
			d="
		M1.000000,399.000000 
			C1.000000,266.015289 1.000000,133.530579 1.000000,1.022935 
			C360.943146,1.022935 720.886292,1.022935 1080.914795,1.022935 
			C1080.914795,360.901581 1080.914795,720.803223 1080.914795,1080.852417 
			C721.000061,1080.852417 361.000031,1080.852417 1.000000,1080.852417 
			C1.000000,853.779846 1.000000,626.639954 1.000000,399.000000 
		M853.942749,149.436523 
			C853.625488,149.258331 853.308289,149.080154 852.989014,149.013016 
			C852.989014,149.013016 853.099854,149.020523 852.977051,148.354874 
			C852.335632,147.543701 851.694153,146.732529 851.024536,145.991302 
			C851.024536,145.991302 851.099243,145.981110 850.945862,145.441223 
			C850.632080,145.260040 850.318298,145.078857 850.007019,144.982010 
			C850.007019,144.982010 850.091003,144.973724 850.005554,144.237595 
			C848.677979,142.166336 847.350464,140.095062 845.357056,137.834656 
			C843.023376,135.091156 840.670105,132.364059 838.359253,129.601456 
			C822.624146,110.790123 805.488831,93.251686 786.067383,78.370316 
			C767.781982,64.359406 748.439453,51.694447 729.254761,38.898033 
			C693.328003,14.934487 653.304321,3.733551 610.426270,3.199254 
			C586.018433,2.895111 561.521179,3.448442 537.191772,5.295699 
			C519.645630,6.627924 502.150818,10.012361 484.930267,13.823886 
			C471.062195,16.893393 457.503937,21.585749 444.058563,26.275694 
			C432.003998,30.480486 419.935486,34.945221 408.514252,40.592056 
			C393.186829,48.170162 378.149658,56.465130 363.586853,65.425728 
			C346.933014,75.672974 330.559082,86.472015 314.775940,98.006126 
			C302.618103,106.890938 291.561493,117.282600 280.003265,126.146919 
			C280.335297,124.238937 281.034149,122.301559 280.884338,120.432182 
			C280.762421,118.910660 279.966949,116.657547 278.854706,116.188660 
			C277.263519,115.517822 274.814301,115.615723 273.281006,116.425674 
			C271.708954,117.256088 270.820068,119.356522 269.594299,120.870438 
			C266.622009,124.541451 263.740936,128.297058 260.575745,131.794785 
			C259.581390,132.893646 257.819397,133.843887 256.375488,133.893478 
			C250.738876,134.087021 246.629517,136.940536 242.791443,140.655838 
			C239.246140,144.087769 235.571594,147.395020 231.812424,150.590637 
			C230.936371,151.335358 229.184494,152.014420 228.386124,151.617218 
			C227.571854,151.212112 226.977188,149.397018 227.092133,148.282349 
			C227.385712,145.435562 228.127930,142.635040 228.733154,139.603210 
			C228.053543,139.873199 227.602921,139.904526 227.472763,140.125031 
			C219.631042,153.408035 211.754578,166.671494 204.072830,180.046768 
			C203.078934,181.777313 203.104660,184.093445 202.658081,186.138321 
			C205.086594,185.953720 207.546829,185.938950 209.926804,185.494446 
			C210.785751,185.334015 211.531311,184.208008 212.192841,183.410049 
			C215.304153,179.657074 218.368256,175.864975 220.626663,173.095520 
			C223.979416,173.095520 226.382080,173.095520 229.068924,173.095520 
			C231.128830,176.047440 234.634155,174.999084 237.750885,175.367416 
			C231.639481,184.390579 224.363663,192.747238 221.810883,203.799911 
			C221.571304,204.837189 220.151657,205.685928 219.148483,206.449570 
			C210.859360,212.759430 201.822998,218.283524 194.365646,225.452682 
			C173.774765,245.247818 156.185959,267.313324 147.027695,294.225708 
			C146.353882,292.984467 145.617188,291.772522 145.022385,290.494507 
			C144.298080,288.938232 142.925751,287.191223 143.177246,285.763306 
			C144.008896,281.041595 145.732712,276.473114 146.501160,271.746185 
			C146.788742,269.977203 145.391830,267.934387 144.762939,266.016418 
			C143.516846,267.317963 141.582245,268.419464 141.136536,269.953552 
			C138.276978,279.795959 135.472778,289.672791 133.243317,299.670532 
			C132.405975,303.425537 131.587173,308.738159 133.503983,311.229156 
			C137.446243,316.352295 134.216309,320.048859 132.726074,324.332245 
			C132.726074,321.330048 132.726074,318.327850 132.726074,313.751282 
			C130.779343,316.402710 129.705399,317.865387 128.631470,319.328064 
			C128.330399,318.768158 128.029343,318.208252 127.728287,317.648376 
			C124.550278,318.879517 121.372269,320.110657 118.066093,321.391449 
			C118.029198,324.969391 117.105476,328.806580 122.565956,329.093079 
			C123.076035,329.119812 123.556595,330.322327 123.994247,331.014709 
			C126.424110,334.858917 124.841217,338.898224 124.779388,342.911652 
			C124.754288,344.540802 126.186417,346.946747 127.617622,347.648132 
			C129.307877,348.476471 131.714722,347.842560 133.114075,347.842560 
			C134.240097,350.390442 135.051651,352.226746 135.863190,354.063049 
			C136.521988,354.038147 137.180771,354.013245 137.839554,353.988342 
			C138.278610,350.671906 138.717682,347.355499 139.661194,344.645691 
			C140.221191,358.161346 146.018524,369.998383 152.020721,381.640839 
			C155.870682,389.108551 160.006958,396.606842 167.287231,401.577698 
			C170.711411,403.915649 174.126160,406.023926 177.981995,402.457031 
			C181.662109,399.052765 179.930786,395.709412 177.678207,392.680328 
			C180.177322,391.310669 182.416183,389.872803 184.818359,388.800934 
			C201.794327,381.226257 218.197678,371.464722 235.938599,366.710541 
			C265.758942,358.719360 296.306458,353.149231 326.797394,348.052094 
			C348.456818,344.431335 370.481415,342.297455 392.425598,341.278320 
			C413.483673,340.300385 434.685455,340.943085 455.754761,342.117401 
			C474.889435,343.183868 493.972839,345.592133 513.003418,348.003998 
			C541.831787,351.657562 569.957458,358.829559 597.602356,367.495575 
			C621.959351,375.130890 645.690247,384.742798 669.953369,392.702393 
			C716.442261,407.953247 760.543213,428.948822 805.339172,448.259552 
			C831.114990,459.371002 856.412720,471.587463 882.117065,482.870514 
			C893.352539,487.802399 904.956360,492.008789 917.767639,489.159729 
			C920.433167,488.566925 923.637085,488.063599 925.143921,492.182312 
			C925.492859,493.136108 930.164368,493.935333 930.931091,493.082733 
			C936.860779,486.489716 944.236023,480.284241 947.558105,472.433136 
			C956.805176,450.579437 956.879517,427.549805 951.187683,404.662933 
			C948.756531,394.887177 945.123779,385.410217 942.865234,375.987335 
			C943.905640,375.559845 945.879700,375.039246 945.847717,374.718719 
			C945.284424,369.071991 949.770020,369.559479 953.081360,368.248444 
			C953.920837,369.935394 954.486938,371.464630 955.371765,372.779358 
			C958.372986,377.238495 961.752808,377.089661 964.784546,372.767395 
			C965.739441,371.405975 967.578186,370.664490 968.784973,369.801788 
			C971.899536,371.445740 973.538391,376.466492 977.892334,372.515076 
			C974.462402,369.823853 971.287048,367.332336 968.723022,364.014740 
			C971.925232,365.733490 975.127380,367.452240 979.030518,369.547211 
			C978.758606,367.858185 978.618469,366.987518 978.671936,367.319733 
			C981.422668,366.565735 984.219238,366.570587 985.735840,365.179718 
			C987.463196,363.595642 988.081909,360.781250 989.112732,358.470459 
			C989.497559,357.607788 990.149780,356.489105 989.890320,355.773590 
			C987.729980,349.816193 985.385071,343.925720 982.795410,337.239288 
			C981.575439,339.937805 980.744141,341.656952 980.013977,343.417999 
			C978.700134,346.586914 976.033081,347.358337 974.171753,344.557465 
			C968.568848,336.126709 961.978943,327.988342 962.997986,316.845856 
			C963.935425,306.594513 958.482849,301.092987 950.144287,297.388580 
			C949.549194,299.305450 948.962708,301.194641 948.214294,303.605286 
			C947.100220,302.094421 946.372192,301.107239 945.290771,299.640686 
			C942.493591,308.164520 947.528809,314.531403 950.179504,321.393494 
			C949.796387,318.389008 949.413208,315.384521 949.030029,312.380035 
			C955.015503,329.868225 962.905457,346.243164 974.860474,360.945007 
			C973.109009,361.222382 971.772400,360.909363 970.736572,360.173065 
			C967.456482,357.841431 964.288879,355.351624 961.002869,352.216980 
			C959.863159,351.151825 958.723389,350.086670 957.583679,349.021545 
			C956.842712,349.777954 956.101746,350.534363 955.360840,351.290771 
			C956.977478,352.047882 958.594116,352.804962 960.649963,354.090210 
			C962.020508,355.469086 963.631836,356.685059 964.702026,358.267151 
			C966.118225,360.360748 967.110840,362.740845 967.800598,364.279236 
			C966.132141,365.054565 964.463623,365.829895 962.208435,366.877838 
			C959.059937,364.781677 955.365112,362.321838 950.645813,359.179932 
			C949.641418,362.517059 948.830322,365.211975 947.947144,368.146271 
			C946.178955,366.194672 944.377502,364.206421 942.194092,361.772400 
			C941.858643,361.643127 941.523132,361.513885 941.187683,361.384644 
			C941.430908,361.948914 941.674133,362.513214 941.994934,363.789185 
			C942.851807,365.649597 943.708679,367.510040 944.565552,369.370453 
			C944.004883,369.678436 943.444275,369.986450 942.883667,370.294434 
			C940.252075,366.585144 937.514282,362.945618 935.019165,359.146667 
			C932.591919,355.450775 935.295776,355.353516 938.774719,355.683716 
			C935.008240,349.741211 932.328674,343.928070 925.985779,340.273651 
			C926.310181,334.322327 926.970337,328.364075 926.848267,322.421906 
			C926.757385,317.997620 925.628174,313.597748 925.005981,309.180725 
			C922.462952,291.127563 920.118469,272.913300 912.472168,256.199188 
			C902.120300,233.570877 890.872986,211.352173 880.748169,188.993439 
			C880.570374,187.518066 880.392578,186.042709 880.660156,184.263763 
			C880.799316,184.150162 880.938477,184.036545 881.715393,184.192780 
			C882.614258,185.051483 883.513123,185.910202 884.867371,187.295975 
			C886.085754,187.935211 887.304138,188.574448 888.522522,189.213669 
			C888.771851,188.660187 889.021179,188.106705 889.270508,187.553223 
			C887.872681,187.009598 886.474854,186.465973 885.001221,185.196732 
			C882.627686,182.945511 882.340332,178.341797 877.723633,178.747421 
			C877.723633,178.747421 877.786682,178.803757 878.455017,178.313477 
			C874.955139,171.771149 871.553528,165.172623 867.869507,158.735718 
			C867.164917,157.504593 865.426758,156.749374 864.025513,156.058395 
			C861.651001,154.887543 859.164978,153.942749 856.614441,152.873398 
			C856.614441,152.873398 856.565247,152.977539 856.044800,152.499252 
			C855.374878,151.635330 854.704956,150.771393 854.023560,149.981812 
			C854.023560,149.981812 854.098755,149.978668 853.942749,149.436523 
		M238.890121,122.672607 
			C237.841507,124.430008 236.792892,126.187408 235.744278,127.944817 
			C236.260025,128.217316 236.775757,128.489822 237.291504,128.762329 
			C238.222687,126.866600 239.153885,124.970863 240.645309,122.880310 
			C240.686203,122.340469 240.727097,121.800621 240.767975,121.260780 
			C240.328369,121.573540 239.888763,121.886307 238.890121,122.672607 
		M197.891754,175.656448 
			C193.512848,177.004486 191.031036,175.575729 192.223099,171.590942 
			C193.364975,167.773941 196.198196,164.397903 198.624664,161.073761 
			C199.268707,160.191422 201.967514,159.537415 202.307709,159.948807 
			C203.240845,161.077255 203.942459,162.887787 203.777573,164.317841 
			C203.533997,166.430176 202.462540,168.447067 201.426865,171.411102 
			C213.862869,153.042694 225.690414,135.572983 237.940826,117.478691 
			C234.478973,117.690605 231.298447,117.885300 227.005447,118.148087 
			C224.072250,115.319252 220.129364,116.680786 216.220062,119.314735 
			C207.418167,125.245102 199.845779,133.914566 187.587967,132.178711 
			C187.345322,132.144363 187.068695,132.604950 186.769135,132.680176 
			C178.680679,134.711441 172.811401,140.255341 167.036453,145.685150 
			C164.735092,147.848969 163.159058,151.142197 162.158051,154.216049 
			C161.378754,156.609100 162.042343,159.459549 161.989685,162.105240 
			C161.937759,164.713989 161.727600,167.039688 165.632324,167.085922 
			C170.238983,167.140457 171.466736,169.156250 169.847763,173.503143 
			C167.724182,179.204849 164.389008,184.429840 164.760956,191.006622 
			C164.869431,192.924484 162.883698,195.761658 161.065277,196.836655 
			C155.729172,199.991165 149.935333,202.360580 144.453018,205.285370 
			C142.873535,206.128036 141.096024,207.575195 140.524200,209.150009 
			C138.729645,214.092270 137.338425,219.194977 136.044754,224.299866 
			C135.259872,227.397003 133.515350,229.563171 130.467560,228.734619 
			C129.332275,228.426010 128.893784,225.247574 128.316803,223.324020 
			C128.036942,222.391037 128.403076,221.251389 128.081192,220.345901 
			C124.487602,210.236740 126.488838,201.343933 132.649918,192.610413 
			C137.140884,186.244293 140.318878,178.951935 144.642990,171.879272 
			C144.683456,171.339630 144.723907,170.799973 144.764359,170.260315 
			C144.324799,170.575195 143.885239,170.890076 142.910538,171.650604 
			C139.599136,175.854614 135.634674,179.700867 133.098740,184.329712 
			C125.481956,198.232697 117.773445,212.153488 111.362396,226.626221 
			C106.707603,237.134262 102.007294,247.943024 102.861237,260.142853 
			C103.215218,265.199860 104.771172,268.379883 110.000000,269.416443 
			C110.000000,272.989532 109.892731,276.482971 110.022728,279.967560 
			C110.279160,286.841278 110.694771,293.708893 110.991570,300.581329 
			C111.216377,305.786774 115.010406,303.404602 118.353340,304.301056 
			C118.929016,297.180084 120.530228,290.420502 119.660606,283.995392 
			C118.967010,278.870911 120.636116,275.515747 122.828491,271.566315 
			C127.015068,264.024414 130.964447,256.338562 134.678268,248.553101 
			C136.031372,245.716553 136.036499,242.226486 137.444092,239.431076 
			C138.097717,238.133011 140.650650,237.188370 142.309875,237.235489 
			C143.240585,237.261932 144.519684,239.528946 144.909897,240.982895 
			C145.662781,243.788315 145.896713,246.733002 146.483780,250.506943 
			C147.203812,247.584015 148.010483,245.474442 148.187912,243.313202 
			C148.447418,240.152313 149.560379,235.699677 147.970779,234.046692 
			C145.109680,231.071487 146.015579,228.697708 146.679993,225.785278 
			C148.610504,217.323090 154.050705,211.463455 160.915024,206.715607 
			C161.753998,206.135330 163.095078,205.917648 164.133636,206.056046 
			C167.513702,206.506424 169.223480,204.793610 170.569855,201.981400 
			C171.880219,199.244400 173.574127,196.691055 175.111740,194.036163 
			C180.590271,197.877274 183.324936,197.247635 187.061798,191.823257 
			C188.064194,190.368195 189.541992,188.258804 190.889191,188.190994 
			C197.139145,187.876297 198.931274,186.420334 198.891418,180.563263 
			C198.881241,179.066833 199.014709,177.569458 199.642990,175.879272 
			C199.683441,175.339630 199.723907,174.799973 199.764359,174.260330 
			C199.324799,174.575211 198.885239,174.890091 197.891754,175.656448 
		M936.559692,190.392761 
			C937.772766,191.784424 939.017212,193.150116 940.193420,194.572250 
			C945.102905,200.508163 950.189148,206.315414 954.759827,212.502792 
			C956.015076,214.202011 956.853210,218.095978 955.880554,219.170502 
			C953.704041,221.575043 951.639282,219.638504 950.350586,217.081482 
			C949.822937,216.034470 948.711609,215.298828 948.041565,214.303268 
			C945.282227,210.203308 942.590271,206.057968 939.873535,201.929291 
			C939.046387,204.732483 939.160889,207.028595 939.687805,209.225800 
			C941.069458,214.986908 940.438232,216.731918 932.359253,220.852234 
			C929.744873,222.185577 926.117981,221.273224 923.708740,218.301575 
			C921.621277,215.726822 919.088013,213.513535 917.624329,212.026855 
			C914.779846,212.026855 912.951355,212.026855 911.402466,212.026855 
			C918.787842,224.455002 926.419861,237.298050 934.503906,250.901917 
			C935.634827,248.211823 936.266724,246.592529 936.987488,245.013794 
			C940.482239,237.358673 939.324829,236.771423 948.472839,237.071838 
			C950.916260,237.152100 953.650024,239.095673 955.684448,238.436554 
			C958.814453,237.422531 960.358093,238.653015 962.053833,240.549255 
			C964.672180,243.477234 967.245728,246.445267 969.838318,249.396317 
			C968.829041,243.321442 966.804810,237.997086 964.983093,232.604324 
			C962.329041,224.747742 957.219543,217.635468 957.875000,208.730835 
			C957.956360,207.626236 956.576050,205.589401 955.568848,205.367874 
			C950.394653,204.229858 950.336182,200.325317 949.977417,196.335571 
			C948.871521,184.039963 948.421936,183.504837 940.224304,183.544815 
			C939.702271,175.450455 939.694275,175.455933 934.664246,168.122849 
			C934.316833,167.616501 934.060181,166.948502 934.028137,166.341599 
			C933.825989,162.511810 931.630005,161.369843 928.056396,160.857239 
			C925.111694,160.434830 921.090393,160.810303 920.919983,155.673965 
			C920.734009,150.065353 919.089722,149.169586 913.080688,150.734451 
			C913.271362,146.639389 911.583130,143.035904 907.417847,143.203751 
			C901.966125,143.423431 901.950378,148.395370 901.786377,153.546967 
			C900.321533,150.303650 899.296509,148.034149 898.271545,145.764648 
			C897.704468,146.069580 897.137390,146.374527 896.570374,146.679459 
			C900.667542,153.555222 904.625427,160.520126 908.937866,167.258148 
			C910.436279,169.599335 913.424133,171.062027 914.673218,173.474106 
			C918.457275,180.780975 923.781677,186.718506 929.951477,191.935394 
			C932.737915,194.291443 932.825867,194.004303 933.333130,190.433090 
			C933.429321,189.755707 935.105835,189.302780 935.942444,188.811371 
			C929.268005,181.640961 922.690430,174.574615 915.947937,167.331100 
			C922.994568,165.955704 927.652466,168.363922 930.676819,174.200485 
			C932.303040,177.338898 934.314331,180.292053 935.756592,183.506195 
			C936.628601,185.449387 936.743530,187.732300 936.559692,190.392761 
		M933.005188,327.766418 
			C933.337158,329.160736 933.458008,330.651642 934.042847,331.930328 
			C935.495544,335.106598 936.397034,339.217621 938.908875,341.075165 
			C943.243347,344.280823 945.491211,348.194824 945.880676,353.112823 
			C946.187378,356.986359 947.821472,357.436340 951.013123,356.650940 
			C950.639404,355.366882 949.733459,353.953796 950.118103,353.299927 
			C952.609558,349.064453 949.931519,346.515564 947.378967,343.881317 
			C945.040833,341.468292 941.540588,339.504425 940.503052,336.636810 
			C937.570068,328.530548 935.637939,320.062134 933.311523,311.736420 
			C933.798767,311.599152 934.286011,311.461914 934.773254,311.324677 
			C936.617004,317.326019 938.460754,323.327362 940.304565,329.328705 
			C940.945984,329.133331 941.587402,328.937927 942.228760,328.742554 
			C941.741943,326.289642 941.208496,323.844910 940.778870,321.382019 
			C940.041443,317.155731 936.421570,312.602722 942.276855,309.059662 
			C942.923645,308.668304 943.228210,306.812653 942.918518,305.897827 
			C941.698975,302.296082 940.155823,298.804688 938.763550,295.260254 
			C938.138367,293.668854 937.407715,292.087860 937.045532,290.432037 
			C936.595398,288.374664 936.476990,286.244781 936.203796,284.053864 
			C930.104553,286.247650 933.147339,289.899994 933.503052,293.065308 
			C933.748657,295.250793 934.690796,298.567657 933.654114,299.476227 
			C929.371887,303.229401 931.592957,306.277466 933.794434,309.591339 
			C927.203064,312.289490 928.142883,311.638489 932.801147,322.432678 
			C931.911499,323.071777 931.021790,323.710907 930.909729,323.791443 
			C931.634949,324.902985 932.309631,325.937042 933.005188,327.766418 
		M979.029541,265.331573 
			C978.506165,264.320007 977.982727,263.308441 977.459351,262.296844 
			C977.664001,269.611572 978.771423,276.618561 980.305481,283.530884 
			C980.888123,286.156189 982.856018,287.040955 985.369568,285.101959 
			C988.039490,283.042297 987.798096,280.494202 986.449402,277.994263 
			C984.249390,273.916107 981.802734,269.971039 979.029541,265.331573 
		M989.997009,332.508759 
			C991.201172,327.827850 988.672852,324.849426 985.638245,321.362274 
			C984.216003,326.686768 983.036499,331.102509 981.856995,335.518250 
			C982.201111,335.973450 982.545227,336.428680 982.889343,336.883911 
			C985.246399,335.692474 987.603394,334.501068 989.997009,332.508759 
		M851.965393,138.589188 
			C853.677490,140.799652 855.389587,143.010101 857.804077,146.127335 
			C857.380005,142.334167 856.105896,139.396957 857.061096,137.762543 
			C859.211853,134.082169 856.767029,133.358200 854.845154,131.857101 
			C853.488892,133.040527 852.141602,133.849960 851.366943,135.034027 
			C850.926514,135.707199 851.422791,136.993134 851.965393,138.589188 
		M903.909119,188.366089 
			C905.883240,190.712494 907.857361,193.058899 909.831421,195.405289 
			C910.255859,195.038467 910.680237,194.671646 911.104614,194.304825 
			C908.742493,191.301666 906.380310,188.298508 904.018188,185.295349 
			C903.654053,185.542313 903.289856,185.789276 902.925720,186.036240 
			C903.057922,186.641022 903.190186,187.245789 903.909119,188.366089 
		M235.072723,131.452057 
			C235.372269,130.609482 235.671799,129.766891 235.971344,128.924316 
			C235.599579,128.767395 235.227798,128.610489 234.856033,128.453568 
			C232.772461,131.894180 230.688889,135.334793 228.605316,138.775406 
			C229.008469,139.026215 229.411606,139.277023 229.814758,139.527832 
			C231.536804,137.094315 233.258835,134.660797 235.072723,131.452057 
		M901.435974,182.685471 
			C901.586792,183.496735 901.725464,184.310944 901.921326,185.111176 
			C901.932068,185.154907 902.419434,185.082001 902.684937,185.063370 
			C902.562012,184.354431 902.439087,183.645477 901.435974,182.685471 
		M899.550171,180.086349 
			C899.154480,180.207138 898.758850,180.327911 898.363159,180.448730 
			C898.466248,180.652100 898.586121,181.036545 898.669617,181.028793 
			C899.131165,180.985977 899.583862,180.847565 899.550171,180.086349 
	z"/>
	<path fill="black" opacity="1.000000" stroke="none" 
			d="
		M880.009766,188.957764 
			C890.872986,211.352173 902.120300,233.570877 912.472168,256.199188 
			C920.118469,272.913300 922.462952,291.127563 925.005981,309.180725 
			C925.628174,313.597748 926.757385,317.997620 926.848267,322.421906 
			C926.970337,328.364075 926.310181,334.322327 925.924805,341.062927 
			C925.855957,343.379852 925.295959,345.200958 925.927307,346.388885 
			C931.172729,356.257904 936.638123,366.010040 942.036987,375.797485 
			C945.123779,385.410217 948.756531,394.887177 951.187683,404.662933 
			C956.879517,427.549805 956.805176,450.579437 947.558105,472.433136 
			C944.236023,480.284241 936.860779,486.489716 930.931091,493.082733 
			C930.164368,493.935333 925.492859,493.136108 925.143921,492.182312 
			C923.637085,488.063599 920.433167,488.566925 917.767639,489.159729 
			C904.956360,492.008789 893.352539,487.802399 882.117065,482.870514 
			C856.412720,471.587463 831.114990,459.371002 805.339172,448.259552 
			C760.543213,428.948822 716.442261,407.953247 669.953369,392.702393 
			C645.690247,384.742798 621.959351,375.130890 597.602356,367.495575 
			C569.957458,358.829559 541.831787,351.657562 513.003418,348.003998 
			C493.972839,345.592133 474.889435,343.183868 455.754761,342.117401 
			C434.685455,340.943085 413.483673,340.300385 392.425598,341.278320 
			C370.481415,342.297455 348.456818,344.431335 326.797394,348.052094 
			C296.306458,353.149231 265.758942,358.719360 235.938599,366.710541 
			C218.197678,371.464722 201.794327,381.226257 184.818359,388.800934 
			C182.416183,389.872803 180.177322,391.310669 177.678207,392.680328 
			C179.930786,395.709412 181.662109,399.052765 177.981995,402.457031 
			C174.126160,406.023926 170.711411,403.915649 167.287231,401.577698 
			C160.006958,396.606842 155.870682,389.108551 152.020721,381.640839 
			C146.018524,369.998383 140.221191,358.161346 139.308807,343.885590 
			C140.107178,333.938477 141.002960,324.709869 142.491791,315.577972 
			C143.620117,308.657288 145.504364,301.859863 147.052216,295.007568 
			C156.185959,267.313324 173.774765,245.247818 194.365646,225.452682 
			C201.822998,218.283524 210.859360,212.759430 219.148483,206.449570 
			C220.151657,205.685928 221.571304,204.837189 221.810883,203.799911 
			C224.363663,192.747238 231.639481,184.390579 238.033813,174.757629 
			C241.032776,171.099060 243.759384,168.059647 246.462952,164.999878 
			C257.650818,152.338013 268.831726,139.669998 280.015198,127.004234 
			C291.561493,117.282600 302.618103,106.890938 314.775940,98.006126 
			C330.559082,86.472015 346.933014,75.672974 363.586853,65.425728 
			C378.149658,56.465130 393.186829,48.170162 408.514252,40.592056 
			C419.935486,34.945221 432.003998,30.480486 444.058563,26.275694 
			C457.503937,21.585749 471.062195,16.893393 484.930267,13.823886 
			C502.150818,10.012361 519.645630,6.627924 537.191772,5.295699 
			C561.521179,3.448442 586.018433,2.895111 610.426270,3.199254 
			C653.304321,3.733551 693.328003,14.934487 729.254761,38.898033 
			C748.439453,51.694447 767.781982,64.359406 786.067383,78.370316 
			C805.488831,93.251686 822.624146,110.790123 838.359253,129.601456 
			C840.670105,132.364059 843.023376,135.091156 845.595276,138.304474 
			C847.252625,140.840775 848.671814,142.907257 850.091003,144.973724 
			C850.091003,144.973724 850.007019,144.982010 849.869385,145.353546 
			C850.187622,145.810410 850.643433,145.895767 851.099243,145.981110 
			C851.099243,145.981110 851.024536,145.991302 850.718811,146.224319 
			C851.308716,147.311722 852.204285,148.166122 853.099854,149.020508 
			C853.099854,149.020523 852.989014,149.013016 852.901550,149.369110 
			C853.242310,149.809692 853.670532,149.894180 854.098755,149.978668 
			C854.098755,149.978668 854.023560,149.981812 853.745605,150.329742 
			C854.500183,151.444290 855.532715,152.210907 856.565247,152.977539 
			C856.565247,152.977539 856.614441,152.873398 856.295898,153.160461 
			C863.988220,165.284286 871.999023,177.121033 880.009766,188.957764 
		M912.638916,475.385620 
			C918.103760,474.511566 923.609863,473.822693 929.002075,472.622131 
			C930.219910,472.350983 931.487000,470.453857 931.977966,469.042999 
			C939.096497,448.585205 939.117065,427.863922 934.013672,406.209412 
			C931.760132,400.037384 929.506531,393.865356 927.200012,386.938263 
			C921.738464,370.789490 914.230774,355.703888 903.701599,341.443695 
			C901.521179,338.896027 899.340759,336.348358 896.859009,333.204651 
			C881.960999,317.731934 867.062927,302.259216 851.820374,286.234375 
			C849.939514,284.792084 848.058716,283.349792 845.948486,281.271027 
			C840.425720,276.510345 834.756592,271.907684 829.411926,266.954803 
			C819.458191,257.730652 808.353516,250.307129 795.663757,244.162201 
			C793.498291,243.027298 791.332886,241.892410 788.727295,240.240570 
			C776.203308,234.083420 763.679382,227.926270 750.658447,221.287338 
			C748.194946,220.395599 745.731445,219.503860 742.782166,218.120239 
			C740.368652,217.020004 738.022095,215.730225 735.530701,214.850723 
			C720.969788,209.710602 706.375000,204.666550 691.202026,199.320160 
			C689.194275,198.789261 687.186584,198.258362 684.621338,197.257446 
			C679.670959,195.839294 674.772888,194.192734 669.760254,193.046692 
			C655.866455,189.870117 641.924988,186.902054 627.466370,183.371063 
			C625.281128,182.998352 623.095947,182.625626 620.128906,182.033646 
			C599.785339,179.133224 579.441711,176.232803 558.244080,173.117996 
			C556.500305,173.065948 554.756470,173.013901 552.270447,172.610672 
			C535.889587,171.866104 519.508728,171.121536 502.229889,170.177139 
			C500.103271,170.283340 497.976654,170.389557 494.957916,170.289032 
			C479.986664,170.893982 465.015411,171.498932 449.215240,172.012344 
			C448.111023,172.100784 447.006775,172.189240 445.072906,172.166946 
			C434.737457,173.169495 424.402039,174.172028 413.233551,175.066879 
			C411.159515,175.315033 409.085480,175.563171 406.089264,175.805786 
			C391.428009,176.999863 376.766724,178.193939 361.332001,179.248871 
			C358.624664,179.706757 355.917358,180.164642 352.269806,180.638046 
			C347.843567,181.108810 343.372040,181.324799 339.000092,182.101242 
			C328.651306,183.939163 318.349731,186.043304 307.270752,187.984451 
			C305.836945,188.365372 304.403137,188.746292 302.223419,189.161179 
			C288.830750,193.153824 275.438049,197.146469 261.331421,201.253311 
			C255.957458,203.671265 250.583511,206.089218 244.423584,208.636917 
			C237.064514,212.772690 229.566940,216.682938 222.378983,221.097336 
			C211.732925,227.635529 205.629425,238.543060 197.839539,247.770706 
			C182.250931,266.236450 169.287857,286.334442 162.942688,309.989319 
			C159.113770,324.263580 154.533539,338.709198 158.207703,353.630554 
			C160.472076,362.826660 164.459488,371.598480 167.420792,379.856659 
			C182.088715,372.172211 195.565491,365.111816 209.749481,357.975525 
			C211.832504,357.096283 213.915527,356.217041 216.776993,355.208496 
			C233.502701,350.103943 250.228424,344.999420 267.717834,339.940735 
			C269.822723,339.374207 271.927612,338.807709 274.876953,338.191254 
			C288.892517,335.706024 302.908081,333.220795 317.716705,330.804077 
			C320.477905,330.234009 323.239105,329.663910 326.885895,329.121307 
			C344.900970,327.359009 362.916046,325.596710 381.842804,323.968323 
			C384.599060,323.865540 387.355347,323.762726 391.022308,323.805176 
			C404.308960,323.711670 417.595642,323.618134 431.725922,323.778320 
			C434.412079,323.647156 437.098236,323.516022 440.619537,323.529327 
			C453.408813,324.345703 466.198120,325.162048 479.773499,326.164093 
			C482.509369,326.450165 485.245239,326.736237 488.778381,327.205719 
			C494.181824,327.995148 499.610748,328.642151 504.983795,329.601776 
			C519.001160,332.105133 532.994019,334.745514 547.405640,337.701599 
			C547.950623,337.782135 548.495605,337.862671 549.708740,338.298828 
			C571.892273,344.595825 594.211243,350.459259 616.214844,357.332275 
			C632.664062,362.470398 648.706543,368.910828 665.517578,375.168884 
			C667.027832,375.735229 668.538147,376.301575 670.687073,377.222198 
			C673.312500,378.233826 675.920593,379.293243 678.566284,380.248871 
			C690.700867,384.632111 702.846008,388.986328 715.439514,393.796234 
			C717.285522,394.536499 719.131470,395.276733 721.602661,396.372742 
			C740.916748,404.793762 760.321106,413.015289 779.515930,421.699829 
			C794.468628,428.465088 809.160583,435.806519 824.548340,443.287659 
			C826.642761,444.216125 828.737183,445.144592 831.306152,446.600311 
			C840.426331,449.996124 849.531738,453.432404 858.672546,456.771729 
			C863.743530,458.624207 868.873657,460.314667 874.404419,462.609314 
			C876.548767,463.482422 878.693115,464.355530 881.360718,465.715576 
			C889.571472,468.474152 897.782288,471.232727 906.517151,474.538452 
			C908.309631,474.733246 910.102173,474.928070 912.638916,475.385620 
			M661.245544,28.829302 
			C649.305725,26.137783 637.486938,22.527662 625.402283,20.935612 
			C595.190552,16.955469 564.875183,17.376732 535.009155,23.685688 
			C516.652344,27.563419 498.509216,32.691933 480.555664,38.190945 
			C438.341095,51.120842 396.759674,65.435974 358.570404,88.510139 
			C314.755463,114.983391 276.597534,147.678818 243.401855,187.308441 
			C240.076538,191.344910 236.751221,195.381363 233.425888,199.417816 
			C235.593735,199.545395 237.174255,198.820023 238.770157,198.130157 
			C251.261505,192.730453 263.299133,185.474152 276.331940,182.280045 
			C321.635895,171.176834 367.420074,162.176804 413.968353,157.955002 
			C439.262085,155.660904 464.590607,153.539886 489.949402,152.230103 
			C517.740845,150.794678 545.440918,152.850571 572.979370,156.905228 
			C592.672974,159.804871 612.548279,161.798981 632.024536,165.760468 
			C654.465515,170.324982 676.789368,175.823151 698.749023,182.318771 
			C738.380493,194.041626 775.878845,210.979858 810.288635,233.911057 
			C825.160522,243.821930 838.791138,255.759735 852.197144,267.664673 
			C869.079407,282.656647 885.203796,298.505920 901.536072,314.109985 
			C904.767334,317.197205 907.459106,320.849152 911.070007,325.013824 
			C910.958313,322.996918 911.063782,322.131226 910.845093,321.357056 
			C905.923218,303.934082 902.346436,285.970795 895.678345,269.240387 
			C886.579651,246.411392 876.091492,224.001877 864.463867,202.344055 
			C842.694885,161.796722 812.522766,128.052109 776.581299,99.412636 
			C749.341370,77.706879 720.811768,57.858944 690.291382,41.062313 
			C681.351562,36.142349 671.427368,33.011044 661.245544,28.829302 
	z"/>
	<path fill="#67B47D" opacity="1.000000" stroke="none" 
			d="
		M244.007141,187.027237 
			C276.597534,147.678818 314.755463,114.983391 358.570404,88.510139 
			C396.759674,65.435974 438.341095,51.120842 480.555664,38.190945 
			C498.509216,32.691933 516.652344,27.563419 535.009155,23.685688 
			C564.875183,17.376732 595.190552,16.955469 625.402283,20.935612 
			C637.486938,22.527662 649.305725,26.137783 661.657959,29.281506 
			C663.765686,31.014620 665.309631,32.599224 667.179016,33.530807 
			C694.398682,47.095894 717.392334,66.427727 739.352112,87.004257 
			C761.964355,108.192192 780.885620,132.631195 799.647339,157.207214 
			C815.949768,178.561813 827.924988,202.164291 837.798035,226.960785 
			C838.702393,229.232101 838.704895,231.862503 839.126099,234.326172 
			C838.666870,234.637390 838.207581,234.948624 837.748291,235.259857 
			C834.421204,233.235184 830.763000,231.603882 827.817810,229.125443 
			C796.017212,202.364868 759.199341,185.819305 719.194275,175.984940 
			C702.011780,171.761002 684.576355,168.567062 667.259399,164.888458 
			C651.552673,161.551895 635.909607,157.876022 620.128357,154.942093 
			C607.132874,152.526108 594.002197,150.772614 580.883362,149.103500 
			C568.083191,147.474915 555.229858,146.245346 542.384888,144.993958 
			C533.814819,144.159042 525.224792,143.117920 516.632690,143.004074 
			C498.216949,142.760071 479.776550,142.591675 461.379730,143.282669 
			C447.176910,143.816132 433.026917,145.726639 418.849915,146.985382 
			C406.643982,148.069138 394.352142,148.536636 382.244049,150.285645 
			C365.555695,152.696274 348.970764,155.879837 332.401947,159.048187 
			C303.277924,164.617355 274.890961,172.544144 248.375504,186.241333 
			C247.119278,186.890259 245.472198,186.782562 244.007141,187.027237 
	z"/>
	<path fill="#67B37D" opacity="1.000000" stroke="none" 
			d="
		M664.930115,374.771362 
			C648.706543,368.910828 632.664062,362.470398 616.214844,357.332275 
			C594.211243,350.459259 571.892273,344.595825 549.522095,337.825989 
			C551.906921,333.337708 555.036072,329.570312 556.951721,325.263153 
			C564.555542,308.167175 565.819885,289.760956 566.841614,271.449097 
			C567.337769,262.556671 566.234253,253.583328 566.041626,244.642609 
			C565.525635,220.693878 565.656189,196.689987 559.098145,173.332397 
			C579.441711,176.232803 599.785339,179.133224 620.541748,182.588425 
			C621.298462,191.591476 621.860413,200.037491 621.947388,208.488403 
			C622.269714,239.838669 622.407349,271.202515 616.989014,302.236603 
			C614.434937,316.865265 611.332825,331.397736 608.560547,345.989319 
			C608.156189,348.117706 608.207825,350.332672 607.981628,353.418427 
			C615.116821,350.063904 618.041382,344.837341 620.125549,338.975952 
			C628.720276,314.804382 630.811035,289.510406 631.788879,264.233398 
			C632.827026,237.394913 632.641907,210.484039 628.002319,183.851593 
			C641.924988,186.902054 655.866455,189.870117 669.760254,193.046692 
			C674.772888,194.192734 679.670959,195.839294 684.794922,197.929047 
			C684.650391,200.884583 684.071472,203.166855 684.057190,205.452667 
			C683.973816,218.788940 684.413696,232.140518 683.921082,245.458954 
			C683.389099,259.840881 682.679871,274.275513 680.858032,288.535126 
			C678.682556,305.562897 675.409424,322.459778 672.297485,339.355499 
			C670.114014,351.210938 667.404663,362.969513 664.930115,374.771362 
	z"/>
	<path fill="#67B37D" opacity="1.000000" stroke="none" 
			d="
		M823.968384,442.891876 
			C809.160583,435.806519 794.468628,428.465088 779.515930,421.699829 
			C760.321106,413.015289 740.916748,404.793762 721.328735,395.841125 
			C733.014099,376.785004 739.657410,356.143494 744.046509,334.828979 
			C747.134827,319.831512 749.305115,304.590363 750.908264,289.355164 
			C753.062317,268.885223 752.867615,248.345108 750.130554,227.873016 
			C749.869385,225.918976 750.785706,223.807495 751.155396,221.769104 
			C763.679382,227.926270 776.203308,234.083420 788.896179,240.988403 
			C788.307434,278.292023 790.651062,314.901917 787.024170,351.409668 
			C785.163513,370.138519 781.547729,388.414856 774.124695,405.818024 
			C773.430969,407.444366 773.307556,409.313904 772.919312,411.070526 
			C775.391785,409.938538 777.151123,408.534058 778.070129,406.706818 
			C782.017029,398.859406 786.728577,391.202118 789.308716,382.899750 
			C795.877197,361.762787 798.606934,339.768707 798.731506,317.766663 
			C798.869507,293.413361 797.009705,269.048737 796.020020,244.689056 
			C808.353516,250.307129 819.458191,257.730652 829.411926,266.954803 
			C834.756592,271.907684 840.425720,276.510345 845.730896,281.870087 
			C845.346741,284.100372 844.991943,285.737885 845.045776,287.361786 
			C845.298096,294.971436 846.067627,302.585754 845.910217,310.182983 
			C845.474487,331.218719 845.444153,352.310150 843.732666,373.255280 
			C842.624878,386.811859 839.643738,400.371216 836.004761,413.514771 
			C833.200989,423.641693 828.066528,433.123322 823.968384,442.891876 
	z"/>
	<path fill="#4C9762" opacity="1.000000" stroke="none" 
			d="
		M243.704498,187.167847 
			C245.472198,186.782562 247.119278,186.890259 248.375504,186.241333 
			C274.890961,172.544144 303.277924,164.617355 332.401947,159.048187 
			C348.970764,155.879837 365.555695,152.696274 382.244049,150.285645 
			C394.352142,148.536636 406.643982,148.069138 418.849915,146.985382 
			C433.026917,145.726639 447.176910,143.816132 461.379730,143.282669 
			C479.776550,142.591675 498.216949,142.760071 516.632690,143.004074 
			C525.224792,143.117920 533.814819,144.159042 542.384888,144.993958 
			C555.229858,146.245346 568.083191,147.474915 580.883362,149.103500 
			C594.002197,150.772614 607.132874,152.526108 620.128357,154.942093 
			C635.909607,157.876022 651.552673,161.551895 667.259399,164.888458 
			C684.576355,168.567062 702.011780,171.761002 719.194275,175.984940 
			C759.199341,185.819305 796.017212,202.364868 827.817810,229.125443 
			C830.763000,231.603882 834.421204,233.235184 837.748291,235.259857 
			C838.207581,234.948624 838.666870,234.637390 839.126099,234.326172 
			C838.704895,231.862503 838.702393,229.232101 837.798035,226.960785 
			C827.924988,202.164291 815.949768,178.561813 799.647339,157.207214 
			C780.885620,132.631195 761.964355,108.192192 739.352112,87.004257 
			C717.392334,66.427727 694.398682,47.095894 667.179016,33.530807 
			C665.309631,32.599224 663.765686,31.014620 662.012390,29.396828 
			C671.427368,33.011044 681.351562,36.142349 690.291382,41.062313 
			C720.811768,57.858944 749.341370,77.706879 776.581299,99.412636 
			C812.522766,128.052109 842.694885,161.796722 864.463867,202.344055 
			C876.091492,224.001877 886.579651,246.411392 895.678345,269.240387 
			C902.346436,285.970795 905.923218,303.934082 910.845093,321.357056 
			C911.063782,322.131226 910.958313,322.996918 911.070007,325.013824 
			C907.459106,320.849152 904.767334,317.197205 901.536072,314.109985 
			C885.203796,298.505920 869.079407,282.656647 852.197144,267.664673 
			C838.791138,255.759735 825.160522,243.821930 810.288635,233.911057 
			C775.878845,210.979858 738.380493,194.041626 698.749023,182.318771 
			C676.789368,175.823151 654.465515,170.324982 632.024536,165.760468 
			C612.548279,161.798981 592.672974,159.804871 572.979370,156.905228 
			C545.440918,152.850571 517.740845,150.794678 489.949402,152.230103 
			C464.590607,153.539886 439.262085,155.660904 413.968353,157.955002 
			C367.420074,162.176804 321.635895,171.176834 276.331940,182.280045 
			C263.299133,185.474152 251.261505,192.730453 238.770157,198.130157 
			C237.174255,198.820023 235.593735,199.545395 233.425888,199.417816 
			C236.751221,195.381363 240.076538,191.344910 243.704498,187.167847 
	z"/>
	<path fill="#67B37D" opacity="1.000000" stroke="none" 
			d="
		M714.987366,393.350983 
			C702.846008,388.986328 690.700867,384.632111 678.566284,380.248871 
			C675.920593,379.293243 673.312500,378.233826 670.397766,376.689880 
			C674.045166,365.057220 678.303711,354.058746 681.854492,342.836365 
			C690.458374,315.643219 694.535461,287.588013 694.753601,259.190369 
			C694.906006,239.332352 692.857239,219.457413 691.791626,199.590042 
			C706.375000,204.666550 720.969788,209.710602 735.530701,214.850723 
			C738.022095,215.730225 740.368652,217.020004 742.936096,218.867188 
			C742.734070,233.553162 742.737244,247.513123 741.926453,261.425659 
			C741.022827,276.930664 739.692322,292.427124 737.986633,307.865326 
			C735.192566,333.155701 728.705566,357.605011 719.979065,381.469025 
			C718.505310,385.499207 716.660645,389.393768 714.987366,393.350983 
	z"/>
	<path fill="#67B37D" opacity="1.000000" stroke="none" 
			d="
		M503.127869,170.376953 
			C519.508728,171.121536 535.889587,171.866104 552.682251,173.200516 
			C554.389648,187.106812 556.259155,200.398056 556.845398,213.745667 
			C557.712646,233.490723 557.584106,253.277740 558.040344,273.043182 
			C558.379700,287.748383 556.084595,302.072052 552.413147,316.236725 
			C550.591736,323.264099 548.801208,330.299469 546.996643,337.331238 
			C532.994019,334.745514 519.001160,332.105133 504.983795,329.601776 
			C499.610748,328.642151 494.181824,327.995148 488.391357,326.727448 
			C491.180145,316.142883 494.474091,306.071869 497.507233,295.922943 
			C503.870697,274.630463 508.129486,252.839157 509.776123,230.742889 
			C511.294647,210.366272 510.337982,189.944931 503.127869,170.376953 
	z"/>
	<path fill="#67B37D" opacity="1.000000" stroke="none" 
			d="
		M362.105469,179.388016 
			C376.766724,178.193939 391.428009,176.999863 406.536987,176.231705 
			C406.383240,179.397949 405.845795,182.154205 405.168732,184.875702 
			C402.814209,194.339737 399.919342,203.699478 398.125702,213.266815 
			C393.958557,235.494659 390.075470,257.782745 386.542358,280.119965 
			C384.248199,294.624451 382.773163,309.258453 380.931122,323.834442 
			C362.916046,325.596710 344.900970,327.359009 326.443420,328.630188 
			C326.325012,318.533661 326.536041,308.922852 326.996185,299.323975 
			C328.017822,278.010742 332.877655,257.347321 339.626770,237.299545 
			C346.226685,217.695068 354.542725,198.668350 362.105469,179.388016 
	z"/>
	<path fill="#67B37D" opacity="1.000000" stroke="none" 
			d="
		M478.987427,325.978394 
			C466.198120,325.162048 453.408813,324.345703 440.276672,323.019379 
			C441.755127,314.109131 443.073303,305.557617 445.539642,297.351166 
			C447.994385,289.183228 446.754761,280.799408 448.442657,272.451538 
			C451.367096,257.987976 450.963623,242.851517 451.971802,227.553711 
			C451.981720,224.740753 451.975739,222.371353 451.980347,219.547791 
			C451.982727,216.062103 451.974518,213.030563 451.977783,209.666107 
			C451.980865,208.889160 451.972412,208.445160 451.971985,207.566986 
			C451.334686,195.456512 450.689423,183.780197 450.044159,172.103897 
			C465.015411,171.498932 479.986664,170.893982 495.444885,170.805115 
			C496.309998,181.917786 495.993256,192.595932 497.225098,203.092346 
			C499.197754,219.901382 498.290009,236.713028 495.453278,253.042282 
			C491.192688,277.567657 484.592712,301.686646 478.987427,325.978394 
	z"/>
	<path fill="#67B37D" opacity="1.000000" stroke="none" 
			d="
		M873.977173,462.078094 
			C868.873657,460.314667 863.743530,458.624207 858.672546,456.771729 
			C849.531738,453.432404 840.426331,449.996124 831.368286,446.112152 
			C832.263672,443.476593 833.007629,441.289276 833.946350,439.189056 
			C836.982849,432.395386 840.396790,425.753693 843.110413,418.835785 
			C849.514587,402.509766 851.572632,385.328705 853.159302,367.968933 
			C854.715332,350.943756 855.658508,333.987732 853.988953,316.948059 
			C853.393738,310.873749 852.611938,304.813385 852.195251,298.727509 
			C851.923889,294.765045 852.157471,290.768066 852.164917,286.786499 
			C867.062927,302.259216 881.960999,317.731934 896.958313,333.973022 
			C896.271301,343.963928 895.783020,353.224030 894.626648,362.399933 
			C893.017700,375.167450 890.991516,387.884979 888.994263,400.600403 
			C885.710205,421.508514 882.741760,442.504364 873.977173,462.078094 
	z"/>
	<path fill="#67B37D" opacity="1.000000" stroke="none" 
			d="
		M308.029083,188.039795 
			C318.349731,186.043304 328.651306,183.939163 339.000092,182.101242 
			C343.372040,181.324799 347.843567,181.108810 352.654663,181.028244 
			C346.370697,195.917236 339.244385,210.226151 333.130493,224.955292 
			C321.252838,253.570007 314.247223,283.305023 315.051605,314.512573 
			C315.191315,319.932739 316.275635,325.328522 316.923645,330.735565 
			C302.908081,333.220795 288.892517,335.706024 274.307983,337.813263 
			C273.165924,333.190765 271.842072,328.890015 272.155121,324.711884 
			C273.265594,309.890839 274.390656,295.033051 276.514862,280.334351 
			C280.033295,255.988388 289.262909,233.459702 299.698975,211.332443 
			C303.199768,203.909744 305.292664,195.823029 308.029083,188.039795 
	z"/>
	<path fill="#67B37D" opacity="1.000000" stroke="none" 
			d="
		M262.045380,201.139114 
			C275.438049,197.146469 288.830750,193.153824 302.567322,189.479843 
			C299.591156,193.896881 296.022827,197.820526 292.994232,202.123993 
			C280.194061,220.312073 272.141174,240.628952 268.200134,262.354706 
			C265.821045,275.469940 265.570862,288.956940 263.846680,302.209595 
			C262.174683,315.061340 262.996155,327.573517 266.954132,339.894867 
			C250.228424,344.999420 233.502701,350.103943 216.385391,354.772461 
			C215.678802,348.060913 214.738007,341.740753 215.182434,335.519531 
			C216.039673,323.519745 217.323135,311.523743 219.064560,299.619019 
			C223.471863,269.489532 236.446823,242.907883 253.286499,217.897720 
			C256.773560,212.718781 262.637878,208.535599 262.045380,201.139114 
	z"/>
	<path fill="#67B37D" opacity="1.000000" stroke="none" 
			d="
		M414.066589,175.174561 
			C424.402039,174.172028 434.737457,173.169495 445.510712,172.665054 
			C445.645966,186.442520 445.343414,199.721863 445.026917,213.334045 
			C445.019653,214.110901 445.026337,214.554916 445.021881,215.435669 
			C444.487946,221.664093 443.960144,227.455368 443.443970,233.247665 
			C443.074982,237.388550 442.638611,241.525696 442.381714,245.673767 
			C442.027771,251.388290 442.032227,257.132568 441.481964,262.825317 
			C440.897552,268.871765 440.041077,274.908661 438.956329,280.886749 
			C436.373901,295.119141 433.586761,309.314392 430.882294,323.524628 
			C417.595642,323.618134 404.308960,323.711670 390.554138,323.363708 
			C391.718872,315.992676 393.590820,309.109344 394.940094,302.125000 
			C399.049347,280.854340 403.189209,259.584869 406.877014,238.238861 
			C410.482239,217.370773 413.995148,196.459900 414.066589,175.174561 
	z"/>
	<path fill="#66B37C" opacity="1.000000" stroke="none" 
			d="
		M209.042267,358.051422 
			C195.565491,365.111816 182.088715,372.172211 167.420792,379.856659 
			C164.459488,371.598480 160.472076,362.826660 158.207703,353.630554 
			C154.533539,338.709198 159.113770,324.263580 162.942688,309.989319 
			C169.287857,286.334442 182.250931,266.236450 197.839539,247.770706 
			C205.629425,238.543060 211.732925,227.635529 222.378983,221.097336 
			C229.566940,216.682938 237.064514,212.772690 244.733795,208.972839 
			C240.640366,216.109375 235.928238,222.732605 231.894272,229.745880 
			C222.100266,246.773331 213.621628,264.509552 209.093887,283.667664 
			C205.795868,297.622589 204.028198,311.950470 201.835464,326.151794 
			C200.058731,337.658752 199.117920,349.121948 209.042267,358.051422 
	z"/>
	<path fill="#66B37C" opacity="1.000000" stroke="none" 
			d="
		M903.895691,342.087372 
			C914.230774,355.703888 921.738464,370.789490 927.140686,387.761414 
			C926.053833,394.601410 925.301208,400.680847 923.948730,406.623718 
			C919.333618,426.903839 916.477295,447.656342 907.942078,466.908325 
			C906.960571,469.122162 906.627014,471.623352 905.993042,473.991302 
			C897.782288,471.232727 889.571472,468.474152 881.183960,465.087280 
			C882.635559,460.282440 884.574341,456.197845 885.842346,451.914612 
			C894.758118,421.799438 900.315735,391.086060 902.062744,359.695221 
			C902.390259,353.810150 903.270508,347.955872 903.895691,342.087372 
	z"/>
	<path fill="#4D9A63" opacity="1.000000" stroke="none" 
			d="
		M209.395874,358.013489 
			C199.117920,349.121948 200.058731,337.658752 201.835464,326.151794 
			C204.028198,311.950470 205.795868,297.622589 209.093887,283.667664 
			C213.621628,264.509552 222.100266,246.773331 231.894272,229.745880 
			C235.928238,222.732605 240.640366,216.109375 245.126785,208.907959 
			C250.583511,206.089218 255.957458,203.671265 261.688416,201.196213 
			C262.637878,208.535599 256.773560,212.718781 253.286499,217.897720 
			C236.446823,242.907883 223.471863,269.489532 219.064560,299.619019 
			C217.323135,311.523743 216.039673,323.519745 215.182434,335.519531 
			C214.738007,341.740753 215.678802,348.060913 215.996170,354.837097 
			C213.915527,356.217041 211.832504,357.096283 209.395874,358.013489 
	z"/>
	<path fill="#4D9A63" opacity="1.000000" stroke="none" 
			d="
		M691.496826,199.455109 
			C692.857239,219.457413 694.906006,239.332352 694.753601,259.190369 
			C694.535461,287.588013 690.458374,315.643219 681.854492,342.836365 
			C678.303711,354.058746 674.045166,365.057220 670.078430,376.512756 
			C668.538147,376.301575 667.027832,375.735229 665.223877,374.970123 
			C667.404663,362.969513 670.114014,351.210938 672.297485,339.355499 
			C675.409424,322.459778 678.682556,305.562897 680.858032,288.535126 
			C682.679871,274.275513 683.389099,259.840881 683.921082,245.458954 
			C684.413696,232.140518 683.973816,218.788940 684.057190,205.452667 
			C684.071472,203.166855 684.650391,200.884583 685.073608,198.164062 
			C687.186584,198.258362 689.194275,198.789261 691.496826,199.455109 
	z"/>
	<path fill="#4D9962" opacity="1.000000" stroke="none" 
			d="
		M413.650085,175.120728 
			C413.995148,196.459900 410.482239,217.370773 406.877014,238.238861 
			C403.189209,259.584869 399.049347,280.854340 394.940094,302.125000 
			C393.590820,309.109344 391.718872,315.992676 390.098755,323.291077 
			C387.355347,323.762726 384.599060,323.865540 381.386963,323.901367 
			C382.773163,309.258453 384.248199,294.624451 386.542358,280.119965 
			C390.075470,257.782745 393.958557,235.494659 398.125702,213.266815 
			C399.919342,203.699478 402.814209,194.339737 405.168732,184.875702 
			C405.845795,182.154205 406.383240,179.397949 406.998047,176.234467 
			C409.085480,175.563171 411.159515,175.315033 413.650085,175.120728 
	z"/>
	<path fill="#4D9962" opacity="1.000000" stroke="none" 
			d="
		M479.380463,326.071228 
			C484.592712,301.686646 491.192688,277.567657 495.453278,253.042282 
			C498.290009,236.713028 499.197754,219.901382 497.225098,203.092346 
			C495.993256,192.595932 496.309998,181.917786 495.890930,170.908478 
			C497.976654,170.389557 500.103271,170.283340 502.678894,170.277039 
			C510.337982,189.944931 511.294647,210.366272 509.776123,230.742889 
			C508.129486,252.839157 503.870697,274.630463 497.507233,295.922943 
			C494.474091,306.071869 491.180145,316.142883 487.992706,326.635742 
			C485.245239,326.736237 482.509369,326.450165 479.380463,326.071228 
	z"/>
	<path fill="#4D9A63" opacity="1.000000" stroke="none" 
			d="
		M715.213440,393.573608 
			C716.660645,389.393768 718.505310,385.499207 719.979065,381.469025 
			C728.705566,357.605011 735.192566,333.155701 737.986633,307.865326 
			C739.692322,292.427124 741.022827,276.930664 741.926453,261.425659 
			C742.737244,247.513123 742.734070,233.553162 743.178955,219.113129 
			C745.731445,219.503860 748.194946,220.395599 750.906921,221.528229 
			C750.785706,223.807495 749.869385,225.918976 750.130554,227.873016 
			C752.867615,248.345108 753.062317,268.885223 750.908264,289.355164 
			C749.305115,304.590363 747.134827,319.831512 744.046509,334.828979 
			C739.657410,356.143494 733.014099,376.785004 721.016113,395.663239 
			C719.131470,395.276733 717.285522,394.536499 715.213440,393.573608 
	z"/>
	<path fill="#4D9A63" opacity="1.000000" stroke="none" 
			d="
		M627.734375,183.611328 
			C632.641907,210.484039 632.827026,237.394913 631.788879,264.233398 
			C630.811035,289.510406 628.720276,314.804382 620.125549,338.975952 
			C618.041382,344.837341 615.116821,350.063904 607.981628,353.418427 
			C608.207825,350.332672 608.156189,348.117706 608.560547,345.989319 
			C611.332825,331.397736 614.434937,316.865265 616.989014,302.236603 
			C622.407349,271.202515 622.269714,239.838669 621.947388,208.488403 
			C621.860413,200.037491 621.298462,191.591476 620.932617,182.698059 
			C623.095947,182.625626 625.281128,182.998352 627.734375,183.611328 
	z"/>
	<path fill="#4D9A63" opacity="1.000000" stroke="none" 
			d="
		M267.335999,339.917786 
			C262.996155,327.573517 262.174683,315.061340 263.846680,302.209595 
			C265.570862,288.956940 265.821045,275.469940 268.200134,262.354706 
			C272.141174,240.628952 280.194061,220.312073 292.994232,202.123993 
			C296.022827,197.820526 299.591156,193.896881 302.940277,189.462860 
			C304.403137,188.746292 305.836945,188.365372 307.649902,188.012131 
			C305.292664,195.823029 303.199768,203.909744 299.698975,211.332443 
			C289.262909,233.459702 280.033295,255.988388 276.514862,280.334351 
			C274.390656,295.033051 273.265594,309.890839 272.155121,324.711884 
			C271.842072,328.890015 273.165924,333.190765 273.885742,337.838257 
			C271.927612,338.807709 269.822723,339.374207 267.335999,339.917786 
	z"/>
	<path fill="#4D9A63" opacity="1.000000" stroke="none" 
			d="
		M317.320190,330.769836 
			C316.275635,325.328522 315.191315,319.932739 315.051605,314.512573 
			C314.247223,283.305023 321.252838,253.570007 333.130493,224.955292 
			C339.244385,210.226151 346.370697,195.917236 353.124756,181.020477 
			C355.917358,180.164642 358.624664,179.706757 361.718750,179.318451 
			C354.542725,198.668350 346.226685,217.695068 339.626770,237.299545 
			C332.877655,257.347321 328.017822,278.010742 326.996185,299.323975 
			C326.536041,308.922852 326.325012,318.533661 326.000641,328.616455 
			C323.239105,329.663910 320.477905,330.234009 317.320190,330.769836 
	z"/>
	<path fill="#4D9A63" opacity="1.000000" stroke="none" 
			d="
		M795.841858,244.425629 
			C797.009705,269.048737 798.869507,293.413361 798.731506,317.766663 
			C798.606934,339.768707 795.877197,361.762787 789.308716,382.899750 
			C786.728577,391.202118 782.017029,398.859406 778.070129,406.706818 
			C777.151123,408.534058 775.391785,409.938538 772.919312,411.070526 
			C773.307556,409.313904 773.430969,407.444366 774.124695,405.818024 
			C781.547729,388.414856 785.163513,370.138519 787.024170,351.409668 
			C790.651062,314.901917 788.307434,278.292023 789.116211,241.246887 
			C791.332886,241.892410 793.498291,243.027298 795.841858,244.425629 
	z"/>
	<path fill="#4D9A63" opacity="1.000000" stroke="none" 
			d="
		M851.992676,286.510437 
			C852.157471,290.768066 851.923889,294.765045 852.195251,298.727509 
			C852.611938,304.813385 853.393738,310.873749 853.988953,316.948059 
			C855.658508,333.987732 854.715332,350.943756 853.159302,367.968933 
			C851.572632,385.328705 849.514587,402.509766 843.110413,418.835785 
			C840.396790,425.753693 836.982849,432.395386 833.946350,439.189056 
			C833.007629,441.289276 832.263672,443.476593 831.131042,445.848511 
			C828.737183,445.144592 826.642761,444.216125 824.258362,443.089752 
			C828.066528,433.123322 833.200989,423.641693 836.004761,413.514771 
			C839.643738,400.371216 842.624878,386.811859 843.732666,373.255280 
			C845.444153,352.310150 845.474487,331.218719 845.910217,310.182983 
			C846.067627,302.585754 845.298096,294.971436 845.045776,287.361786 
			C844.991943,285.737885 845.346741,284.100372 845.845581,282.188354 
			C848.058716,283.349792 849.939514,284.792084 851.992676,286.510437 
	z"/>
	<path fill="#4D9A63" opacity="1.000000" stroke="none" 
			d="
		M547.201172,337.516418 
			C548.801208,330.299469 550.591736,323.264099 552.413147,316.236725 
			C556.084595,302.072052 558.379700,287.748383 558.040344,273.043182 
			C557.584106,253.277740 557.712646,233.490723 556.845398,213.745667 
			C556.259155,200.398056 554.389648,187.106812 553.053406,173.376099 
			C554.756470,173.013901 556.500305,173.065948 558.671143,173.225189 
			C565.656189,196.689987 565.525635,220.693878 566.041626,244.642609 
			C566.234253,253.583328 567.337769,262.556671 566.841614,271.449097 
			C565.819885,289.760956 564.555542,308.167175 556.951721,325.263153 
			C555.036072,329.570312 551.906921,333.337708 549.187988,337.648193 
			C548.495605,337.862671 547.950623,337.782135 547.201172,337.516418 
	z"/>
	<path fill="#4D9962" opacity="1.000000" stroke="none" 
			d="
		M445.040894,213.001221 
			C445.343414,199.721863 445.645966,186.442520 445.925537,172.720428 
			C447.006775,172.189240 448.111023,172.100784 449.629700,172.058121 
			C450.689423,183.780197 451.334686,195.456512 451.678101,207.606506 
			C451.062988,208.485489 450.749756,208.890793 450.436493,209.296097 
			C450.946442,209.530411 451.456360,209.764709 451.966309,209.999023 
			C451.974518,213.030563 451.982727,216.062103 451.603760,219.630920 
			C449.597687,222.954041 448.475433,225.692978 451.955933,227.997269 
			C450.963623,242.851517 451.367096,257.987976 448.442657,272.451538 
			C446.754761,280.799408 447.994385,289.183228 445.539642,297.351166 
			C443.073303,305.557617 441.755127,314.109131 439.859070,322.947144 
			C437.098236,323.516022 434.412079,323.647156 431.304108,323.651489 
			C433.586761,309.314392 436.373901,295.119141 438.956329,280.886749 
			C440.041077,274.908661 440.897552,268.871765 441.481964,262.825317 
			C442.032227,257.132568 442.027771,251.388290 442.381714,245.673767 
			C442.638611,241.525696 443.074982,237.388550 443.443970,233.247665 
			C443.960144,227.455368 444.487946,221.664093 445.315887,215.396393 
			C445.936035,214.516403 446.251038,214.112411 446.566040,213.708405 
			C446.057648,213.472672 445.549286,213.236938 445.040894,213.001221 
	z"/>
	<path fill="#4D9A63" opacity="1.000000" stroke="none" 
			d="
		M903.798645,341.765533 
			C903.270508,347.955872 902.390259,353.810150 902.062744,359.695221 
			C900.315735,391.086060 894.758118,421.799438 885.842346,451.914612 
			C884.574341,456.197845 882.635559,460.282440 880.922363,464.843811 
			C878.693115,464.355530 876.548767,463.482422 874.190796,462.343689 
			C882.741760,442.504364 885.710205,421.508514 888.994263,400.600403 
			C890.991516,387.884979 893.017700,375.167450 894.626648,362.399933 
			C895.783020,353.224030 896.271301,343.963928 897.109009,334.271027 
			C899.340759,336.348358 901.521179,338.896027 903.798645,341.765533 
	z"/>
	<path fill="#4D9962" opacity="1.000000" stroke="none" 
			d="
		M906.255127,474.264893 
			C906.627014,471.623352 906.960571,469.122162 907.942078,466.908325 
			C916.477295,447.656342 919.333618,426.903839 923.948730,406.623718 
			C925.301208,400.680847 926.053833,394.601410 927.167175,388.138947 
			C929.506531,393.865356 931.760132,400.037384 933.714905,406.849182 
			C932.950989,409.230255 932.329468,410.946716 932.048401,412.717255 
			C930.941223,419.690918 930.382202,426.782593 928.810181,433.645020 
			C925.440613,448.353485 923.237549,463.631500 911.894653,475.122894 
			C910.102173,474.928070 908.309631,474.733246 906.255127,474.264893 
	z"/>
	<path fill="#65B07B" opacity="1.000000" stroke="none" 
			d="
		M912.266785,475.254272 
			C923.237549,463.631500 925.440613,448.353485 928.810181,433.645020 
			C930.382202,426.782593 930.941223,419.690918 932.048401,412.717255 
			C932.329468,410.946716 932.950989,409.230255 933.704834,407.239929 
			C939.117065,427.863922 939.096497,448.585205 931.977966,469.042999 
			C931.487000,470.453857 930.219910,472.350983 929.002075,472.622131 
			C923.609863,473.822693 918.103760,474.511566 912.266785,475.254272 
	z"/>
	<path fill="#4D9A63" opacity="1.000000" stroke="none" 
			d="
		M451.971802,227.553711 
			C448.475433,225.692978 449.597687,222.954041 451.593170,220.085083 
			C451.975739,222.371353 451.981720,224.740753 451.971802,227.553711 
	z"/>
	<path fill="#4D9A63" opacity="1.000000" stroke="none" 
			d="
		M451.977783,209.666107 
			C451.456360,209.764709 450.946442,209.530411 450.436493,209.296097 
			C450.749756,208.890793 451.062988,208.485489 451.670105,208.040665 
			C451.972412,208.445160 451.980865,208.889160 451.977783,209.666107 
	z"/>
	<path fill="#4D9A63" opacity="1.000000" stroke="none" 
			d="
		M445.026917,213.334045 
			C445.549286,213.236938 446.057648,213.472672 446.566040,213.708405 
			C446.251038,214.112411 445.936035,214.516403 445.327026,214.959686 
			C445.026337,214.554916 445.019653,214.110901 445.026917,213.334045 
	z"/>
</svg>