<svg version="1.1" id="Layer_1" xmlns="http://www.w3.org/2000/svg" xmlns:xlink="http://www.w3.org/1999/xlink" x="0px" y="0px"
	 width="100%" viewBox="0 0 1080 1080" enable-background="new 0 0 1080 1080" xml:space="preserve">
<path fill="#39344A" opacity="1.000000" stroke="none" 
	d="
M987.562256,423.570190 
	C995.671204,451.468872 976.786377,480.062439 956.480164,492.263184 
	C948.922668,496.804047 940.498413,500.482849 936.044678,509.205292 
	C933.039734,515.090332 929.583679,521.005859 925.162781,525.841125 
	C919.621277,531.902161 912.836792,536.817017 906.686829,542.335876 
	C903.780701,544.943665 899.683655,547.322876 898.557495,550.632874 
	C892.427917,568.648926 878.503479,576.239319 861.413513,580.174194 
	C836.641846,585.877747 819.960449,579.092407 805.467896,558.097473 
	C795.686951,543.928101 789.174927,528.301941 784.138000,512.072266 
	C775.809631,485.236969 768.184204,458.184357 760.069275,431.281647 
	C756.520508,419.516754 752.760071,407.797180 748.480835,396.285614 
	C747.529663,393.726898 744.205872,391.781342 741.599182,390.154694 
	C731.754395,384.011169 721.315369,378.721252 711.956238,371.930054 
	C704.800476,366.737701 699.018311,359.675720 692.446777,353.639465 
	C690.652283,351.991089 688.307556,350.157837 686.055786,349.919922 
	C672.824219,348.522034 659.500488,347.951019 646.291931,346.389954 
	C619.759766,343.254272 594.199707,335.895935 568.833679,327.763672 
	C550.318542,321.827881 531.247192,317.459473 514.029175,307.952484 
	C501.878754,301.243622 490.548706,293.338104 489.785767,278.010681 
	C489.382355,269.906342 490.621185,261.303680 493.095215,253.557312 
	C498.652222,236.157959 508.260864,220.981400 523.055725,209.832077 
	C528.043335,206.073441 534.114624,203.743942 539.719238,200.816101 
	C543.798157,198.685272 546.865601,195.805405 546.946838,190.868408 
	C547.136841,179.326584 554.089355,172.765503 564.210388,170.473587 
	C577.190308,167.534286 582.911743,159.850342 585.332275,147.311539 
	C586.871765,139.336639 589.936462,131.129105 594.349548,124.348549 
	C602.865112,111.264473 616.369995,108.460533 631.234497,109.507759 
	C661.393188,111.632469 682.320557,128.675323 700.825439,150.704620 
	C720.621704,174.271317 731.506409,201.944626 739.896301,230.876389 
	C744.433777,246.523132 748.029785,262.441162 752.325073,278.161774 
	C752.959656,280.484314 754.690979,282.968384 756.635315,284.397522 
	C769.766113,294.048615 783.097290,303.427032 796.350891,312.911377 
	C804.678650,318.870667 810.707581,326.802795 815.150208,335.874207 
	C816.978882,339.608093 819.488098,341.026276 823.419678,341.841644 
	C848.632874,347.070282 873.897827,352.123779 898.926453,358.146301 
	C922.777527,363.885468 944.982910,373.591461 963.834595,389.802826 
	C974.458679,398.938934 983.156433,409.517181 987.562256,423.570190 
M826.042847,451.387939 
	C825.701904,451.223663 825.361023,451.059387 825.095886,451.036713 
	C825.095886,451.036713 825.237549,450.960968 825.293823,450.236542 
	C823.906433,448.419586 822.519043,446.602631 821.097961,444.922546 
	C821.097961,444.922546 821.234863,444.956116 821.352905,444.202545 
	C820.015076,441.713013 818.598877,439.262024 817.352722,436.727448 
	C811.411621,424.643341 805.266113,412.649292 799.742249,400.376160 
	C797.831543,396.130829 797.506409,391.171814 796.362305,386.120880 
	C789.629089,391.010498 783.287964,395.497284 777.147461,400.243561 
	C776.477722,400.761200 776.640198,402.861877 776.970886,404.077606 
	C778.234131,408.723236 779.890259,413.263977 781.102356,417.921234 
	C788.403137,445.974030 795.312561,474.133575 803.025818,502.071594 
	C805.939270,512.624451 810.107056,522.931763 814.711487,532.884460 
	C818.246765,540.526306 822.717957,547.944885 827.924194,554.556152 
	C836.192810,565.056274 846.615479,567.484070 860.031860,563.243713 
	C863.884827,562.197998 867.747925,561.187805 871.588440,560.098206 
	C877.317322,558.472961 881.291626,554.849121 882.879150,549.110352 
	C885.903198,538.178528 892.782227,530.490540 902.296082,524.743958 
	C911.441345,519.220032 918.756226,511.980133 923.858582,502.382019 
	C928.954163,492.796631 936.549316,485.430389 945.713196,479.495056 
	C950.851196,476.167206 955.811523,472.328461 960.110657,467.986084 
	C973.499084,454.463257 976.113892,434.567719 965.910645,419.940186 
	C955.214417,404.605927 941.106812,392.470001 923.553101,386.150696 
	C905.601501,379.688171 886.866821,375.338470 868.362732,370.492371 
	C853.404480,366.574890 838.287231,363.260406 823.214417,359.792023 
	C821.951111,359.501312 819.841064,359.558838 819.227234,360.331116 
	C815.852051,364.577454 812.820374,369.096832 809.369690,373.945679 
	C810.966370,374.316986 812.504700,374.691833 814.050842,375.031738 
	C848.231140,382.546112 880.465637,394.522949 908.279114,416.466888 
	C911.369995,418.905518 913.864624,422.099823 916.635803,424.943695 
	C916.320618,425.325134 916.005493,425.706543 915.690308,426.087982 
	C914.470520,425.798889 913.250732,425.509796 911.518494,424.742188 
	C898.875488,416.193268 884.788696,410.535736 870.636414,405.278870 
	C852.553772,398.562103 834.122192,392.784058 815.835510,386.617798 
	C814.243774,386.081055 812.611023,385.665924 810.997314,385.194336 
	C821.821838,396.092896 834.007141,405.197601 841.605652,418.700806 
	C839.443237,418.373383 837.641418,417.614532 836.257629,416.385101 
	C832.777588,413.293182 829.646545,409.798065 826.086426,406.808899 
	C818.484680,400.426331 810.699829,394.261749 802.936523,387.864716 
	C802.936523,387.864716 802.849548,388.082794 802.849548,388.082794 
	C802.849548,388.082794 803.040100,387.873779 802.764038,388.642334 
	C803.299011,390.377502 803.550537,392.270081 804.413147,393.823334 
	C812.319336,408.058838 820.378784,422.209198 828.298889,436.437042 
	C835.327698,449.063782 842.236206,461.757538 849.126465,475.181549 
	C849.044250,476.686707 848.962097,478.191864 848.879944,479.697021 
	C848.371765,479.949615 847.863525,480.202179 847.355347,480.454773 
	C844.345581,476.998810 841.335815,473.542847 838.145386,469.463806 
	C837.750488,468.966095 837.355530,468.468384 836.940918,468.034729 
	C836.940918,468.034729 837.006714,468.047516 836.886475,467.504761 
	C836.593933,467.306610 836.301453,467.108490 835.993042,467.004639 
	C835.993042,467.004639 836.087280,467.020660 836.119080,466.389893 
	C835.739929,465.912598 835.360779,465.435303 834.966248,465.023285 
	C834.966248,465.023285 835.032715,465.031708 834.913574,464.483002 
	C834.611755,464.294128 834.309998,464.105225 833.995117,464.003876 
	C833.995117,464.003876 834.082581,464.017120 834.129089,463.386108 
	C833.745972,462.910553 833.362915,462.434998 832.963440,462.024384 
	C832.963440,462.024384 833.029785,462.033539 832.914917,461.481995 
	C832.613525,461.291687 832.312073,461.101379 831.996094,461.003174 
	C831.996094,461.003174 832.088135,461.017883 832.148010,460.382446 
	C831.761353,459.903015 831.374695,459.423584 830.973083,459.016479 
	C830.973083,459.016479 831.045410,459.031555 830.931885,458.471893 
	C830.624451,458.283386 830.317017,458.094879 829.995056,458.005096 
	C829.995056,458.005096 830.093750,458.019714 830.155090,457.382355 
	C829.765015,456.902435 829.374878,456.422516 828.969971,456.018921 
	C828.969971,456.018921 829.046265,456.033875 828.925781,455.475342 
	C828.621643,455.277069 828.317505,455.078796 827.998962,455.014923 
	C827.998962,455.014923 828.133301,455.029510 828.171692,454.385956 
	C827.776550,453.905548 827.381348,453.425171 826.973511,453.017853 
	C826.973511,453.017853 827.046509,453.030640 826.930237,452.473389 
	C826.622986,452.287079 826.315674,452.100769 826.005920,451.997742 
	C826.005920,451.997742 826.089172,452.000153 826.042847,451.387939 
M771.647583,383.122437 
	C780.785706,375.154816 789.916809,367.179138 799.064148,359.222107 
	C806.548523,352.711517 807.029419,349.626251 800.432312,341.953430 
	C793.611572,334.020569 786.769165,325.987335 779.047546,318.976898 
	C768.309021,309.227356 756.579590,300.646179 741.557861,298.549469 
	C739.580811,298.273499 736.750671,298.220886 735.527588,299.362885 
	C725.702393,308.536530 716.168335,318.021942 706.076355,327.704437 
	C701.297974,334.024323 701.528748,336.472229 705.870911,342.190948 
	C720.299805,361.194031 740.551086,372.822876 760.017700,385.474579 
	C764.349548,388.289917 768.048523,387.929596 771.647583,383.122437 
M655.744568,165.963898 
	C656.248169,166.266144 656.751831,166.568375 657.707397,167.340378 
	C663.352539,173.646423 669.455688,179.604599 674.557983,186.322937 
	C690.687073,207.561111 702.608032,231.161270 712.314697,255.918930 
	C716.184753,265.789948 719.925842,275.711517 723.703674,285.552887 
	C728.742859,283.743042 733.685425,281.967896 738.639587,280.188568 
	C738.672180,279.879669 738.813354,279.521057 738.725769,279.231720 
	C731.495728,255.355133 724.554688,231.385269 716.916870,207.639557 
	C708.962891,182.910995 695.034180,161.821274 676.216248,143.897537 
	C662.588440,130.917267 646.494446,124.004997 627.699890,123.341553 
	C612.958313,122.821182 605.318787,128.132401 601.010620,142.167053 
	C599.499390,147.090210 598.458496,152.155731 597.095886,157.126923 
	C593.814636,169.097473 586.513855,177.283020 574.484497,181.012039 
	C571.467163,181.947388 568.096863,182.511124 565.645996,184.289352 
	C563.226318,186.044922 560.208191,189.085800 560.149170,191.625549 
	C559.868713,203.682465 553.149536,210.608475 543.566040,216.446701 
	C536.817017,220.558228 530.036377,225.269867 524.813416,231.097046 
	C514.352112,242.768661 506.395660,256.014923 506.414001,273.439819 
	C506.142975,278.062225 507.370117,282.313202 511.302521,284.842834 
	C515.159729,287.324097 519.347107,289.718597 523.726929,290.890869 
	C550.113953,297.953552 576.665955,304.402710 603.030518,311.545441 
	C629.981140,318.846954 658.144348,322.007294 683.509827,334.806915 
	C683.746521,334.926392 684.138794,334.737610 683.336243,334.850250 
	C686.980042,327.358765 690.339905,320.451019 693.975830,312.975616 
	C689.314087,309.814575 684.111023,306.286530 678.515076,302.253510 
	C655.231812,286.336578 631.932495,270.443085 608.687195,254.470993 
	C605.991394,252.618652 603.595032,250.330414 601.859619,248.254379 
	C612.333740,249.176804 621.404480,254.106094 629.793213,259.634552 
	C650.622375,273.361603 671.072083,287.679596 691.396545,302.150177 
	C700.247437,308.451813 699.816406,308.752563 707.926392,301.350983 
	C711.230896,298.335175 711.418701,296.455200 708.163696,293.057526 
	C696.079041,280.443024 684.344666,267.492096 672.545837,254.606049 
	C671.265625,253.207840 670.421265,251.410507 669.374817,249.798279 
	C669.762085,249.522186 670.149353,249.246078 670.536621,248.969986 
	C688.871094,260.111267 703.125183,275.543091 715.891235,292.925110 
	C716.399536,291.175873 716.475586,289.650238 716.056641,288.275391 
	C715.087524,285.094666 713.967163,281.952301 712.753601,278.854889 
	C700.136169,246.650940 683.499939,216.526840 665.441956,187.118759 
	C661.362976,180.475906 657.987671,173.401001 654.741699,166.162445 
	C654.891235,166.039597 655.040710,165.916763 655.744568,165.963898 
M808.577576,384.469574 
	C808.577576,384.469574 808.518127,384.479675 808.577576,384.469574 
z"/>
<path fill="#FE4766" opacity="1.000000" stroke="none" 
	d="
M506.594727,272.589447 
	C506.395660,256.014923 514.352112,242.768661 524.813416,231.097046 
	C530.036377,225.269867 536.817017,220.558228 543.566040,216.446701 
	C553.149536,210.608475 559.868713,203.682465 560.149170,191.625549 
	C560.208191,189.085800 563.226318,186.044922 565.645996,184.289352 
	C568.096863,182.511124 571.467163,181.947388 574.484497,181.012039 
	C586.513855,177.283020 593.814636,169.097473 597.095886,157.126923 
	C598.458496,152.155731 599.499390,147.090210 601.010620,142.167053 
	C605.318787,128.132401 612.958313,122.821182 627.699890,123.341553 
	C646.494446,124.004997 662.588440,130.917267 676.216248,143.897537 
	C695.034180,161.821274 708.962891,182.910995 716.916870,207.639557 
	C724.554688,231.385269 731.495728,255.355133 738.725769,279.231720 
	C738.813354,279.521057 738.672180,279.879669 738.639587,280.188568 
	C733.685425,281.967896 728.742859,283.743042 723.703674,285.552887 
	C719.925842,275.711517 716.184753,265.789948 712.314697,255.918930 
	C702.608032,231.161270 690.687073,207.561111 674.557983,186.322937 
	C669.455688,179.604599 663.352539,173.646423 657.384705,166.747467 
	C655.261230,161.583130 651.142578,160.162735 647.316101,161.414017 
	C644.769714,162.246719 641.616516,165.773636 641.400208,168.320984 
	C640.776001,175.672211 640.907227,183.216980 641.877625,190.535110 
	C642.722473,196.906158 644.972351,203.114899 646.850830,209.319855 
	C650.727783,222.126007 655.667969,234.423584 664.642151,244.689606 
	C665.568604,245.749435 666.190857,247.075256 666.927795,248.235977 
	C664.855408,249.840393 662.636597,250.816833 661.605896,252.514618 
	C659.628967,255.770767 657.822632,255.430191 654.689209,254.066010 
	C645.409668,250.026031 636.068604,245.980804 626.429016,242.970535 
	C620.874084,241.235794 614.706421,241.168167 608.793762,240.969254 
	C604.251709,240.816437 601.276184,243.306931 601.059875,248.244263 
	C603.595032,250.330414 605.991394,252.618652 608.687195,254.470993 
	C631.932495,270.443085 655.231812,286.336578 678.819763,302.881653 
	C679.695862,304.892456 680.688354,306.256683 680.749695,307.661560 
	C680.870850,310.437927 681.399475,313.821960 680.085876,315.893250 
	C677.959351,319.246307 674.401611,321.520325 669.820862,320.366974 
	C655.806274,316.838257 641.721863,313.565704 627.785278,309.752533 
	C599.091431,301.901672 570.416443,293.968781 541.856323,285.648804 
	C529.830261,282.145416 516.933228,280.740143 506.594727,272.589447 
z"/>
<path fill="#FE4766" opacity="1.000000" stroke="none" 
	d="
M838.326050,470.086884 
	C841.335815,473.542847 844.345581,476.998810 847.355347,480.454773 
	C847.863525,480.202179 848.371765,479.949615 848.879944,479.697021 
	C848.962097,478.191864 849.044250,476.686707 849.483398,474.630920 
	C851.235229,471.577881 853.709351,469.108856 853.788025,466.565735 
	C853.928406,462.030579 853.319885,457.193176 851.755798,452.949799 
	C849.410339,446.586456 845.810791,440.695679 843.101929,434.449005 
	C842.391907,432.811737 842.192627,429.954468 843.143921,428.770081 
	C847.026855,423.935913 846.506348,419.340729 843.608032,414.459656 
	C842.846252,413.176575 842.260803,411.788727 841.636902,410.534546 
	C858.785339,416.835327 875.396484,423.088226 892.135925,428.976196 
	C895.959900,430.321259 900.216614,430.845123 904.293152,430.941193 
	C907.927246,431.026855 911.107239,429.362732 912.030945,425.220703 
	C913.250732,425.509796 914.470520,425.798889 915.690308,426.087982 
	C916.005493,425.706543 916.320618,425.325134 916.635803,424.943695 
	C913.864624,422.099823 911.369995,418.905518 908.279114,416.466888 
	C880.465637,394.522949 848.231140,382.546112 814.050842,375.031738 
	C812.504700,374.691833 810.966370,374.316986 809.369690,373.945679 
	C812.820374,369.096832 815.852051,364.577454 819.227234,360.331116 
	C819.841064,359.558838 821.951111,359.501312 823.214417,359.792023 
	C838.287231,363.260406 853.404480,366.574890 868.362732,370.492371 
	C886.866821,375.338470 905.601501,379.688171 923.553101,386.150696 
	C941.106812,392.470001 955.214417,404.605927 965.910645,419.940186 
	C976.113892,434.567719 973.499084,454.463257 960.110657,467.986084 
	C955.811523,472.328461 950.851196,476.167206 945.713196,479.495056 
	C936.549316,485.430389 928.954163,492.796631 923.858582,502.382019 
	C918.756226,511.980133 911.441345,519.220032 902.296082,524.743958 
	C892.782227,530.490540 885.903198,538.178528 882.879150,549.110352 
	C881.291626,554.849121 877.317322,558.472961 871.588440,560.098206 
	C867.747925,561.187805 863.884827,562.197998 859.335693,563.058167 
	C849.801880,559.773132 842.783752,554.363647 838.561035,545.945801 
	C833.638733,536.133118 828.429199,526.377014 824.579529,516.132202 
	C816.909668,495.721161 809.692322,475.118469 803.033691,454.355774 
	C797.702148,437.731171 793.440552,420.761902 788.810730,403.916290 
	C788.392212,402.393555 788.755005,400.656067 788.755005,399.018311 
	C789.477417,398.566925 790.199829,398.115540 790.922241,397.664154 
	C792.320007,399.704010 793.780945,401.703857 795.104126,403.791046 
	C799.738464,411.101196 804.302185,418.456024 808.937073,425.765839 
	C813.005432,432.182190 817.133240,438.560852 821.234863,444.956116 
	C821.234863,444.956116 821.097961,444.922546 821.154968,445.206909 
	C822.553833,447.314484 823.895691,449.137726 825.237549,450.960968 
	C825.237549,450.960968 825.095886,451.036713 825.200317,451.182068 
	C825.566223,451.551697 825.827698,451.775940 826.089172,452.000183 
	C826.089172,452.000153 826.005920,451.997742 826.136902,452.179596 
	C826.527405,452.584503 826.786987,452.807556 827.046509,453.030640 
	C827.046509,453.030640 826.973511,453.017853 827.056274,453.274109 
	C827.470459,454.030060 827.801880,454.529785 828.133301,455.029510 
	C828.133301,455.029510 827.998962,455.014923 828.140503,455.171356 
	C828.536804,455.563171 828.791504,455.798523 829.046265,456.033875 
	C829.046265,456.033875 828.969971,456.018921 829.049927,456.271942 
	C829.451172,457.023193 829.772461,457.521454 830.093750,458.019714 
	C830.093750,458.019714 829.995056,458.005096 830.135864,458.176453 
	C830.532959,458.575714 830.789185,458.803650 831.045410,459.031555 
	C831.045410,459.031555 830.973083,459.016479 831.044617,459.272949 
	C831.440125,460.025574 831.764099,460.521729 832.088135,461.017883 
	C832.088135,461.017883 831.996094,461.003174 832.127930,461.182617 
	C832.516357,461.585907 832.773071,461.809723 833.029785,462.033569 
	C833.029785,462.033539 832.963440,462.024384 833.032471,462.284241 
	C833.428528,463.035065 833.755554,463.526093 834.082581,464.017120 
	C834.082581,464.017120 833.995117,464.003876 834.124756,464.186584 
	C834.513855,464.590118 834.773254,464.810913 835.032715,465.031708 
	C835.032715,465.031708 834.966248,465.023285 835.039551,465.281647 
	C835.437683,466.033539 835.762512,466.527100 836.087280,467.020660 
	C836.087280,467.020660 835.993042,467.004639 836.123657,467.182709 
	C836.505127,467.589691 836.755920,467.818604 837.006714,468.047546 
	C837.006714,468.047516 836.940918,468.034729 837.048706,468.307556 
	C837.546387,469.082581 837.936218,469.584747 838.326050,470.086884 
z"/>
<path fill="#F1143A" opacity="1.000000" stroke="none" 
	d="
M601.459717,248.249329 
	C601.276184,243.306931 604.251709,240.816437 608.793762,240.969254 
	C614.706421,241.168167 620.874084,241.235794 626.429016,242.970535 
	C636.068604,245.980804 645.409668,250.026031 654.689209,254.066010 
	C657.822632,255.430191 659.628967,255.770767 661.605896,252.514618 
	C662.636597,250.816833 664.855408,249.840393 666.927795,248.235977 
	C666.190857,247.075256 665.568604,245.749435 664.642151,244.689606 
	C655.667969,234.423584 650.727783,222.126007 646.850830,209.319855 
	C644.972351,203.114899 642.722473,196.906158 641.877625,190.535110 
	C640.907227,183.216980 640.776001,175.672211 641.400208,168.320984 
	C641.616516,165.773636 644.769714,162.246719 647.316101,161.414017 
	C651.142578,160.162735 655.261230,161.583130 657.158752,166.512573 
	C656.751831,166.568375 656.248169,166.266144 655.329712,165.696625 
	C654.705994,165.794556 654.497253,166.159760 654.288452,166.524963 
	C657.987671,173.401001 661.362976,180.475906 665.441956,187.118759 
	C683.499939,216.526840 700.136169,246.650940 712.753601,278.854889 
	C713.967163,281.952301 715.087524,285.094666 716.056641,288.275391 
	C716.475586,289.650238 716.399536,291.175873 715.891235,292.925110 
	C703.125183,275.543091 688.871094,260.111267 670.536621,248.969986 
	C670.149353,249.246078 669.762085,249.522186 669.374817,249.798279 
	C670.421265,251.410507 671.265625,253.207840 672.545837,254.606049 
	C684.344666,267.492096 696.079041,280.443024 708.163696,293.057526 
	C711.418701,296.455200 711.230896,298.335175 707.926392,301.350983 
	C699.816406,308.752563 700.247437,308.451813 691.396545,302.150177 
	C671.072083,287.679596 650.622375,273.361603 629.793213,259.634552 
	C621.404480,254.106094 612.333740,249.176804 601.459717,248.249329 
z"/>
<path fill="#FE4766" opacity="1.000000" stroke="none" 
	d="
M706.545227,327.412048 
	C716.168335,318.021942 725.702393,308.536530 735.527588,299.362885 
	C736.750671,298.220886 739.580811,298.273499 741.557861,298.549469 
	C756.579590,300.646179 768.309021,309.227356 779.047546,318.976898 
	C786.769165,325.987335 793.611572,334.020569 800.432312,341.953430 
	C807.029419,349.626251 806.548523,352.711517 799.064148,359.222107 
	C789.916809,367.179138 780.785706,375.154816 771.029968,383.139954 
	C760.553284,377.588470 751.401123,371.241730 743.393066,363.012756 
	C731.487610,350.778839 718.863464,339.244263 706.545227,327.412048 
z"/>
<path fill="#F0153A" opacity="1.000000" stroke="none" 
	d="
M821.293884,444.579346 
	C817.133240,438.560852 813.005432,432.182190 808.937073,425.765839 
	C804.302185,418.456024 799.738464,411.101196 795.104126,403.791046 
	C793.780945,401.703857 792.320007,399.704010 790.922241,397.664154 
	C790.199829,398.115540 789.477417,398.566925 788.755005,399.018311 
	C788.755005,400.656067 788.392212,402.393555 788.810730,403.916290 
	C793.440552,420.761902 797.702148,437.731171 803.033691,454.355774 
	C809.692322,475.118469 816.909668,495.721161 824.579529,516.132202 
	C828.429199,526.377014 833.638733,536.133118 838.561035,545.945801 
	C842.783752,554.363647 849.801880,559.773132 858.942383,563.088867 
	C846.615479,567.484070 836.192810,565.056274 827.924194,554.556152 
	C822.717957,547.944885 818.246765,540.526306 814.711487,532.884460 
	C810.107056,522.931763 805.939270,512.624451 803.025818,502.071594 
	C795.312561,474.133575 788.403137,445.974030 781.102356,417.921234 
	C779.890259,413.263977 778.234131,408.723236 776.970886,404.077606 
	C776.640198,402.861877 776.477722,400.761200 777.147461,400.243561 
	C783.287964,395.497284 789.629089,391.010498 796.362305,386.120880 
	C797.506409,391.171814 797.831543,396.130829 799.742249,400.376160 
	C805.266113,412.649292 811.411621,424.643341 817.352722,436.727448 
	C818.598877,439.262024 820.015076,441.713013 821.293884,444.579346 
z"/>
<path fill="#EF143A" opacity="1.000000" stroke="none" 
	d="
M911.774719,424.981445 
	C911.107239,429.362732 907.927246,431.026855 904.293152,430.941193 
	C900.216614,430.845123 895.959900,430.321259 892.135925,428.976196 
	C875.396484,423.088226 858.785339,416.835327 841.636902,410.534546 
	C842.260803,411.788727 842.846252,413.176575 843.608032,414.459656 
	C846.506348,419.340729 847.026855,423.935913 843.143921,428.770081 
	C842.192627,429.954468 842.391907,432.811737 843.101929,434.449005 
	C845.810791,440.695679 849.410339,446.586456 851.755798,452.949799 
	C853.319885,457.193176 853.928406,462.030579 853.788025,466.565735 
	C853.709351,469.108856 851.235229,471.577881 849.519165,474.250977 
	C842.236206,461.757538 835.327698,449.063782 828.298889,436.437042 
	C820.378784,422.209198 812.319336,408.058838 804.413147,393.823334 
	C803.550537,392.270081 803.299011,390.377502 802.893555,388.293091 
	C803.023132,387.943878 802.989990,388.007874 802.989990,388.007874 
	C810.699829,394.261749 818.484680,400.426331 826.086426,406.808899 
	C829.646545,409.798065 832.777588,413.293182 836.257629,416.385101 
	C837.641418,417.614532 839.443237,418.373383 841.605652,418.700806 
	C834.007141,405.197601 821.821838,396.092896 810.997314,385.194336 
	C812.611023,385.665924 814.243774,386.081055 815.835510,386.617798 
	C834.122192,392.784058 852.553772,398.562103 870.636414,405.278870 
	C884.788696,410.535736 898.875488,416.193268 911.774719,424.981445 
M838.550598,407.496368 
	C838.550598,407.496368 838.490784,407.521637 838.550598,407.496368 
z"/>
<path fill="#EF143A" opacity="1.000000" stroke="none" 
	d="
M506.504364,273.014648 
	C516.933228,280.740143 529.830261,282.145416 541.856323,285.648804 
	C570.416443,293.968781 599.091431,301.901672 627.785278,309.752533 
	C641.721863,313.565704 655.806274,316.838257 669.820862,320.366974 
	C674.401611,321.520325 677.959351,319.246307 680.085876,315.893250 
	C681.399475,313.821960 680.870850,310.437927 680.749695,307.661560 
	C680.688354,306.256683 679.695862,304.892456 679.016235,303.134155 
	C684.111023,306.286530 689.314087,309.814575 693.975830,312.975616 
	C690.339905,320.451019 686.980042,327.358765 683.336243,334.850250 
	C684.138794,334.737610 683.746521,334.926392 683.509827,334.806915 
	C658.144348,322.007294 629.981140,318.846954 603.030518,311.545441 
	C576.665955,304.402710 550.113953,297.953552 523.726929,290.890869 
	C519.347107,289.718597 515.159729,287.324097 511.302521,284.842834 
	C507.370117,282.313202 506.142975,278.062225 506.504364,273.014648 
z"/>
<path fill="#F0153A" opacity="1.000000" stroke="none" 
	d="
M706.310791,327.558228 
	C718.863464,339.244263 731.487610,350.778839 743.393066,363.012756 
	C751.401123,371.241730 760.553284,377.588470 770.734619,383.332031 
	C768.048523,387.929596 764.349548,388.289917 760.017700,385.474579 
	C740.551086,372.822876 720.299805,361.194031 705.870911,342.190948 
	C701.528748,336.472229 701.297974,334.024323 706.310791,327.558228 
z"/>
<path fill="#F0153A" opacity="1.000000" stroke="none" 
	d="
M825.265686,450.598755 
	C823.895691,449.137726 822.553833,447.314484 821.171814,445.138489 
	C822.519043,446.602631 823.906433,448.419586 825.265686,450.598755 
z"/>
<path fill="#F0153A" opacity="1.000000" stroke="none" 
	d="
M838.235718,469.775330 
	C837.936218,469.584747 837.546387,469.082581 837.058594,468.275543 
	C837.355530,468.468384 837.750488,468.966095 838.235718,469.775330 
z"/>
<path fill="#F0153A" opacity="1.000000" stroke="none" 
	d="
M836.103149,466.705261 
	C835.762512,466.527100 835.437683,466.033539 835.047241,465.249023 
	C835.360779,465.435303 835.739929,465.912598 836.103149,466.705261 
z"/>
<path fill="#F0153A" opacity="1.000000" stroke="none" 
	d="
M834.105835,463.701599 
	C833.755554,463.526093 833.428528,463.035065 833.040649,462.251770 
	C833.362915,462.434998 833.745972,462.910553 834.105835,463.701599 
z"/>
<path fill="#F0153A" opacity="1.000000" stroke="none" 
	d="
M832.118042,460.700165 
	C831.764099,460.521729 831.440125,460.025574 831.052124,459.236786 
	C831.374695,459.423584 831.761353,459.903015 832.118042,460.700165 
z"/>
<path fill="#F0153A" opacity="1.000000" stroke="none" 
	d="
M830.124390,457.701050 
	C829.772461,457.521454 829.451172,457.023193 829.057312,456.233795 
	C829.374878,456.422516 829.765015,456.902435 830.124390,457.701050 
z"/>
<path fill="#F0153A" opacity="1.000000" stroke="none" 
	d="
M828.152466,454.707733 
	C827.801880,454.529785 827.470459,454.030060 827.062622,453.237579 
	C827.381348,453.425171 827.776550,453.905548 828.152466,454.707733 
z"/>
<path fill="#F0153A" opacity="1.000000" stroke="none" 
	d="
M826.988403,452.752014 
	C826.786987,452.807556 826.527405,452.584503 826.138184,452.137939 
	C826.315674,452.100769 826.622986,452.287079 826.988403,452.752014 
z"/>
<path fill="#F0153A" opacity="1.000000" stroke="none" 
	d="
M828.986023,455.754608 
	C828.791504,455.798523 828.536804,455.563171 828.147705,455.104156 
	C828.317505,455.078796 828.621643,455.277069 828.986023,455.754608 
z"/>
<path fill="#F0153A" opacity="1.000000" stroke="none" 
	d="
M826.066040,451.694061 
	C825.827698,451.775940 825.566223,451.551697 825.162415,451.111267 
	C825.361023,451.059387 825.701904,451.223663 826.066040,451.694061 
z"/>
<path fill="#F0153A" opacity="1.000000" stroke="none" 
	d="
M830.988647,458.751709 
	C830.789185,458.803650 830.532959,458.575714 830.143188,458.127106 
	C830.317017,458.094879 830.624451,458.283386 830.988647,458.751709 
z"/>
<path fill="#F0153A" opacity="1.000000" stroke="none" 
	d="
M832.972351,461.757782 
	C832.773071,461.809723 832.516357,461.585907 832.135193,461.136597 
	C832.312073,461.101379 832.613525,461.291687 832.972351,461.757782 
z"/>
<path fill="#EF143A" opacity="1.000000" stroke="none" 
	d="
M803.031616,387.908813 
	C803.040100,387.873779 802.849548,388.082794 802.849548,388.082794 
	C802.849548,388.082794 802.936523,387.864716 802.963257,387.936279 
	C802.989990,388.007874 803.023132,387.943878 803.031616,387.908813 
z"/>
<path fill="#F0153A" opacity="1.000000" stroke="none" 
	d="
M834.973145,464.757355 
	C834.773254,464.810913 834.513855,464.590118 834.131287,464.142822 
	C834.309998,464.105225 834.611755,464.294128 834.973145,464.757355 
z"/>
<path fill="#EF143A" opacity="1.000000" stroke="none" 
	d="
M808.547852,384.474609 
	C808.518127,384.479675 808.577576,384.469574 808.547852,384.474609 
z"/>
<path fill="#F0153A" opacity="1.000000" stroke="none" 
	d="
M836.946594,467.776154 
	C836.755920,467.818604 836.505127,467.589691 836.131592,467.135559 
	C836.301453,467.108490 836.593933,467.306610 836.946594,467.776154 
z"/>
<path fill="#39344A" opacity="1.000000" stroke="none" 
	d="
M654.515076,166.343704 
	C654.497253,166.159760 654.705994,165.794556 655.052490,165.611633 
	C655.040710,165.916763 654.891235,166.039597 654.515076,166.343704 
z"/>
<path fill="#FE4766" opacity="1.000000" stroke="none" 
	d="
M838.520691,407.509003 
	C838.490784,407.521637 838.550598,407.496368 838.520691,407.509003 
z"/>
</svg>