<svg version="1.1" id="Layer_1" xmlns="http://www.w3.org/2000/svg" xmlns:xlink="http://www.w3.org/1999/xlink" x="0px" y="0px"
	 width="100%" viewBox="0 0 1080 1080" enable-background="new 0 0 1080 1080" xml:space="preserve">
<path fill="#302E3F" opacity="1.000000" stroke="none" 
	d="
M433.938202,123.986679 
	C430.893738,168.377594 427.461243,212.303024 430.428345,256.352509 
	C430.932953,256.437256 431.437561,256.521973 431.942169,256.606720 
	C432.622498,254.660187 433.358368,252.731094 433.975037,250.764618 
	C447.683380,207.051987 467.814301,166.499084 493.670441,128.712479 
	C508.934204,106.405731 526.159607,85.695839 544.086121,65.528473 
	C555.362183,52.842903 566.375732,39.912186 578.001160,27.556318 
	C581.482361,23.856403 586.499634,21.490637 591.058167,18.953829 
	C594.217346,17.195770 596.992188,18.704760 598.560913,21.748032 
	C601.149719,26.770285 604.339050,31.693981 605.777893,37.060669 
	C611.289368,57.616821 616.704224,78.226357 621.138489,99.032646 
	C623.480164,110.020439 624.089294,121.430893 624.837036,132.693253 
	C626.170105,152.772598 627.010376,172.884598 628.065186,192.982483 
	C629.006592,210.918625 630.424377,228.846283 630.727295,246.792953 
	C630.900391,257.048859 629.243896,267.333557 628.465942,277.609436 
	C628.323792,279.487305 628.445679,281.385132 628.445679,283.273743 
	C628.957764,283.533203 629.469788,283.792694 629.981873,284.052155 
	C633.050110,279.314667 636.902954,274.905121 639.045044,269.780548 
	C646.613037,251.675705 654.248352,233.551865 660.655823,215.019562 
	C671.950989,182.350784 678.658752,148.558548 682.722595,114.263100 
	C684.149963,102.216942 684.740112,90.071396 686.178345,78.026855 
	C686.476074,75.533607 688.296387,72.352890 690.376892,71.142807 
	C693.606262,69.264549 696.158020,72.135544 697.431274,74.895363 
	C704.950134,91.192162 714.229370,107.002914 719.267578,124.055206 
	C732.890137,170.161438 744.937378,216.742355 757.020081,263.287994 
	C760.136536,275.293427 761.069702,287.864685 763.033997,300.171509 
	C763.280579,301.716705 763.700256,303.234283 765.140198,304.862976 
	C767.393738,299.377380 769.694336,293.910583 771.892456,288.402893 
	C780.961914,265.678467 790.157104,243.048157 795.492920,218.992676 
	C801.096069,193.732010 801.505554,168.540710 797.276672,143.141296 
	C797.004028,141.503723 797.297363,139.709686 796.758667,138.190079 
	C795.012085,133.263519 797.184326,130.605453 801.563171,128.955505 
	C806.284302,127.176544 808.033325,130.864594 809.546387,133.796951 
	C816.568054,147.405151 823.811523,160.934296 830.041077,174.908371 
	C842.170044,202.116196 854.085144,229.436234 865.263916,257.043793 
	C870.869324,270.887268 874.607361,285.482666 879.289978,299.705078 
	C884.286865,314.881897 889.983032,329.855682 894.322510,345.215149 
	C900.149719,365.840576 904.818420,386.790833 910.326416,407.510742 
	C911.698059,412.670502 914.359802,417.491058 916.479675,422.445679 
	C917.001404,423.665039 917.962402,424.737091 918.284729,425.989288 
	C918.588196,427.168213 918.791565,428.920929 918.155945,429.632050 
	C917.575500,430.281555 915.709534,430.210083 914.589661,429.868256 
	C911.413269,428.898712 908.272156,427.760773 905.216736,426.456116 
	C865.724854,409.593048 826.665955,391.617798 786.653503,376.100128 
	C747.356812,360.860016 706.611206,349.875183 664.895874,343.058929 
	C639.948364,338.982483 615.012512,334.734253 589.952637,331.477386 
	C570.177979,328.907440 550.233398,327.591034 530.343262,325.977081 
	C508.957642,324.241730 487.569122,322.118469 466.141663,321.446930 
	C446.544952,320.832764 426.871582,321.464233 407.275543,322.430573 
	C393.020721,323.133514 378.705933,324.518677 364.651154,326.948730 
	C341.897949,330.882751 319.181488,335.278015 296.730957,340.653870 
	C265.090424,348.230255 234.753952,359.852905 205.019562,372.989471 
	C200.176544,375.129120 195.739090,378.343628 189.113205,376.434814 
	C190.770081,370.970734 192.188278,365.413666 194.136169,360.048920 
	C198.507614,348.009369 201.751709,335.267548 208.045639,324.298218 
	C214.861893,312.418610 219.636353,299.979980 223.378464,287.144409 
	C234.007538,250.686203 248.815460,215.952133 266.172241,182.328110 
	C276.390259,162.533432 288.172089,143.546860 299.196014,124.165779 
	C300.087555,122.598404 300.239532,120.543709 301.313477,119.166443 
	C302.292664,117.910767 304.005524,116.736946 305.500397,116.588608 
	C306.206146,116.518578 307.895386,118.936607 307.888275,120.220375 
	C307.784027,139.034973 307.308197,157.847900 307.247162,176.662262 
	C307.182892,196.472061 307.005341,216.301239 307.787231,236.085968 
	C308.198639,246.495636 310.513367,256.834473 312.067108,267.190521 
	C312.349304,269.071167 313.108490,270.880188 314.023224,274.006653 
	C316.750458,264.899780 319.159180,257.207581 321.358002,249.455826 
	C333.606415,206.275177 354.419464,167.343918 381.040894,131.533722 
	C392.232452,116.479218 405.136017,102.694611 417.317413,88.380447 
	C421.196350,83.822319 425.350677,79.497459 429.199402,74.915016 
	C431.672638,71.970261 434.351257,70.012840 438.232056,71.851746 
	C442.241272,73.751488 440.508514,76.951515 440.043030,80.080109 
	C437.890961,94.544449 435.968384,109.042938 433.938202,123.986679 
M222.773071,317.758209 
	C222.773071,317.758209 222.708038,317.788788 222.125748,317.332397 
	C221.833649,318.221375 221.541550,319.110321 220.980728,320.674286 
	C220.747299,322.327515 220.513885,323.980713 219.961136,326.365479 
	C213.768219,339.763733 207.575317,353.161987 201.382401,366.560242 
	C221.075378,350.748291 245.547501,345.056763 267.579651,334.385040 
	C269.052277,333.671753 270.724640,333.320007 272.339691,332.959625 
	C283.830872,330.395874 295.484863,328.419342 306.800079,325.235931 
	C340.844269,315.657898 375.750000,312.503967 410.830719,310.817749 
	C430.448395,309.874847 450.128265,310.280273 469.756714,309.493958 
	C500.646088,308.256561 531.300293,310.928040 561.886108,314.522034 
	C577.885559,316.402100 593.730591,319.558289 609.697021,321.764252 
	C645.263611,326.678192 680.837402,331.489380 715.681396,340.486084 
	C758.740540,351.604004 800.631897,366.026703 841.118774,384.485443 
	C858.649414,392.477997 876.269043,400.275391 894.035034,408.551239 
	C894.210144,408.200409 894.385193,407.849579 894.400085,406.747681 
	C893.694702,403.226959 892.753296,399.732727 892.354553,396.177612 
	C892.000366,393.019562 892.949219,389.586823 892.079285,386.642853 
	C890.440918,381.098846 887.598206,375.919922 885.807556,370.410004 
	C881.603516,357.474121 877.582642,344.474426 873.742004,331.425629 
	C864.035339,298.446442 855.085205,265.301453 840.084473,234.047836 
	C830.616150,214.320862 823.565735,193.433380 815.326050,172.704941 
	C813.190796,167.013657 811.055542,161.322357 808.920227,155.631058 
	C808.179016,157.936127 808.301208,159.920395 808.519043,161.894104 
	C810.723999,181.875732 809.908630,201.647400 805.477661,221.342331 
	C801.185974,240.417877 794.332153,258.521271 786.513123,276.353271 
	C783.090332,284.159302 780.227844,292.210938 776.975342,300.850800 
	C769.846375,312.220215 766.079895,326.151520 752.719299,333.527740 
	C752.302612,332.194336 752.038513,331.604980 751.937500,330.988861 
	C749.437195,315.737305 747.550781,300.355774 744.333801,285.257538 
	C738.970337,260.085022 733.090454,235.009827 726.820190,210.046326 
	C718.284241,176.062515 709.177063,142.222183 700.228333,107.815742 
	C698.278748,101.337723 696.329163,94.859703 694.397461,88.081665 
	C694.141907,87.547394 693.886353,87.013123 693.433777,86.066986 
	C693.433777,95.125786 693.433777,103.639885 693.291077,113.309021 
	C693.016602,119.297462 693.179199,125.343605 692.397522,131.265076 
	C686.965088,172.415924 676.081238,212.184189 660.772095,250.693893 
	C653.893555,267.996674 644.820129,284.098297 628.939941,295.151459 
	C625.817322,297.324860 622.838257,299.704498 619.052734,302.201141 
	C618.298889,301.971222 616.961548,301.868195 616.879822,301.492096 
	C615.861694,296.809998 614.520691,292.119202 614.229553,287.371338 
	C612.867798,265.166290 611.950806,242.934067 610.601685,220.728165 
	C609.180542,197.337402 606.491638,173.981232 606.106873,150.581161 
	C605.668396,123.919853 604.866760,97.412941 599.921570,71.136520 
	C597.716064,59.417324 596.084290,47.590141 594.202332,35.123383 
	C594.004272,34.236622 593.806213,33.349865 593.473572,31.860292 
	C588.000427,36.554867 582.612427,40.528267 577.983154,45.246246 
	C524.243164,100.016716 482.351624,162.803833 451.500153,233.003204 
	C451.220184,233.640244 451.769562,234.641785 451.364349,235.964706 
	C447.297577,245.349960 443.546600,254.889435 439.062805,264.071045 
	C435.556671,271.250580 431.141693,277.986328 427.130554,284.919250 
	C426.584595,284.752045 426.038605,284.584839 425.492615,284.417633 
	C424.643646,282.310455 423.410492,280.273590 423.009796,278.084412 
	C420.859619,266.337494 417.751556,254.610016 417.168640,242.767792 
	C416.237671,223.853592 416.578735,204.838760 417.234863,185.896011 
	C417.799164,169.604218 419.361603,153.335999 420.848724,137.090851 
	C421.953064,125.026894 423.643677,113.016602 424.984772,101.005737 
	C424.984772,101.005737 425.007751,101.094254 425.560699,100.923157 
	C425.603455,100.546074 425.646210,100.168991 425.892029,99.154053 
	C426.243164,97.573151 426.594299,95.992256 426.995514,94.185898 
	C426.248474,94.395927 425.862701,94.388115 425.674133,94.577103 
	C424.736877,95.516258 423.827789,96.486374 422.951385,97.483009 
	C373.901123,153.260117 339.988800,217.279327 319.111725,288.376190 
	C318.184875,291.532562 317.828308,294.856415 316.957825,298.859192 
	C316.738831,300.235382 316.519867,301.611603 316.300873,302.987823 
	C315.848846,303.233307 315.396820,303.478821 314.944763,303.724304 
	C312.557037,300.998169 309.743011,298.535767 307.862335,295.495911 
	C302.457581,286.759857 302.149872,276.560089 300.428802,266.812256 
	C296.485016,244.475708 294.916840,222.026871 296.584961,199.310623 
	C297.862427,181.914078 298.148254,164.444717 298.995087,146.390472 
	C299.235352,144.425247 299.475616,142.460022 299.715881,140.494797 
	C295.223633,146.274704 291.651733,152.242264 288.365814,158.363297 
	C270.064178,192.455368 256.335205,228.574524 241.820374,264.326874 
	C236.230179,278.096375 231.874481,292.367065 226.493790,306.705322 
	C226.589767,307.007599 226.685730,307.309845 225.917831,308.471008 
	C226.175217,308.785065 226.432617,309.099152 226.813187,309.366028 
	C226.813187,309.366028 226.763504,309.243835 225.695541,308.853424 
	C225.711288,309.510315 225.727036,310.167206 225.962021,310.981995 
	C225.962021,310.981995 225.737213,310.821747 224.771576,310.652283 
	C224.473160,312.070740 224.174759,313.489166 223.876358,314.907623 
	C224.480576,314.633270 225.084793,314.358917 225.408524,313.977814 
	C225.408524,313.977814 225.174988,314.325684 225.174988,314.325684 
	C225.174988,314.325684 225.441101,314.619812 224.158188,313.653809 
	C224.015747,314.554504 223.873322,315.455170 223.801651,316.310059 
	C223.801651,316.310059 223.753571,316.240845 222.681671,315.815155 
	C222.698044,316.481842 222.714417,317.148499 222.773071,317.758209 
z"/>
<path fill="#FDD001" opacity="1.000000" stroke="none" 
	d="
M225.441101,314.619812 
	C225.441101,314.619812 225.174988,314.325684 225.174988,314.325684 
	C225.174988,314.325684 225.408524,313.977814 225.761505,313.463928 
	C225.988724,312.240601 225.862961,311.531158 225.737213,310.821747 
	C225.737213,310.821747 225.962021,310.981995 226.306900,310.969421 
	C226.689026,310.385864 226.726257,309.814850 226.763504,309.243835 
	C226.763504,309.243835 226.813187,309.366028 227.189926,309.244690 
	C227.305008,308.619629 227.043350,308.115875 226.781708,307.612122 
	C226.685730,307.309845 226.589767,307.007599 226.931854,307.033325 
	C228.204666,306.434235 229.348938,305.643860 229.827820,304.559601 
	C237.277328,287.693207 244.628235,270.783386 252.026474,253.894302 
	C267.635101,218.262131 283.258057,182.636215 298.875153,147.007736 
	C298.148254,164.444717 297.862427,181.914078 296.584961,199.310623 
	C294.916840,222.026871 296.485016,244.475708 300.428802,266.812256 
	C302.149872,276.560089 302.457581,286.759857 307.862335,295.495911 
	C309.743011,298.535767 312.557037,300.998169 314.944763,303.724304 
	C315.396820,303.478821 315.848846,303.233307 316.300873,302.987823 
	C316.519867,301.611603 316.738831,300.235382 317.383484,298.317993 
	C318.745575,296.240753 320.023041,294.816345 320.568054,293.152069 
	C330.833160,261.806580 342.656616,231.097900 359.249573,202.493866 
	C372.849457,179.049500 386.670319,155.713043 401.158112,132.812683 
	C408.230469,121.633629 417.046448,111.557671 425.073181,100.982414 
	C423.643677,113.016602 421.953064,125.026894 420.848724,137.090851 
	C419.361603,153.335999 417.799164,169.604218 417.234863,185.896011 
	C416.578735,204.838760 416.237671,223.853592 417.168640,242.767792 
	C417.751556,254.610016 420.859619,266.337494 423.009796,278.084412 
	C423.410492,280.273590 424.643646,282.310455 425.492615,284.417633 
	C426.038605,284.584839 426.584595,284.752045 427.130554,284.919250 
	C431.141693,277.986328 435.556671,271.250580 439.062805,264.071045 
	C443.546600,254.889435 447.297577,245.349960 451.906769,235.544006 
	C454.629822,231.406616 456.922241,227.750381 458.971252,223.962479 
	C466.734314,209.611496 474.075287,195.020584 482.201691,180.880096 
	C500.661774,148.758377 522.076416,118.640259 544.838562,89.428032 
	C559.836670,70.179886 576.378723,52.429943 594.192139,35.811970 
	C596.084290,47.590141 597.716064,59.417324 599.921570,71.136520 
	C604.866760,97.412941 605.668396,123.919853 606.106873,150.581161 
	C606.491638,173.981232 609.180542,197.337402 610.601685,220.728165 
	C611.950806,242.934067 612.867798,265.166290 614.229553,287.371338 
	C614.520691,292.119202 615.861694,296.809998 616.879822,301.492096 
	C616.961548,301.868195 618.298889,301.971222 619.685181,302.479004 
	C622.566833,302.518829 625.442139,303.083374 626.955811,301.902527 
	C633.194153,297.035889 639.708374,292.229065 644.803223,286.272888 
	C649.946472,280.260132 653.911438,273.119263 657.696350,266.097321 
	C661.791199,258.500366 665.865906,250.728546 668.557678,242.573608 
	C674.130371,225.690338 679.061279,208.579193 683.746277,191.422546 
	C691.201416,164.121796 699.186096,136.895157 700.314880,108.320328 
	C709.177063,142.222183 718.284241,176.062515 726.820190,210.046326 
	C733.090454,235.009827 738.970337,260.085022 744.333801,285.257538 
	C747.550781,300.355774 749.437195,315.737305 751.937500,330.988861 
	C752.038513,331.604980 752.302612,332.194336 752.719299,333.527740 
	C766.079895,326.151520 769.846375,312.220215 777.399414,300.472656 
	C778.466553,299.428741 779.318848,298.869476 779.720398,298.080688 
	C783.716553,290.230072 787.815796,282.424652 791.549988,274.449188 
	C806.586426,242.334427 814.795288,208.585968 815.430725,173.066452 
	C823.565735,193.433380 830.616150,214.320862 840.084473,234.047836 
	C855.085205,265.301453 864.035339,298.446442 873.742004,331.425629 
	C877.582642,344.474426 881.603516,357.474121 885.807556,370.410004 
	C887.598206,375.919922 890.440918,381.098846 892.079285,386.642853 
	C892.949219,389.586823 892.000366,393.019562 892.354553,396.177612 
	C892.753296,399.732727 893.694702,403.226959 894.299316,407.285767 
	C894.198547,407.823883 893.848267,408.161377 893.848267,408.161377 
	C876.269043,400.275391 858.649414,392.477997 841.118774,384.485443 
	C800.631897,366.026703 758.740540,351.604004 715.681396,340.486084 
	C680.837402,331.489380 645.263611,326.678192 609.697021,321.764252 
	C593.730591,319.558289 577.885559,316.402100 561.886108,314.522034 
	C531.300293,310.928040 500.646088,308.256561 469.756714,309.493958 
	C450.128265,310.280273 430.448395,309.874847 410.830719,310.817749 
	C375.750000,312.503967 340.844269,315.657898 306.800079,325.235931 
	C295.484863,328.419342 283.830872,330.395874 272.339691,332.959625 
	C270.724640,333.320007 269.052277,333.671753 267.579651,334.385040 
	C245.547501,345.056763 221.075378,350.748291 201.382401,366.560242 
	C207.575317,353.161987 213.768219,339.763733 220.149643,325.691956 
	C221.179810,323.347534 222.021469,321.676636 223.071472,319.598206 
	C223.089233,318.723328 222.898636,318.256073 222.708038,317.788788 
	C222.708038,317.788788 222.773071,317.758209 223.203125,317.845825 
	C223.673294,317.369263 223.713425,316.805054 223.753571,316.240845 
	C223.753571,316.240845 223.801651,316.310059 224.199371,316.241638 
	C224.878433,315.655457 225.159775,315.137634 225.441101,314.619812 
M574.642639,213.084564 
	C575.952209,202.867477 577.841858,192.683517 578.427979,182.425079 
	C579.200989,168.894089 578.230835,155.378967 571.601501,143.082062 
	C565.233765,131.270508 553.831665,128.150085 543.149597,136.221115 
	C537.051941,140.828232 531.435059,146.851089 527.475281,153.373886 
	C509.856384,182.396927 503.033142,214.263351 505.172028,247.991089 
	C505.782410,257.615723 507.958038,267.125183 514.140137,275.086456 
	C519.814453,282.393707 528.295227,284.875641 536.319824,280.335388 
	C541.546204,277.378357 546.545532,273.289795 550.322388,268.633942 
	C563.284485,252.655502 569.864380,233.678116 574.642639,213.084564 
M386.655334,275.114136 
	C397.527344,259.190491 403.325256,241.508286 403.304047,222.312698 
	C403.296204,215.222946 401.748505,207.732529 399.096680,201.152908 
	C395.988190,193.440140 388.545349,191.067230 381.277252,195.147705 
	C375.344879,198.478241 369.284943,202.694611 365.204559,207.997818 
	C353.889954,222.703156 349.988403,240.255753 349.134094,258.454132 
	C348.743103,266.782227 349.725037,275.088715 354.441040,282.390228 
	C358.719421,289.014130 365.828369,291.619965 372.532837,287.658722 
	C377.659760,284.629547 381.686127,279.737701 386.655334,275.114136 
M671.931396,284.458801 
	C672.527954,289.059387 672.801575,293.731079 673.795776,298.244049 
	C675.336853,305.239502 678.605530,311.444000 686.344299,312.813110 
	C693.609619,314.098389 698.573853,309.449371 702.728699,304.225494 
	C714.491211,289.436432 719.117126,272.023590 719.855713,253.622742 
	C720.142273,246.484207 718.845154,239.007538 716.800903,232.120819 
	C714.349426,223.861938 709.350952,221.743332 700.940247,223.178833 
	C692.581482,224.605499 687.402893,230.122070 683.688354,237.037796 
	C675.919922,251.501297 672.190125,267.083405 671.931396,284.458801 
M251.233521,267.815765 
	C245.102844,278.928772 242.676620,290.842072 243.965485,303.425079 
	C244.534424,308.979340 246.139313,314.264923 251.504639,317.323517 
	C257.415070,320.692841 264.354889,318.851166 270.024536,312.298035 
	C276.367035,304.967194 280.168182,296.405426 282.091858,286.932251 
	C283.697845,279.023346 284.394531,271.120148 282.071655,263.262878 
	C279.611847,254.942551 273.574707,252.383041 265.490540,255.541367 
	C259.459320,257.897644 255.024567,261.856262 251.233521,267.815765 
M807.493530,301.080902 
	C806.799133,303.293610 806.014282,305.482574 805.425659,307.723114 
	C802.600830,318.474945 803.598755,328.814545 809.347229,338.422058 
	C814.682800,347.339539 823.537048,348.557098 831.137146,341.664429 
	C843.510315,330.442932 847.932617,305.035309 840.056396,290.420013 
	C835.084717,281.194489 823.866333,279.149628 816.678406,286.767761 
	C813.023010,290.641998 810.720459,295.792572 807.493530,301.080902 
z"/>
<path fill="#ECF0EB" opacity="1.000000" stroke="none" 
	d="
M425.028992,100.994080 
	C417.046448,111.557671 408.230469,121.633629 401.158112,132.812683 
	C386.670319,155.713043 372.849457,179.049500 359.249573,202.493866 
	C342.656616,231.097900 330.833160,261.806580 320.568054,293.152069 
	C320.023041,294.816345 318.745575,296.240753 317.507629,297.939514 
	C317.828308,294.856415 318.184875,291.532562 319.111725,288.376190 
	C339.988800,217.279327 373.901123,153.260117 422.951385,97.483009 
	C423.827789,96.486374 424.736877,95.516258 425.674133,94.577103 
	C425.862701,94.388115 426.248474,94.395927 426.995514,94.185898 
	C426.594299,95.992256 426.243164,97.573151 425.588715,99.637589 
	C425.192841,100.445496 425.100281,100.769875 425.007751,101.094254 
	C425.007751,101.094254 424.984772,101.005737 425.028992,100.994080 
z"/>
<path fill="#ECF0EB" opacity="1.000000" stroke="none" 
	d="
M594.197205,35.467678 
	C576.378723,52.429943 559.836670,70.179886 544.838562,89.428032 
	C522.076416,118.640259 500.661774,148.758377 482.201691,180.880096 
	C474.075287,195.020584 466.734314,209.611496 458.971252,223.962479 
	C456.922241,227.750381 454.629822,231.406616 452.190460,235.298233 
	C451.769562,234.641785 451.220184,233.640244 451.500153,233.003204 
	C482.351624,162.803833 524.243164,100.016716 577.983154,45.246246 
	C582.612427,40.528267 588.000427,36.554867 593.473572,31.860292 
	C593.806213,33.349865 594.004272,34.236622 594.197205,35.467678 
z"/>
<path fill="#ECF0EB" opacity="1.000000" stroke="none" 
	d="
M700.271606,108.068039 
	C699.186096,136.895157 691.201416,164.121796 683.746277,191.422546 
	C679.061279,208.579193 674.130371,225.690338 668.557678,242.573608 
	C665.865906,250.728546 661.791199,258.500366 657.696350,266.097321 
	C653.911438,273.119263 649.946472,280.260132 644.803223,286.272888 
	C639.708374,292.229065 633.194153,297.035889 626.955811,301.902527 
	C625.442139,303.083374 622.566833,302.518829 620.055298,302.372925 
	C622.838257,299.704498 625.817322,297.324860 628.939941,295.151459 
	C644.820129,284.098297 653.893555,267.996674 660.772095,250.693893 
	C676.081238,212.184189 686.965088,172.415924 692.397522,131.265076 
	C693.179199,125.343605 693.016602,119.297462 693.496338,112.563538 
	C693.927551,104.005936 694.153564,96.193810 694.379578,88.381691 
	C696.329163,94.859703 698.278748,101.337723 700.271606,108.068039 
z"/>
<path fill="#EFF3F0" opacity="1.000000" stroke="none" 
	d="
M298.935120,146.699097 
	C283.258057,182.636215 267.635101,218.262131 252.026474,253.894302 
	C244.628235,270.783386 237.277328,287.693207 229.827820,304.559601 
	C229.348938,305.643860 228.204666,306.434235 227.163116,306.885376 
	C231.874481,292.367065 236.230179,278.096375 241.820374,264.326874 
	C256.335205,228.574524 270.064178,192.455368 288.365814,158.363297 
	C291.651733,152.242264 295.223633,146.274704 299.715881,140.494797 
	C299.475616,142.460022 299.235352,144.425247 298.935120,146.699097 
z"/>
<path fill="#ECF0EB" opacity="1.000000" stroke="none" 
	d="
M815.378418,172.885696 
	C814.795288,208.585968 806.586426,242.334427 791.549988,274.449188 
	C787.815796,282.424652 783.716553,290.230072 779.720398,298.080688 
	C779.318848,298.869476 778.466553,299.428741 777.467163,300.122803 
	C780.227844,292.210938 783.090332,284.159302 786.513123,276.353271 
	C794.332153,258.521271 801.185974,240.417877 805.477661,221.342331 
	C809.908630,201.647400 810.723999,181.875732 808.519043,161.894104 
	C808.301208,159.920395 808.179016,157.936127 808.920227,155.631058 
	C811.055542,161.322357 813.190796,167.013657 815.378418,172.885696 
z"/>
<path fill="#A2FC4A" opacity="1.000000" stroke="none" 
	d="
M694.388550,88.231674 
	C694.153564,96.193810 693.927551,104.005936 693.567627,111.986023 
	C693.433777,103.639885 693.433777,95.125786 693.433777,86.066986 
	C693.886353,87.013123 694.141907,87.547394 694.388550,88.231674 
z"/>
<path fill="#ECF0EB" opacity="1.000000" stroke="none" 
	d="
M222.863129,320.005768 
	C222.021469,321.676636 221.179810,323.347534 220.309296,325.326172 
	C220.513885,323.980713 220.747299,322.327515 221.384064,320.332397 
	C222.145966,319.995575 222.504547,320.000671 222.863129,320.005768 
z"/>
<path fill="#EFF3F0" opacity="1.000000" stroke="none" 
	d="
M225.254395,310.737000 
	C225.862961,311.531158 225.988724,312.240601 225.901749,313.517303 
	C225.084793,314.358917 224.480576,314.633270 223.876358,314.907623 
	C224.174759,313.489166 224.473160,312.070740 225.254395,310.737000 
z"/>
<path fill="#EFF3F0" opacity="1.000000" stroke="none" 
	d="
M223.071472,319.598206 
	C222.504547,320.000671 222.145966,319.995575 221.518417,319.994873 
	C221.541550,319.110321 221.833649,318.221375 222.416901,317.560608 
	C222.898636,318.256073 223.089233,318.723328 223.071472,319.598206 
z"/>
<path fill="#FDD001" opacity="1.000000" stroke="none" 
	d="
M894.379395,407.661316 
	C894.385193,407.849579 894.210144,408.200409 893.941650,408.356323 
	C893.848267,408.161377 894.198547,407.823883 894.379395,407.661316 
z"/>
<path fill="#EFF3F0" opacity="1.000000" stroke="none" 
	d="
M223.217621,316.028015 
	C223.713425,316.805054 223.673294,317.369263 223.181976,317.874329 
	C222.714417,317.148499 222.698044,316.481842 223.217621,316.028015 
z"/>
<path fill="#EFF3F0" opacity="1.000000" stroke="none" 
	d="
M224.799652,314.136810 
	C225.159775,315.137634 224.878433,315.655457 224.164001,316.264557 
	C223.873322,315.455170 224.015747,314.554504 224.799652,314.136810 
z"/>
<path fill="#EFF3F0" opacity="1.000000" stroke="none" 
	d="
M226.229523,309.048645 
	C226.726257,309.814850 226.689026,310.385864 226.197281,310.890503 
	C225.727036,310.167206 225.711288,309.510315 226.229523,309.048645 
z"/>
<path fill="#EFF3F0" opacity="1.000000" stroke="none" 
	d="
M226.349762,308.041565 
	C227.043350,308.115875 227.305008,308.619629 227.128342,309.268311 
	C226.432617,309.099152 226.175217,308.785065 226.349762,308.041565 
z"/>
<path fill="#FDD001" opacity="1.000000" stroke="none" 
	d="
M425.284241,101.008705 
	C425.100281,100.769875 425.192841,100.445496 425.487183,99.956512 
	C425.646210,100.168991 425.603455,100.546074 425.284241,101.008705 
z"/>
<path fill="#343041" opacity="1.000000" stroke="none" 
	d="
M574.500488,213.480225 
	C569.864380,233.678116 563.284485,252.655502 550.322388,268.633942 
	C546.545532,273.289795 541.546204,277.378357 536.319824,280.335388 
	C528.295227,284.875641 519.814453,282.393707 514.140137,275.086456 
	C507.958038,267.125183 505.782410,257.615723 505.172028,247.991089 
	C503.033142,214.263351 509.856384,182.396927 527.475281,153.373886 
	C531.435059,146.851089 537.051941,140.828232 543.149597,136.221115 
	C553.831665,128.150085 565.233765,131.270508 571.601501,143.082062 
	C578.230835,155.378967 579.200989,168.894089 578.427979,182.425079 
	C577.841858,192.683517 575.952209,202.867477 574.500488,213.480225 
M521.140137,270.452240 
	C526.306152,274.995239 531.009216,275.758667 536.119446,270.721680 
	C542.073853,264.852661 547.862305,258.298828 551.814209,251.007675 
	C565.839966,225.130875 571.607178,197.172745 569.725586,167.805511 
	C569.197205,159.558777 567.781494,151.251846 561.978271,143.866852 
	C557.357056,139.469833 553.517151,138.355515 548.783752,142.474487 
	C542.866699,147.623535 536.975647,153.466278 533.099121,160.179321 
	C517.908203,186.485596 511.632874,215.172729 513.324463,245.461823 
	C513.802856,254.027664 514.935303,262.734558 521.140137,270.452240 
z"/>
<path fill="#343041" opacity="1.000000" stroke="none" 
	d="
M386.428650,275.394257 
	C381.686127,279.737701 377.659760,284.629547 372.532837,287.658722 
	C365.828369,291.619965 358.719421,289.014130 354.441040,282.390228 
	C349.725037,275.088715 348.743103,266.782227 349.134094,258.454132 
	C349.988403,240.255753 353.889954,222.703156 365.204559,207.997818 
	C369.284943,202.694611 375.344879,198.478241 381.277252,195.147705 
	C388.545349,191.067230 395.988190,193.440140 399.096680,201.152908 
	C401.748505,207.732529 403.296204,215.222946 403.304047,222.312698 
	C403.325256,241.508286 397.527344,259.190491 386.428650,275.394257 
M360.375946,277.740570 
	C364.513885,282.524780 366.626648,282.905792 371.851685,279.584290 
	C373.380524,278.612427 374.896240,277.497437 376.106140,276.164886 
	C391.272522,259.461029 397.277344,239.285980 397.366425,217.254990 
	C397.386627,212.257965 394.615936,207.249680 392.899139,201.654694 
	C389.616028,197.847809 385.825714,198.138199 382.354004,200.977112 
	C379.695526,203.150986 377.264587,205.797089 375.343475,208.645279 
	C366.888367,221.180893 360.926910,234.852585 358.361908,249.789764 
	C356.788116,258.954651 355.690826,268.263580 360.375946,277.740570 
z"/>
<path fill="#343041" opacity="1.000000" stroke="none" 
	d="
M671.932678,283.977661 
	C672.190125,267.083405 675.919922,251.501297 683.688354,237.037796 
	C687.402893,230.122070 692.581482,224.605499 700.940247,223.178833 
	C709.350952,221.743332 714.349426,223.861938 716.800903,232.120819 
	C718.845154,239.007538 720.142273,246.484207 719.855713,253.622742 
	C719.117126,272.023590 714.491211,289.436432 702.728699,304.225494 
	C698.573853,309.449371 693.609619,314.098389 686.344299,312.813110 
	C678.605530,311.444000 675.336853,305.239502 673.795776,298.244049 
	C672.801575,293.731079 672.527954,289.059387 671.932678,283.977661 
M705.991821,227.209534 
	C704.201233,228.012604 701.806274,228.330048 700.711670,229.692337 
	C686.751099,247.067093 679.598511,266.947021 680.380493,289.274689 
	C680.565674,294.563202 682.832581,299.806030 684.402771,304.990875 
	C684.649841,305.806763 686.289062,306.201080 688.104431,306.980743 
	C691.384521,304.988129 695.673401,303.739441 697.780701,300.881958 
	C711.271301,282.588379 715.954529,261.759705 713.573853,239.355255 
	C713.078735,234.695847 711.745300,229.763382 705.991821,227.209534 
z"/>
<path fill="#343041" opacity="1.000000" stroke="none" 
	d="
M251.435806,267.510712 
	C255.024567,261.856262 259.459320,257.897644 265.490540,255.541367 
	C273.574707,252.383041 279.611847,254.942551 282.071655,263.262878 
	C284.394531,271.120148 283.697845,279.023346 282.091858,286.932251 
	C280.168182,296.405426 276.367035,304.967194 270.024536,312.298035 
	C264.354889,318.851166 257.415070,320.692841 251.504639,317.323517 
	C246.139313,314.264923 244.534424,308.979340 243.965485,303.425079 
	C242.676620,290.842072 245.102844,278.928772 251.435806,267.510712 
M255.350677,308.872772 
	C258.151825,313.106812 260.711090,309.995911 262.606842,308.206055 
	C270.079956,301.150391 273.760864,291.961487 275.868500,282.167084 
	C277.140686,276.255188 278.388672,270.143738 274.894135,263.741760 
	C271.538483,259.941345 269.578461,259.854095 266.804932,263.949921 
	C260.786957,272.837097 255.713821,282.298676 254.313583,293.054169 
	C253.675385,297.956360 254.844147,303.093750 255.350677,308.872772 
z"/>
<path fill="#343041" opacity="1.000000" stroke="none" 
	d="
M807.649963,300.723572 
	C810.720459,295.792572 813.023010,290.641998 816.678406,286.767761 
	C823.866333,279.149628 835.084717,281.194489 840.056396,290.420013 
	C847.932617,305.035309 843.510315,330.442932 831.137146,341.664429 
	C823.537048,348.557098 814.682800,347.339539 809.347229,338.422058 
	C803.598755,328.814545 802.600830,318.474945 805.425659,307.723114 
	C806.014282,305.482574 806.799133,303.293610 807.649963,300.723572 
M834.549866,293.272400 
	C830.057312,288.370728 828.361084,288.062897 823.728027,291.540009 
	C822.412720,292.527130 821.072632,293.636658 820.153625,294.972046 
	C811.959717,306.878082 809.971130,319.832184 813.998779,334.450531 
	C818.307068,342.336914 823.422180,343.142670 829.617065,336.910828 
	C839.312561,327.157532 841.898254,305.404602 834.549866,293.272400 
z"/>
<path fill="#FE71C5" opacity="1.000000" stroke="none" 
	d="
M562.229736,144.452652 
	C567.781494,151.251846 569.197205,159.558777 569.725586,167.805511 
	C571.607178,197.172745 565.839966,225.130875 551.814209,251.007675 
	C547.862305,258.298828 542.073853,264.852661 536.119446,270.721680 
	C531.009216,275.758667 526.306152,274.995239 520.912781,269.719208 
	C517.949707,249.439011 519.623230,230.115784 524.341797,211.092316 
	C529.147156,191.718674 536.399292,173.381256 549.851257,158.115311 
	C553.913757,153.504990 558.100098,149.003830 562.229736,144.452652 
z"/>
<path fill="#F2F5F9" opacity="1.000000" stroke="none" 
	d="
M562.104004,144.159760 
	C558.100098,149.003830 553.913757,153.504990 549.851257,158.115311 
	C536.399292,173.381256 529.147156,191.718674 524.341797,211.092316 
	C519.623230,230.115784 517.949707,249.439011 520.783325,269.374573 
	C514.935303,262.734558 513.802856,254.027664 513.324463,245.461823 
	C511.632874,215.172729 517.908203,186.485596 533.099121,160.179321 
	C536.975647,153.466278 542.866699,147.623535 548.783752,142.474487 
	C553.517151,138.355515 557.357056,139.469833 562.104004,144.159760 
z"/>
<path fill="#4A71FD" opacity="1.000000" stroke="none" 
	d="
M393.129883,202.246567 
	C394.615936,207.249680 397.386627,212.257965 397.366425,217.254990 
	C397.277344,239.285980 391.272522,259.461029 376.106140,276.164886 
	C374.896240,277.497437 373.380524,278.612427 371.851685,279.584290 
	C366.626648,282.905792 364.513885,282.524780 360.520264,277.074890 
	C361.169403,271.626251 361.448486,266.806671 362.217255,262.066559 
	C365.994873,238.774719 377.633728,219.504501 393.129883,202.246567 
z"/>
<path fill="#ECF2F8" opacity="1.000000" stroke="none" 
	d="
M393.014526,201.950623 
	C377.633728,219.504501 365.994873,238.774719 362.217255,262.066559 
	C361.448486,266.806671 361.169403,271.626251 360.434143,276.754211 
	C355.690826,268.263580 356.788116,258.954651 358.361908,249.789764 
	C360.926910,234.852585 366.888367,221.180893 375.343475,208.645279 
	C377.264587,205.797089 379.695526,203.150986 382.354004,200.977112 
	C385.825714,198.138199 389.616028,197.847809 393.014526,201.950623 
z"/>
<path fill="#4A71FD" opacity="1.000000" stroke="none" 
	d="
M706.551941,227.523651 
	C711.745300,229.763382 713.078735,234.695847 713.573853,239.355255 
	C715.954529,261.759705 711.271301,282.588379 697.780701,300.881958 
	C695.673401,303.739441 691.384521,304.988129 687.758728,306.478394 
	C687.185425,297.378021 685.899780,288.648987 686.945251,280.208710 
	C689.296448,261.226959 696.905396,243.932388 706.551941,227.523651 
z"/>
<path fill="#ECF2F8" opacity="1.000000" stroke="none" 
	d="
M706.271851,227.366592 
	C696.905396,243.932388 689.296448,261.226959 686.945251,280.208710 
	C685.899780,288.648987 687.185425,297.378021 687.348816,306.383179 
	C686.289062,306.201080 684.649841,305.806763 684.402771,304.990875 
	C682.832581,299.806030 680.565674,294.563202 680.380493,289.274689 
	C679.598511,266.947021 686.751099,247.067093 700.711670,229.692337 
	C701.806274,228.330048 704.201233,228.012604 706.271851,227.366592 
z"/>
<path fill="#A2FC4A" opacity="1.000000" stroke="none" 
	d="
M274.962677,264.380157 
	C278.388672,270.143738 277.140686,276.255188 275.868500,282.167084 
	C273.760864,291.961487 270.079956,301.150391 262.606842,308.206055 
	C260.711090,309.995911 258.151825,313.106812 255.592224,308.216736 
	C256.107666,306.961029 256.553558,306.382507 256.630341,305.758606 
	C258.556305,290.106873 266.301117,277.041809 274.962677,264.380157 
z"/>
<path fill="#EFF3F0" opacity="1.000000" stroke="none" 
	d="
M274.928406,264.060974 
	C266.301117,277.041809 258.556305,290.106873 256.630341,305.758606 
	C256.553558,306.382507 256.107666,306.961029 255.513550,307.842590 
	C254.844147,303.093750 253.675385,297.956360 254.313583,293.054169 
	C255.713821,282.298676 260.786957,272.837097 266.804932,263.949921 
	C269.578461,259.854095 271.538483,259.941345 274.928406,264.060974 
z"/>
<path fill="#A2FC4A" opacity="1.000000" stroke="none" 
	d="
M834.735413,293.850403 
	C841.898254,305.404602 839.312561,327.157532 829.617065,336.910828 
	C823.422180,343.142670 818.307068,342.336914 814.177002,333.830261 
	C815.033936,331.926422 816.158569,330.697144 816.322693,329.350830 
	C818.046814,315.202484 826.041809,304.354401 834.735413,293.850403 
z"/>
<path fill="#F2F5F9" opacity="1.000000" stroke="none" 
	d="
M834.642639,293.561401 
	C826.041809,304.354401 818.046814,315.202484 816.322693,329.350830 
	C816.158569,330.697144 815.033936,331.926422 814.112488,333.465210 
	C809.971130,319.832184 811.959717,306.878082 820.153625,294.972046 
	C821.072632,293.636658 822.412720,292.527130 823.728027,291.540009 
	C828.361084,288.062897 830.057312,288.370728 834.642639,293.561401 
z"/>
</svg>