<?xml version="1.0" encoding="UTF-8"?>
<svg version="1.1" xmlns="http://www.w3.org/2000/svg" width="1080" height="1080">
<path d="M0 0 C5.10890697 3.13625072 5.10890697 3.13625072 6.8828125 4.91015625 C6.98033959 6.52899246 7.01486815 8.15168882 7.0234375 9.7734375 C7.24621647 23.85506336 8.80039819 36.42764404 12.8828125 49.91015625 C15.59505868 48.29746933 18.25634062 46.66113751 20.8828125 44.91015625 C23.109375 44.2421875 23.109375 44.2421875 25.5078125 43.72265625 C26.30445313 43.54347656 27.10109375 43.36429687 27.921875 43.1796875 C28.56898438 43.09074219 29.21609375 43.00179687 29.8828125 42.91015625 C31.67612236 44.70346611 31.01514437 47.10596519 31.01953125 49.49023438 C31.01566406 50.22693359 31.01179687 50.96363281 31.0078125 51.72265625 C31.01361328 52.81030273 31.01361328 52.81030273 31.01953125 53.91992188 C31.01319141 57.38464266 30.9773961 60.60034395 29.8828125 63.91015625 C30.718125 64.21953125 30.718125 64.21953125 31.5703125 64.53515625 C35.23081333 66.71167026 37.99410638 69.85929596 39.6953125 73.78515625 C40.37275809 81.46287297 39.43471252 86.06006336 35.8828125 92.91015625 C36.6459375 93.54953125 37.4090625 94.18890625 38.1953125 94.84765625 C41.64698179 98.28957506 42.6185486 102.3113963 43.8828125 106.91015625 C44.2746875 108.14765625 44.6665625 109.38515625 45.0703125 110.66015625 C45.8828125 113.91015625 45.8828125 113.91015625 45.8828125 118.91015625 C49.8428125 118.91015625 53.8028125 118.91015625 57.8828125 118.91015625 C63.12111974 129.38677073 61.53706153 146.39792935 61.8828125 157.91015625 C61.91149414 158.77157227 61.94017578 159.63298828 61.96972656 160.52050781 C62.04414291 162.98378296 62.09363578 165.44609315 62.1328125 167.91015625 C62.15424316 168.64540527 62.17567383 169.3806543 62.19775391 170.13818359 C62.22589585 174.58773777 61.6200759 177.37174258 58.8828125 180.91015625 C57.0078125 182.03515625 57.0078125 182.03515625 54.8828125 181.91015625 C48.54984557 176.52713436 44.45449292 169.72587061 40.3828125 162.59765625 C39.90972656 161.78103516 39.43664062 160.96441406 38.94921875 160.12304688 C36.40651736 155.7032543 34.02818451 151.24590551 31.78515625 146.66772461 C30.56187908 144.28504812 29.10886021 142.08036478 27.6328125 139.84765625 C24.98126992 135.53723401 24.23114468 132.90627619 24.8828125 127.91015625 C26.8628125 126.92015625 26.8628125 126.92015625 28.8828125 125.91015625 C28.2228125 124.92015625 27.5628125 123.93015625 26.8828125 122.91015625 C26.5940625 121.77578125 26.3053125 120.64140625 26.0078125 119.47265625 C25.19027185 115.9008393 25.19027185 115.9008393 22.8828125 113.97265625 C20.02668615 111.02727595 19.3681014 107.92771189 18.8828125 103.91015625 C19.2578125 100.91015625 19.2578125 100.91015625 19.8828125 98.91015625 C19.0165625 98.84828125 18.1503125 98.78640625 17.2578125 98.72265625 C11.66698632 97.37671661 9.09356643 94.87866093 6.16015625 90.109375 C4.32621216 86.74378529 2.59838033 83.3374193 0.8828125 79.91015625 C0.34269531 78.92402344 -0.19742188 77.93789063 -0.75390625 76.921875 C-11.99189696 56.00279405 -12.41775248 31.15384772 -12.1171875 7.91015625 C-13.4371875 7.58015625 -14.7571875 7.25015625 -16.1171875 6.91015625 C-16.0546875 4.59765625 -16.0546875 4.59765625 -15.1171875 1.91015625 C-10.12764483 -0.92703468 -5.36638295 -2.76240008 0 0 Z M28.8828125 99.91015625 C29.2128125 101.89015625 29.5428125 103.87015625 29.8828125 105.91015625 C30.2128125 105.25015625 30.5428125 104.59015625 30.8828125 103.91015625 C31.5428125 103.91015625 32.2028125 103.91015625 32.8828125 103.91015625 C32.5528125 102.92015625 32.2228125 101.93015625 31.8828125 100.91015625 C30.8928125 100.58015625 29.9028125 100.25015625 28.8828125 99.91015625 Z M34.8828125 116.91015625 C34.8828125 117.90015625 34.8828125 118.89015625 34.8828125 119.91015625 C35.8728125 119.91015625 36.8628125 119.91015625 37.8828125 119.91015625 C37.5528125 118.92015625 37.2228125 117.93015625 36.8828125 116.91015625 C36.2228125 116.91015625 35.5628125 116.91015625 34.8828125 116.91015625 Z " fill="#302D3B" transform="translate(909.1171875,321.08984375)"/>
<path d="M0 0 C0.33 0 0.66 0 1 0 C1.01981934 0.5576001 1.03963867 1.1152002 1.06005859 1.68969727 C1.55690696 15.35636542 1.55690696 15.35636542 3.0625 28.9375 C5.76321735 47.35517397 5.76321735 47.35517397 2 53 C-1.7846368 51.53673604 -3.04000369 49.752529 -4.953125 46.23046875 C-5.48639404 45.2647998 -6.01966309 44.29913086 -6.5690918 43.30419922 C-7.1237915 42.27568848 -7.67849121 41.24717773 -8.25 40.1875 C-9.40556391 38.08874784 -10.56310738 35.99108437 -11.72265625 33.89453125 C-12.28227051 32.87955566 -12.84188477 31.86458008 -13.41845703 30.81884766 C-15.9616803 26.28595851 -18.71158633 21.90051815 -21.51171875 17.5234375 C-22.95704717 15.07282815 -24.02256208 12.66749069 -25 10 C-24.02160156 9.68546875 -23.04320312 9.3709375 -22.03515625 9.046875 C-10.19500401 5.9773997 -10.19500401 5.9773997 0 0 Z " fill="#D09C06" transform="translate(963,445)"/>
<path d="M0 0 C3.25696479 0.41755959 4.63443291 0.63443291 7 3 C7.22570552 5.34093096 7.34645411 7.69226962 7.41796875 10.04296875 C7.78943561 18.26380845 9.12565158 26.0937119 10.84643555 34.12915039 C11.31541052 36.32613479 11.76326166 38.52670878 12.20898438 40.72851562 C14.30390124 54.75717425 14.30390124 54.75717425 21.54296875 66.02734375 C22.41566406 66.32769531 23.28835938 66.62804687 24.1875 66.9375 C26.85546875 67.90234375 26.85546875 67.90234375 29 69 C29.8984375 70.95703125 29.8984375 70.95703125 30 73 C28.4375 75.75 28.4375 75.75 26 78 C22.29868499 78.70876245 20.67726111 78.44900697 17.53125 76.36328125 C3.98327929 63.71432712 0.26749547 35.33897988 -0.9140625 17.671875 C-1.09270696 12.1176562 -1.26590835 6.55279211 -1 1 C-0.67 0.67 -0.34 0.34 0 0 Z " fill="#CD9A06" transform="translate(903,326)"/>
<path d="M0 0 C2.97 0 5.94 0 9 0 C14.23830724 10.47661448 12.65424903 27.4877731 13 39 C13.02868164 39.86141602 13.05736328 40.72283203 13.08691406 41.61035156 C13.16133041 44.07362671 13.21082328 46.5359369 13.25 49 C13.282146 50.10287354 13.282146 50.10287354 13.31494141 51.22802734 C13.34308335 55.67758152 12.7372634 58.46158633 10 62 C8.125 63.125 8.125 63.125 6 63 C-0.33296693 57.61697811 -4.42831958 50.81571436 -8.5 43.6875 C-8.97308594 42.87087891 -9.44617188 42.05425781 -9.93359375 41.21289062 C-12.47553296 36.79442288 -14.85483214 32.33858279 -17.09765625 27.76196289 C-18.32663455 25.36219656 -19.77606334 23.13056973 -21.25 20.875 C-23.57227403 17.09401112 -24.7173993 14.54352888 -24 10 C-22.35 10 -20.7 10 -19 10 C-19 10.66 -19 11.32 -19 12 C-18.21351074 11.73521851 -18.21351074 11.73521851 -17.41113281 11.46508789 C-15.02461992 10.66263481 -12.63732103 9.86254547 -10.25 9.0625 C-9.425 8.78470703 -8.6 8.50691406 -7.75 8.22070312 C-6.95078125 7.95322266 -6.1515625 7.68574219 -5.328125 7.41015625 C-4.5949707 7.16402588 -3.86181641 6.91789551 -3.10644531 6.66430664 C-1.08490527 6.02677645 0.93847426 5.49093646 3 5 C3 4.34 3 3.68 3 3 C1.68 2.67 0.36 2.34 -1 2 C-0.67 1.34 -0.34 0.68 0 0 Z M3.24902344 6.38598633 C0.85704339 8.10259294 -1.19100575 8.92148357 -3.984375 9.82421875 C-5.38623047 10.28344727 -5.38623047 10.28344727 -6.81640625 10.75195312 C-7.78449219 11.06068359 -8.75257813 11.36941406 -9.75 11.6875 C-11.22533203 12.16799805 -11.22533203 12.16799805 -12.73046875 12.65820312 C-15.15152506 13.44563406 -17.57463759 14.22595492 -20 15 C-16.0885526 23.15292318 -11.96733338 30.95833651 -7.1171875 38.6015625 C-5.54958055 41.07929753 -4.07620199 43.59637455 -2.6328125 46.1484375 C-2.23562012 46.84138916 -1.83842773 47.53434082 -1.42919922 48.24829102 C-0.65613499 49.60155355 0.10571797 50.96129625 0.85498047 52.32788086 C2.00330676 54.39544411 2.00330676 54.39544411 4 57 C5.32 57 6.64 57 8 57 C11.66490546 49.67018907 8.67169718 38.02473779 7.51171875 30.2421875 C6.3935079 21.89532403 6.29886469 13.40830305 6 5 C4.75849308 4.89655884 4.75849308 4.89655884 3.24902344 6.38598633 Z " fill="#2B2834" transform="translate(958,440)"/>
<path d="M0 0 C2.97 0.495 2.97 0.495 6 1 C6.18175781 1.60328125 6.36351562 2.2065625 6.55078125 2.828125 C8.28293542 8.99092319 8.28293542 8.99092319 12 14 C15.29045231 14.98013473 17.15632669 15.33302894 20.375 14.0625 C20.91125 13.711875 21.4475 13.36125 22 13 C23.29449495 16.88348484 23.13203312 19.90697336 23 24 C22.67 24.33 22.34 24.66 22 25 C19.66055264 24.71269945 17.3260857 24.38063221 15 24 C15.66 25.65 16.32 27.3 17 29 C14.625 28.6875 14.625 28.6875 12 28 C10 25 10 25 9.125 21.5625 C8.30745935 17.99068305 8.30745935 17.99068305 6 16.0625 C3.14387365 13.1171197 2.4852889 10.01755564 2 6 C2.375 3 2.375 3 3 1 C2.01 0.67 1.02 0.34 0 0 Z M18 19 C18 19.99 18 20.98 18 22 C18.99 22 19.98 22 21 22 C20.67 21.01 20.34 20.02 20 19 C19.34 19 18.68 19 18 19 Z " fill="#2C2B3A" transform="translate(926,419)"/>
<path d="M0 0 C-1.36209177 2.72418355 -2.62306562 2.758777 -5.47265625 3.7265625 C-6.37177734 4.0359375 -7.27089844 4.3453125 -8.19726562 4.6640625 C-9.14279297 4.98117187 -10.08832031 5.29828125 -11.0625 5.625 C-12.01189453 5.94984375 -12.96128906 6.2746875 -13.93945312 6.609375 C-16.29080908 7.41285342 -18.64429163 8.20939204 -21 9 C-16.11994779 17.74071573 -11.23273188 26.46346485 -6 35 C-7.32 35.66 -8.64 36.32 -10 37 C-13.20509222 31.78638331 -16.28310026 26.59384945 -18.921875 21.0703125 C-20.2225389 18.57266082 -21.73427482 16.24774736 -23.25 13.875 C-25.57227403 10.09401112 -26.7173993 7.54352888 -26 3 C-24.35 3 -22.7 3 -21 3 C-21 3.66 -21 4.32 -21 5 C-20.47043701 4.81300537 -19.94087402 4.62601074 -19.39526367 4.43334961 C-16.99585494 3.59199166 -14.59184998 2.76462574 -12.1875 1.9375 C-11.35412109 1.64294922 -10.52074219 1.34839844 -9.66210938 1.04492188 C-8.85966797 0.77099609 -8.05722656 0.49707031 -7.23046875 0.21484375 C-6.49207764 -0.04176025 -5.75368652 -0.29836426 -4.99291992 -0.56274414 C-3 -1 -3 -1 0 0 Z " fill="#2B2A39" transform="translate(960,447)"/>
<path d="M0 0 C1.4765625 2.58984375 1.4765625 2.58984375 2.625 5.9375 C3.24375 7.70867187 3.24375 7.70867187 3.875 9.515625 C5.32086826 13.99380031 6.71396849 18.47345971 8 23 C8.55989562 24.87577934 9.12234783 26.7507977 9.6875 28.625 C10.125 30.08333333 10.5625 31.54166667 11 33 C6.71640572 30.14427048 6.09971112 26.47511438 4.37890625 21.75 C3.30198188 18.90430665 3.30198188 18.90430665 1.07421875 18.0703125 C-2.24102477 16.35962187 -3.24991597 13.1262551 -4.75 9.875 C-5.06582031 9.21628906 -5.38164063 8.55757813 -5.70703125 7.87890625 C-6.48233745 6.25781147 -7.24265686 4.62956416 -8 3 C-7.67 4.98 -7.34 6.96 -7 9 C-9.72426311 6.64722731 -10.8141763 4.37503669 -12 1 C-4.18651685 -1.60449438 -4.18651685 -1.60449438 0 0 Z " fill="#FAF8C0" transform="translate(950,454)"/>
<path d="M0 0 C1.92856587 2.89284881 2.92671344 5.38208462 4.125 8.625 C6.84961477 15.20881986 10.45211797 22.02434426 17.29296875 24.99609375 C19.69259394 25.6615311 19.69259394 25.6615311 23 26 C22.42655063 28.86724686 22.1385485 29.8614515 20 32 C16.41195339 32.47840621 14.60025336 32.38750534 11.53125 30.40625 C8.6111943 27.63039458 6.98902913 24.72247253 5.3125 21.125 C5.01794922 20.52558594 4.72339844 19.92617188 4.41992188 19.30859375 C1.16551266 12.56575039 -0.25508184 7.39737332 0 0 Z " fill="#F8CB04" transform="translate(909,372)"/>
<path d="M0 0 C5.0803332 0.84246732 8.16509351 2.55345802 11.3125 6.75 C12.70861603 11.31910701 12.59990294 15.41202163 10.9375 19.8125 C7.89286537 23.24999071 4.48045827 24.65640711 -0.05859375 25.28515625 C-4.54997273 25.4804336 -7.47472942 24.77748592 -11 22 C-11.33 21.34 -11.66 20.68 -12 20 C-8.125 20.875 -8.125 20.875 -7 22 C-5.31391034 22.07205511 -3.62499341 22.08386068 -1.9375 22.0625 C-1.01839844 22.05347656 -0.09929688 22.04445313 0.84765625 22.03515625 C1.55792969 22.02355469 2.26820313 22.01195312 3 22 C4.77147308 17.46060024 5.57714607 13.86451688 5 9 C3.55665944 5.85180769 1.85511506 2.92180622 0 0 Z " fill="#CC9906" transform="translate(931,388)"/>
<path d="M0 0 C0.02505615 0.79696289 0.0501123 1.59392578 0.07592773 2.41503906 C0.19198789 6.02685222 0.31466931 9.63841102 0.4375 13.25 C0.47681641 14.50425781 0.51613281 15.75851562 0.55664062 17.05078125 C0.61948242 18.85869141 0.61948242 18.85869141 0.68359375 20.703125 C0.72025146 21.81333008 0.75690918 22.92353516 0.79467773 24.06738281 C0.96834078 26.5478115 1.37262868 28.61453365 2 31 C2.03888349 33.33300933 2.0448635 35.66709801 2 38 C0.01724328 34.49742094 -0.85207314 30.95733743 -1.8125 27.0625 C-3.41639473 20.72400145 -5.5235314 14.74937511 -8.046875 8.70703125 C-9 6 -9 6 -9 2 C-3.375 0 -3.375 0 0 0 Z " fill="#FAD014" transform="translate(962,448)"/>
<path d="M0 0 C0.66 0 1.32 0 2 0 C3.41193641 10.41303106 4.30028643 20.47329223 4 31 C3.34 30.67 2.68 30.34 2 30 C1.50672702 27.57930853 1.14968247 25.26038899 0.875 22.8125 C0.79008301 22.10158203 0.70516602 21.39066406 0.61767578 20.65820312 C-0.14289292 13.7595236 -0.19513703 6.93820556 0 0 Z " fill="#F4F4C3" transform="translate(902,327)"/>
<path d="M0 0 C3.42229782 1.14076594 3.66778676 1.56684158 5.25 4.625 C7.18021001 8.74426045 7.30642239 11.55816387 6 16 C4.75 17.9375 4.75 17.9375 3 19 C0.3125 19.1875 0.3125 19.1875 -2 19 C-2.66 17.68 -3.32 16.36 -4 15 C-1.69 15 0.62 15 3 15 C3.27906926 9.5116379 3.25491791 6.6111337 0 2 C0 1.34 0 0.68 0 0 Z " fill="#CAA00D" transform="translate(945,428)"/>
<path d="M0 0 C0.66 0.33 1.32 0.66 2 1 C2.125 7.625 2.125 7.625 1 11 C-1.31 11 -3.62 11 -6 11 C-4.88059018 6.14922412 -3.8665284 3.222107 0 0 Z " fill="#C39107" transform="translate(933,373)"/>
<path d="M0 0 C1.046875 2.06640625 1.046875 2.06640625 1.75 4.5625 C1.99234375 5.38878906 2.2346875 6.21507812 2.484375 7.06640625 C2.65453125 7.70449219 2.8246875 8.34257812 3 9 C2.01 9.33 1.02 9.66 0 10 C-1.32 7.36 -2.64 4.72 -4 2 C-3.67 3.98 -3.34 5.96 -3 8 C-5.72426311 5.64722731 -6.8141763 3.37503669 -8 0 C-4.96135367 -0.97670775 -2.98376972 -1.23139703 0 0 Z " fill="#EDEEBB" transform="translate(946,455)"/>
<path d="M0 0 C0 0.66 0 1.32 0 2 C-1.87383903 2.79441072 -3.74912886 3.58539974 -5.625 4.375 C-6.66914062 4.81585938 -7.71328125 5.25671875 -8.7890625 5.7109375 C-18.165 9.475 -18.165 9.475 -22 8 C-18.9696299 5.97975326 -16.55413775 5.43537194 -13.0546875 4.640625 C-10.68891925 4.00892716 -10.68891925 4.00892716 -7.8125 1.875 C-4.81732853 -0.12178098 -3.50679384 -0.41256398 0 0 Z " fill="#C39C29" transform="translate(961,443)"/>
<path d="M0 0 C2.13267108 2.13267108 2.91744183 3.76004736 4.12890625 6.5 C4.52400391 7.386875 4.91910156 8.27375 5.32617188 9.1875 C5.9381543 10.5796875 5.9381543 10.5796875 6.5625 12 C7.37608452 13.83342989 8.18987652 15.66676774 9.00390625 17.5 C9.36299072 18.3146875 9.7220752 19.129375 10.09204102 19.96875 C10.69871829 21.32598445 11.33514773 22.67029547 12 24 C8.44533318 22.81511106 7.98839091 21.6166324 6.34790039 18.38916016 C6.04746826 17.7657373 5.74703613 17.14231445 5.4375 16.5 C5.1273999 15.87013184 4.8172998 15.24026367 4.49780273 14.59130859 C2.21138898 9.79810385 0.81732885 5.26723034 0 0 Z " fill="#E4E4B2" transform="translate(909,377)"/>
<path d="M0 0 C0.99 0 1.98 0 3 0 C4.65 3.3 6.3 6.6 8 10 C6.68 10.33 5.36 10.66 4 11 C0 4.5 0 4.5 0 0 Z " fill="#373842" transform="translate(946,473)"/>
<path d="M0 0 C-3.68910774 3.52871175 -8.07283943 4.38629673 -13 5 C-16.0625 4.625 -16.0625 4.625 -18 4 C-17.34 3.01 -16.68 2.02 -16 1 C-13.66709801 0.9551365 -11.33300933 0.96111651 -9 1 C-2.94174757 -0.98058252 -2.94174757 -0.98058252 0 0 Z " fill="#6F687C" transform="translate(952,446)"/>
<path d="M0 0 C0.33 0 0.66 0 1 0 C2.42002108 6.7831364 3.22731216 13.06697907 3 20 C-0.72927099 16.27072901 -0.89024409 12.03188649 -1 7 C-0.81203684 4.60456246 -0.45297248 2.36552294 0 0 Z " fill="#EEC20B" transform="translate(906,351)"/>
<path d="M0 0 C-1 2 -1 2 -4.37890625 3.2890625 C-5.77098377 3.74198724 -7.16566224 4.18697613 -8.5625 4.625 C-9.27341797 4.85445313 -9.98433594 5.08390625 -10.71679688 5.3203125 C-12.47570953 5.88694208 -14.23759039 6.44434258 -16 7 C-14.96518246 4.09148916 -14.29017693 3.15121896 -11.50390625 1.69921875 C-10.53324219 1.36535156 -9.56257812 1.03148437 -8.5625 0.6875 C-7.59441406 0.34074219 -6.62632812 -0.00601562 -5.62890625 -0.36328125 C-3 -1 -3 -1 0 0 Z " fill="#403B44" transform="translate(960,447)"/>
<path d="M0 0 C1.73662334 3.22515763 2.8905928 6.51329166 4 10 C2.125 9.75 2.125 9.75 0 9 C-1.64412999 6.72953477 -2.08619584 5.60337089 -1.6875 2.8125 C-1 1 -1 1 0 0 Z " fill="#F7E169" transform="translate(949,462)"/>
<path d="M0 0 C3.875 0.875 3.875 0.875 5 2 C6.68608966 2.07205511 8.37500659 2.08386068 10.0625 2.0625 C10.98160156 2.05347656 11.90070312 2.04445313 12.84765625 2.03515625 C13.55792969 2.02355469 14.26820313 2.01195312 15 2 C14.67 2.99 14.34 3.98 14 5 C5.36497244 5.4390692 5.36497244 5.4390692 1 2 C0.67 1.34 0.34 0.68 0 0 Z " fill="#CAD0AA" transform="translate(919,408)"/>
<path d="M0 0 C3 1 3 1 4 3 C4.46601942 10.22330097 4.46601942 10.22330097 2.5 13.5 C2.005 13.995 1.51 14.49 1 15 C0.34 14.67 -0.32 14.34 -1 14 C-0.67 13.484375 -0.34 12.96875 0 12.4375 C1.72651677 8.22911538 1.41933513 4.25800538 0 0 Z " fill="#F2EFB4" transform="translate(935,394)"/>
<path d="M0 0 C2.93814003 1.46907001 3.3286226 3.59447806 4.625 6.5625 C5.07101562 7.57441406 5.51703125 8.58632813 5.9765625 9.62890625 C6.31429687 10.41136719 6.65203125 11.19382812 7 12 C6.34 12.66 5.68 13.32 5 14 C1.87680501 9.59913433 0.96396425 5.20540698 0 0 Z " fill="#D7B43C" transform="translate(941,456)"/>
<path d="M0 0 C3 1 3 1 4.75 3.1875 C6.26830444 6.60368499 5.91194105 8.43513952 5 12 C4.67 12 4.34 12 4 12 C2.66666667 8 1.33333333 4 0 0 Z " fill="#C6BB7C" transform="translate(945,428)"/>
<path d="M0 0 C0.99 0.33 1.98 0.66 3 1 C3 4.63 3 8.26 3 12 C2.67 12 2.34 12 2 12 C0.40861915 7.82262526 -0.21278058 4.46839215 0 0 Z " fill="#E4D9F5" transform="translate(913,335)"/>
<path d="M0 0 C0.99 0 1.98 0 3 0 C3.66 1.65 4.32 3.3 5 5 C3.68 5.33 2.36 5.66 1 6 C0.67 4.02 0.34 2.04 0 0 Z " fill="#3D3E4A" transform="translate(946,473)"/>
<path d="M0 0 C-2.25 2.0625 -2.25 2.0625 -5 4 C-7.3125 3.75 -7.3125 3.75 -9 3 C-7.14340032 -0.71319936 -3.69365381 -0.09982848 0 0 Z " fill="#4A4958" transform="translate(959,441)"/>
<path d="M0 0 C3.875 1.875 3.875 1.875 5 3 C5.04063832 4.66617115 5.042721 6.33388095 5 8 C2.20127563 5.47211993 0.54226981 3.79588866 0 0 Z " fill="#E3D2F8" transform="translate(911,323)"/>
<path d="M0 0 C1.65 0 3.3 0 5 0 C5 0.66 5 1.32 5 2 C2.1875 3.5625 2.1875 3.5625 -1 5 C-1.99 4.67 -2.98 4.34 -4 4 C-2.68 3.67 -1.36 3.34 0 3 C0 2.01 0 1.02 0 0 Z " fill="#D3D19C" transform="translate(956,443)"/>
<path d="M0 0 C3.16115776 1.36983503 3.9927092 1.9890638 6 5 C5.625 7.1875 5.625 7.1875 5 9 C3.19933758 6.0534615 1.49836105 3.11198065 0 0 Z " fill="#B48813" transform="translate(943,418)"/>
<path d="M0 0 C0.125 2.375 0.125 2.375 0 5 C-0.66 5.66 -1.32 6.32 -2 7 C-2.99 7 -3.98 7 -5 7 C-5 4 -5 4 -3.0625 1.8125 C-1 0 -1 0 0 0 Z " fill="#F1C70D" transform="translate(939,405)"/>
<path d="M0 0 C2.32590854 3.63423209 2.16265833 6.77088331 2 11 C0.35365714 8.03658286 -0.55681086 5.36823744 -1 2 C-0.67 1.34 -0.34 0.68 0 0 Z " fill="#EFBC00" transform="translate(962,475)"/>
<path d="M0 0 C0.99 0 1.98 0 3 0 C3.33 2.97 3.66 5.94 4 9 C1.49701566 6.06171403 0.53069061 3.82097239 0 0 Z " fill="#F7CF1B" transform="translate(945,453)"/>
</svg>
