<svg version="1.1" id="Layer_1" xmlns="http://www.w3.org/2000/svg" xmlns:xlink="http://www.w3.org/1999/xlink" x="0px" y="0px"
	 width="100%" viewBox="0 0 1080 1080" enable-background="new 0 0 1080 1080" xml:space="preserve">
<path fill="#2E2C3F" opacity="1.000000" stroke="none" 
	d="
M468.264832,671.733704 
	C448.558716,650.963989 435.553619,626.900818 428.613159,599.538940 
	C427.847656,596.520996 426.984344,594.987915 423.187103,594.666138 
	C420.638275,594.450134 416.865295,591.351501 416.267303,588.901367 
	C414.841797,583.060791 415.026062,576.835083 414.446716,570.775757 
	C414.253632,568.756226 414.399109,566.143677 413.228546,564.866089 
	C402.969330,553.668701 390.928406,545.466125 375.408691,543.364868 
	C364.336731,541.865845 355.962646,546.510803 349.234467,554.697693 
	C348.249847,555.895813 348.110870,558.437317 348.577026,560.073303 
	C351.450409,570.157776 345.900757,584.248657 336.852661,589.675415 
	C335.439636,590.522949 334.157990,592.067993 333.484253,593.587036 
	C330.520386,600.269714 328.012512,607.158264 324.955383,613.795288 
	C315.252289,634.860474 300.245728,651.233887 281.305328,664.582703 
	C260.353516,679.349182 236.940781,687.423340 211.906433,688.579163 
	C184.185822,689.859070 157.524887,683.318665 133.856293,668.060974 
	C110.729004,653.152222 93.358276,632.959595 81.025223,608.245728 
	C67.829895,581.804199 61.902348,553.950317 64.297226,524.601135 
	C65.600510,508.629425 70.568817,493.501831 77.268936,478.774109 
	C83.786423,464.447937 93.902527,452.968964 104.753807,442.411926 
	C112.943474,434.444336 123.039673,427.760315 133.398834,422.849915 
	C150.932556,414.538666 168.925293,406.761414 188.449081,404.017731 
	C209.482361,401.061920 229.948853,403.291321 249.742615,411.266602 
	C269.332947,419.159912 286.522522,430.484314 300.962402,445.996582 
	C324.143127,470.898865 337.480865,500.102997 340.065277,534.120117 
	C340.211151,536.039978 340.665710,537.936401 341.013367,540.069153 
	C369.394440,521.549622 396.535858,524.044617 423.537415,543.457092 
	C424.366180,539.902954 425.155914,536.924255 425.750153,533.906982 
	C436.023010,481.744385 467.989563,447.888306 516.071472,428.333862 
	C531.424744,422.089813 547.385193,416.325500 563.618042,413.476227 
	C593.997620,408.143890 623.483032,413.455475 650.711792,428.164551 
	C698.232361,453.835419 727.743042,493.173950 732.481262,547.331421 
	C739.429199,626.746643 694.065796,697.078796 611.542053,715.074768 
	C556.766785,727.019653 508.259583,712.670227 468.264832,671.733704 
M338.573578,574.629028 
	C339.856842,571.731018 341.140137,568.832947 342.423431,565.934937 
	C341.509125,565.662109 340.594849,565.389343 339.680573,565.116516 
	C339.126678,568.412598 338.572815,571.708679 337.804352,575.237793 
	C337.722168,575.490662 337.639984,575.743591 337.557770,575.996460 
	C337.667572,575.941162 337.857544,575.902344 337.872894,575.827637 
	C337.931488,575.542908 337.933746,575.246643 338.573578,574.629028 
M456.704742,521.426575 
	C456.474396,522.032288 456.244019,522.637939 455.917938,523.936707 
	C455.450409,524.816284 454.740234,525.647766 454.554718,526.583252 
	C453.332428,532.746460 452.223114,538.932068 450.854858,545.884399 
	C450.242554,550.022400 449.630249,554.160339 448.983490,559.106323 
	C448.661011,560.726868 448.133118,562.336792 448.048737,563.969666 
	C447.408966,576.348267 448.248779,588.665771 451.802277,600.538269 
	C468.680756,656.930664 507.698120,688.994324 564.533203,698.599182 
	C622.787964,708.443848 680.799438,675.633728 706.758057,620.718201 
	C712.256592,609.086182 716.056763,596.961304 717.465454,583.616516 
	C717.795410,582.710449 718.125366,581.804382 718.562683,579.978821 
	C721.078552,518.664001 697.611938,471.484802 642.807495,441.663086 
	C631.381592,435.445709 619.202393,430.796631 605.242737,429.709106 
	C601.572815,429.521210 597.902954,429.333313 593.880432,428.415466 
	C591.858215,427.940094 589.844971,427.106293 587.812073,427.054932 
	C581.076111,426.884827 574.333008,426.996704 566.684143,427.090973 
	C563.538330,427.389465 560.387268,427.641479 557.247620,427.994659 
	C545.146362,429.356079 533.317993,431.301697 522.503601,437.713928 
	C498.090759,452.188995 479.115234,471.641571 466.864197,497.317200 
	C463.169739,505.059906 460.388794,513.238403 457.123016,521.105530 
	C457.123016,521.105530 457.234802,521.039307 456.704742,521.426575 
M185.484177,417.962463 
	C162.901566,417.860107 145.267502,428.558838 129.582932,443.542755 
	C118.677391,453.961151 109.826698,465.917847 103.482544,479.574707 
	C100.230530,486.575165 97.849030,493.980042 94.805702,501.837372 
	C88.865723,511.938477 88.075043,523.279724 87.038063,534.539307 
	C86.929459,535.718506 87.727829,536.981201 87.763458,538.940918 
	C87.513443,543.017700 87.263420,547.094482 86.913712,551.951843 
	C86.990608,556.530579 86.342758,561.260925 87.263351,565.663208 
	C92.770370,591.998352 103.446648,615.852844 123.583778,634.347168 
	C155.821213,663.954773 192.962646,677.775635 236.862427,667.085632 
	C268.494354,659.382935 291.792725,640.195251 309.053192,613.097534 
	C318.888580,597.656616 324.986511,580.677368 326.693939,562.637207 
	C328.702911,541.411011 325.978546,520.424377 318.232880,500.371338 
	C303.706421,462.763153 277.728882,436.714172 239.538193,423.225311 
	C237.245056,422.415344 234.659149,422.434326 231.447388,421.843903 
	C228.356094,421.267517 225.264801,420.691162 221.673019,419.496124 
	C210.014359,416.609528 198.257782,416.099976 185.484177,417.962463 
z"/>
<path fill="#69658C" opacity="0.450000" stroke="none" 
	d="
M605.930054,430.033264 
	C619.202393,430.796631 631.381592,435.445709 642.807495,441.663086 
	C697.611938,471.484802 721.078552,518.664001 718.323975,580.661133 
	C717.736267,582.247131 717.387329,583.150818 717.038330,584.054565 
	C716.056763,596.961304 712.256592,609.086182 706.758057,620.718201 
	C680.799438,675.633728 622.787964,708.443848 564.533203,698.599182 
	C507.698120,688.994324 468.680756,656.930664 451.802277,600.538269 
	C448.248779,588.665771 447.408966,576.348267 448.048737,563.969666 
	C448.133118,562.336792 448.661011,560.726868 449.304871,558.531372 
	C451.648773,556.260010 453.696808,554.593079 455.689728,552.862610 
	C471.059174,539.517395 486.175720,525.867615 501.843994,512.883362 
	C519.756042,498.039703 538.135620,483.759186 556.349670,469.281372 
	C572.850159,456.165588 589.401245,443.113464 605.930054,430.033264 
z"/>
<path fill="#69658C" opacity="0.450000" stroke="none" 
	d="
M232.209473,422.067566 
	C234.659149,422.434326 237.245056,422.415344 239.538193,423.225311 
	C277.728882,436.714172 303.706421,462.763153 318.232880,500.371338 
	C325.978546,520.424377 328.702911,541.411011 326.693939,562.637207 
	C324.986511,580.677368 318.888580,597.656616 309.053192,613.097534 
	C291.792725,640.195251 268.494354,659.382935 236.862427,667.085632 
	C192.962646,677.775635 155.821213,663.954773 123.583778,634.347168 
	C103.446648,615.852844 92.770370,591.998352 87.263351,565.663208 
	C86.342758,561.260925 86.990608,556.530579 87.271881,551.414734 
	C94.596924,544.245667 101.416656,537.450439 108.557983,531.011902 
	C130.947235,510.826050 153.388062,490.696075 175.950714,470.704498 
	C187.085297,460.838715 198.557907,451.355347 209.827301,441.640625 
	C217.333954,435.169556 224.751846,428.595520 232.209473,422.067566 
z"/>
<path fill="#68648B" opacity="0.4500000" stroke="none" 
	d="
M88.105400,538.205200 
	C87.727829,536.981201 86.929459,535.718506 87.038063,534.539307 
	C88.075043,523.279724 88.865723,511.938477 95.248306,501.379944 
	C97.236809,499.459320 98.784950,497.998535 100.328232,496.532593 
	C111.035278,486.362061 121.639915,476.080872 132.479355,466.053497 
	C141.375870,457.823456 150.546173,449.889160 159.604431,441.834229 
	C168.530258,433.896973 177.467758,425.972839 186.400162,418.042969 
	C198.257782,416.099976 210.014359,416.609528 221.731049,420.082336 
	C213.573395,427.868927 205.431244,435.155334 197.126831,442.251831 
	C179.562622,457.261200 161.692474,471.920319 144.358902,487.189758 
	C125.366249,503.920776 106.836754,521.177551 88.105400,538.205200 
z"/>
<path fill="#68648B" opacity="0.450000" stroke="none" 
	d="
M451.077026,545.110413 
	C452.223114,538.932068 453.332428,532.746460 454.554718,526.583252 
	C454.740234,525.647766 455.450409,524.816284 456.288483,523.407959 
	C456.850952,522.265930 457.042877,521.652588 457.234802,521.039307 
	C457.234802,521.039307 457.123016,521.105530 457.510071,521.198364 
	C459.726410,519.899536 461.664551,518.629028 463.368164,517.097656 
	C480.395203,501.792053 497.137329,486.158630 514.452026,471.186859 
	C531.874756,456.121735 549.856079,441.702606 567.592651,427.000397 
	C574.333008,426.996704 581.076111,426.884827 587.812073,427.054932 
	C589.844971,427.106293 591.858215,427.940094 593.846985,429.047241 
	C587.460938,434.674500 581.088318,439.644653 574.759827,444.670471 
	C559.381714,456.882996 543.897583,468.966309 528.689087,481.386932 
	C507.863464,498.394989 487.270386,515.687622 466.538910,532.811340 
	C461.462219,537.004578 456.235016,541.015625 451.077026,545.110413 
z"/>
<path fill="#000001" opacity="0.100000" stroke="none" 
	d="
M567.138428,427.045685 
	C549.856079,441.702606 531.874756,456.121735 514.452026,471.186859 
	C497.137329,486.158630 480.395203,501.792053 463.368164,517.097656 
	C461.664551,518.629028 459.726410,519.899536 457.543243,521.254211 
	C460.388794,513.238403 463.169739,505.059906 466.864197,497.317200 
	C479.115234,471.641571 498.090759,452.188995 522.503601,437.713928 
	C533.317993,431.301697 545.146362,429.356079 557.247620,427.994659 
	C560.387268,427.641479 563.538330,427.389465 567.138428,427.045685 
z"/>
<path fill="#000001" opacity="0.100000" stroke="none" 
	d="
M185.942169,418.002716 
	C177.467758,425.972839 168.530258,433.896973 159.604431,441.834229 
	C150.546173,449.889160 141.375870,457.823456 132.479355,466.053497 
	C121.639915,476.080872 111.035278,486.362061 100.328232,496.532593 
	C98.784950,497.998535 97.236809,499.459320 95.382507,501.062317 
	C97.849030,493.980042 100.230530,486.575165 103.482544,479.574707 
	C109.826698,465.917847 118.677391,453.961151 129.582932,443.542755 
	C145.267502,428.558838 162.901566,417.860107 185.942169,418.002716 
z"/>
<path fill="#000003" opacity="0.100000" stroke="none" 
	d="
M450.965942,545.497437 
	C456.235016,541.015625 461.462219,537.004578 466.538910,532.811340 
	C487.270386,515.687622 507.863464,498.394989 528.689087,481.386932 
	C543.897583,468.966309 559.381714,456.882996 574.759827,444.670471 
	C581.088318,439.644653 587.460938,434.674500 594.023315,429.412231 
	C597.902954,429.333313 601.572815,429.521210 605.586426,429.871185 
	C589.401245,443.113464 572.850159,456.165588 556.349670,469.281372 
	C538.135620,483.759186 519.756042,498.039703 501.843994,512.883362 
	C486.175720,525.867615 471.059174,539.517395 455.689728,552.862610 
	C453.696808,554.593079 451.648773,556.260010 449.322113,558.127319 
	C449.630249,554.160339 450.242554,550.022400 450.965942,545.497437 
z"/>
<path fill="#000003" opacity="0.100000" stroke="none" 
	d="
M87.934433,538.573059 
	C106.836754,521.177551 125.366249,503.920776 144.358902,487.189758 
	C161.692474,471.920319 179.562622,457.261200 197.126831,442.251831 
	C205.431244,435.155334 213.573395,427.868927 221.981293,420.391663 
	C225.264801,420.691162 228.356094,421.267517 231.828430,421.955750 
	C224.751846,428.595520 217.333954,435.169556 209.827301,441.640625 
	C198.557907,451.355347 187.085297,460.838715 175.950714,470.704498 
	C153.388062,490.696075 130.947235,510.826050 108.557983,531.011902 
	C101.416656,537.450439 94.596924,544.245667 87.321724,551.024414 
	C87.263420,547.094482 87.513443,543.017700 87.934433,538.573059 
z"/>
<path fill="#040407" opacity="1.00000" stroke="none" 
	d="
M338.018921,575.004761 
	C338.572815,571.708679 339.126678,568.412598 339.680573,565.116516 
	C340.594849,565.389343 341.509125,565.662109 342.423431,565.934937 
	C341.140137,568.832947 339.856842,571.731018 338.280273,574.805298 
	C337.987000,574.981628 338.018921,575.004761 338.018921,575.004761 
z"/>
<path fill="#575375" opacity="1.00000" stroke="none" 
	d="
M717.251892,583.835571 
	C717.387329,583.150818 717.736267,582.247131 718.270264,581.120850 
	C718.125366,581.804382 717.795410,582.710449 717.251892,583.835571 
z"/>
<path fill="#040407" opacity="1.000000" stroke="none" 
	d="
M337.972015,574.968140 
	C337.933746,575.246643 337.931488,575.542908 337.872894,575.827637 
	C337.857544,575.902344 337.667572,575.941162 337.557770,575.996460 
	C337.639984,575.743591 337.722168,575.490662 337.911621,575.121277 
	C338.018921,575.004761 337.987000,574.981628 337.972015,574.968140 
z"/>
<path fill="#000001" opacity="0.100000" stroke="none" 
	d="
M456.969788,521.232910 
	C457.042877,521.652588 456.850952,522.265930 456.336365,523.061401 
	C456.244019,522.637939 456.474396,522.032288 456.969788,521.232910 
z"/>
</svg>