<svg version="1.1" id="Layer_1" xmlns="http://www.w3.org/2000/svg" xmlns:xlink="http://www.w3.org/1999/xlink" x="0px" y="0px"
	 width="100%" viewBox="0 0 1080 1080" enable-background="new 0 0 1080 1080" xml:space="preserve">
<path fill="#000000" opacity="1.000000" stroke="none" 
	d="
M1080.750000,1080.750000 
	C720.666687,1081.000000 360.833405,1081.000000 1.000097,1081.000000 
	C1.000064,721.000061 1.000064,361.000183 1.000032,1.000193 
	C360.999878,1.000129 720.999756,1.000129 1080.999756,1.000064 
	C1081.000000,360.833344 1081.000000,720.666687 1080.750000,1080.750000 
M432.470337,774.999939 
	C442.965118,773.297546 453.531036,771.944031 463.940155,769.821533 
	C486.974457,765.124756 509.097900,758.129822 527.561829,742.621338 
	C543.299255,729.402954 555.499878,713.912231 558.285583,692.852356 
	C560.156921,678.704956 561.296448,664.456970 562.510559,650.232422 
	C562.627075,648.867432 560.946594,647.348938 560.100342,645.901733 
	C558.725708,647.033325 556.575012,647.907532 556.100708,649.337708 
	C552.670715,659.680725 546.206604,667.731384 537.952271,674.537231 
	C521.873596,687.794800 504.441101,688.645630 487.369781,676.649475 
	C481.524811,672.542114 476.417999,667.376831 470.535889,663.331848 
	C464.448303,659.145508 458.258026,654.202087 451.361633,652.268372 
	C430.816010,646.507751 395.319031,659.033325 383.216187,685.749268 
	C382.298889,687.774109 381.295258,689.759827 380.129456,692.184631 
	C379.368011,691.064026 379.036713,690.694580 378.843262,690.263367 
	C378.572266,689.659241 378.334747,689.023315 378.201782,688.376526 
	C374.739410,671.539001 366.056396,659.068604 348.982971,653.784241 
	C335.234985,649.529114 321.122742,648.332947 308.294464,655.463623 
	C300.812500,659.622559 294.879456,666.644775 288.448029,672.593323 
	C282.910583,677.715027 277.202789,682.252197 269.628845,684.158264 
	C257.800323,687.135010 247.976089,682.309692 238.818283,676.118958 
	C233.409821,672.462891 229.138260,667.158630 224.099533,662.898254 
	C222.849808,661.841553 220.606216,661.960205 218.819489,661.538574 
	C218.706940,663.065308 218.258240,664.657104 218.538696,666.107849 
	C219.922180,673.264709 221.588470,680.366577 222.991394,687.519958 
	C228.371017,714.950439 244.215317,734.833496 267.909424,748.607239 
	C290.639221,761.820435 315.728577,764.984863 341.485077,763.565735 
	C351.408142,763.018860 360.056274,758.617920 366.819977,751.107300 
	C370.338470,747.200256 373.644989,743.102234 377.673492,738.352051 
	C381.721954,749.754761 388.274628,758.841003 398.425720,765.090759 
	C408.616180,771.364868 419.745483,774.238464 432.470337,774.999939 
z"/>
<path fill="#2E2C3E" opacity="1.000000" stroke="none" 
	d="
M432.007812,775.000061 
	C419.745483,774.238464 408.616180,771.364868 398.425720,765.090759 
	C388.274628,758.841003 381.721954,749.754761 377.673492,738.352051 
	C373.644989,743.102234 370.338470,747.200256 366.819977,751.107300 
	C360.056274,758.617920 351.408142,763.018860 341.485077,763.565735 
	C315.728577,764.984863 290.639221,761.820435 267.909424,748.607239 
	C244.215317,734.833496 228.371017,714.950439 222.991394,687.519958 
	C221.588470,680.366577 219.922180,673.264709 218.538696,666.107849 
	C218.258240,664.657104 218.706940,663.065308 218.819473,661.538574 
	C220.606216,661.960205 222.849808,661.841553 224.099533,662.898254 
	C229.138260,667.158630 233.409821,672.462891 238.818283,676.118958 
	C247.976089,682.309692 257.800323,687.135010 269.628845,684.158264 
	C277.202789,682.252197 282.910583,677.715027 288.448029,672.593323 
	C294.879456,666.644775 300.812500,659.622559 308.294464,655.463623 
	C321.122742,648.332947 335.234985,649.529114 348.982971,653.784241 
	C366.056396,659.068604 374.739410,671.539001 378.201782,688.376526 
	C378.334747,689.023315 378.572266,689.659241 378.843262,690.263367 
	C379.036713,690.694580 379.368011,691.064026 380.129456,692.184631 
	C381.295258,689.759827 382.298889,687.774109 383.216187,685.749268 
	C395.319031,659.033325 430.816010,646.507751 451.361633,652.268372 
	C458.258026,654.202087 464.448303,659.145508 470.535889,663.331848 
	C476.417999,667.376831 481.524811,672.542114 487.369781,676.649475 
	C504.441101,688.645630 521.873596,687.794800 537.952271,674.537231 
	C546.206604,667.731384 552.670715,659.680725 556.100708,649.337708 
	C556.575012,647.907532 558.725708,647.033325 560.100342,645.901733 
	C560.946594,647.348938 562.627075,648.867432 562.510559,650.232422 
	C561.296448,664.456970 560.156921,678.704956 558.285583,692.852356 
	C555.499878,713.912231 543.299255,729.402954 527.561829,742.621338 
	C509.097900,758.129822 486.974457,765.124756 463.940155,769.821533 
	C453.531036,771.944031 442.965118,773.297546 432.007812,775.000061 
M342.255249,657.705078 
	C326.612030,653.383362 313.103119,655.521484 302.608765,669.426147 
	C298.341492,675.080139 292.993011,680.060913 287.553619,684.658447 
	C275.165955,695.129028 261.365631,698.187683 246.330246,690.539246 
	C241.905670,688.288574 237.843750,685.326782 233.604553,682.708801 
	C232.178635,681.828247 230.718521,681.003052 229.274033,680.152527 
	C228.914368,680.522766 228.554703,680.893066 228.195038,681.263306 
	C232.546127,702.499939 240.069168,721.783020 261.267120,733.467041 
	C267.585327,737.028809 273.636047,741.222595 280.272827,744.031616 
	C298.727936,751.842651 318.064880,754.757751 337.971466,751.741882 
	C353.295441,749.420227 364.221619,740.830017 368.654968,725.865967 
	C375.018829,704.385986 370.107605,684.504211 356.899536,666.935608 
	C353.787720,662.796387 347.701080,660.893677 342.255249,657.705078 
M551.534363,673.173889 
	C549.524170,675.161011 547.510803,677.144958 545.504272,679.135803 
	C526.622864,697.869263 505.835205,700.130676 483.830017,685.052917 
	C475.510162,679.352173 468.084961,672.324219 460.390686,665.739197 
	C454.935272,661.070190 448.971008,657.264587 441.685547,657.293945 
	C426.585693,657.354736 413.040985,661.926941 403.285278,674.049561 
	C394.488037,684.981140 391.046021,698.208923 388.744019,712.636414 
	C387.236908,722.697876 389.002075,732.314575 393.871216,741.081177 
	C402.172821,756.027832 415.831360,762.430969 432.329254,762.973511 
	C457.587128,763.804077 481.611328,758.266418 504.277191,747.234802 
	C517.648865,740.726685 530.241394,732.951416 539.820984,721.161316 
	C551.273682,707.065857 553.430786,690.086792 554.824951,672.876770 
	C554.878052,672.221802 554.361938,671.520691 553.919922,670.323364 
	C553.038940,671.460938 552.549988,672.092346 551.534363,673.173889 
z"/>
<path fill="#573C2C" opacity="1.000000" stroke="none" 
	d="
M388.999878,711.834534 
	C391.046021,698.208923 394.488037,684.981140 403.285278,674.049561 
	C413.040985,661.926941 426.585693,657.354736 441.685547,657.293945 
	C448.971008,657.264587 454.935272,661.070190 460.390686,665.739197 
	C468.084961,672.324219 475.510162,679.352173 483.830017,685.052917 
	C505.835205,700.130676 526.622864,697.869263 545.504272,679.135803 
	C547.510803,677.144958 549.524170,675.161011 551.776123,673.395508 
	C547.342346,701.398376 534.351135,723.066711 507.754944,735.251282 
	C477.701263,749.019836 446.751831,753.223511 414.304077,745.870422 
	C406.628235,744.130981 400.272797,740.867554 397.014709,733.745361 
	C393.789490,726.695007 391.627991,719.158020 388.999878,711.834534 
z"/>
<path fill="#573C2C" opacity="1.000000" stroke="none" 
	d="
M260.926849,732.853455 
	C240.069168,721.783020 232.546127,702.499939 228.195038,681.263306 
	C228.554703,680.893066 228.914368,680.522766 229.274033,680.152527 
	C230.718521,681.003052 232.178635,681.828247 233.604553,682.708801 
	C237.843750,685.326782 241.905670,688.288574 246.330246,690.539246 
	C261.365631,698.187683 275.165955,695.129028 287.553619,684.658447 
	C292.993011,680.060913 298.341492,675.080139 302.608765,669.426147 
	C313.103119,655.521484 326.612030,653.383362 342.822296,658.101624 
	C345.345245,660.544556 347.426880,662.486023 349.235992,664.654846 
	C358.936035,676.283264 365.687683,688.683044 365.275269,704.819336 
	C364.689301,727.747620 349.042786,741.123596 328.114380,742.947266 
	C305.052032,744.956848 282.644836,740.744141 260.926849,732.853455 
z"/>
<path fill="#39281E" opacity="1.000000" stroke="none" 
	d="
M388.871948,712.235474 
	C391.627991,719.158020 393.789490,726.695007 397.014709,733.745361 
	C400.272797,740.867554 406.628235,744.130981 414.304077,745.870422 
	C446.751831,753.223511 477.701263,749.019836 507.754944,735.251282 
	C534.351135,723.066711 547.342346,701.398376 552.039490,673.170532 
	C552.549988,672.092346 553.038940,671.460938 553.919922,670.323364 
	C554.361938,671.520691 554.878052,672.221802 554.824951,672.876770 
	C553.430786,690.086792 551.273682,707.065857 539.820984,721.161316 
	C530.241394,732.951416 517.648865,740.726685 504.277191,747.234802 
	C481.611328,758.266418 457.587128,763.804077 432.329254,762.973511 
	C415.831360,762.430969 402.172821,756.027832 393.871216,741.081177 
	C389.002075,732.314575 387.236908,722.697876 388.871948,712.235474 
z"/>
<path fill="#39281E" opacity="1.000000" stroke="none" 
	d="
M261.096985,733.160278 
	C282.644836,740.744141 305.052032,744.956848 328.114380,742.947266 
	C349.042786,741.123596 364.689301,727.747620 365.275269,704.819336 
	C365.687683,688.683044 358.936035,676.283264 349.235992,664.654846 
	C347.426880,662.486023 345.345245,660.544556 343.186157,658.230103 
	C347.701080,660.893677 353.787720,662.796387 356.899536,666.935608 
	C370.107605,684.504211 375.018829,704.385986 368.654968,725.865967 
	C364.221619,740.830017 353.295441,749.420227 337.971466,751.741882 
	C318.064880,754.757751 298.727936,751.842651 280.272827,744.031616 
	C273.636047,741.222595 267.585327,737.028809 261.096985,733.160278 
z"/>
</svg>