<?xml version="1.0" encoding="UTF-8"?>
<svg version="1.1" xmlns="http://www.w3.org/2000/svg" width="1080" height="1080">
<path d="M0 0 C0 0.99 0 1.98 0 3 C-6.22806516 8.88388261 -14.8465906 12.94684015 -22.171875 17.30102539 C-27.9283045 20.73039902 -33.62113983 24.23989183 -39.25 27.875 C-39.91588135 28.30264648 -40.5817627 28.73029297 -41.26782227 29.17089844 C-45.35396589 31.82867017 -49.24950046 34.67253239 -53.12988281 37.62109375 C-56.4304317 40.05470995 -59.96492683 42.0948207 -63.484375 44.19140625 C-66.13980958 45.91946926 -66.13980958 45.91946926 -68.0625 48.6640625 C-70 51 -70 51 -72.015625 51.64453125 C-72.75296875 51.69996094 -73.4903125 51.75539063 -74.25 51.8125 C-79.52519322 52.61009658 -83.78912132 54.6092238 -88.5 57 C-89.20672852 57.35682861 -89.91345703 57.71365723 -90.64160156 58.08129883 C-93.41504547 59.51809872 -95.77840339 60.77840339 -98 63 C-100.0246582 63.49658203 -100.0246582 63.49658203 -102.48828125 63.8828125 C-108.03300689 64.90507459 -112.99083316 66.72603247 -118.1875 68.875 C-119.03763672 69.21402344 -119.88777344 69.55304688 -120.76367188 69.90234375 C-124.5519392 71.44105311 -128.09934548 72.9963258 -131.55078125 75.1953125 C-135.17004986 77.08897286 -137.42022612 77.40979923 -141.38964844 77.69921875 C-146.91651941 78.33605985 -152.2676313 80.04368471 -157.625 81.5 C-171.2540096 85.18071951 -171.2540096 85.18071951 -178 86 C-179.91978529 86.44508989 -181.83636133 86.90418414 -183.75 87.375 C-194.28634185 89.67526633 -205.01826806 90.57463341 -215.73486328 91.65478516 C-218.5583261 91.95330291 -221.36915221 92.29564101 -224.18359375 92.66796875 C-259.30099637 97.08426969 -297.74371709 92.81980819 -332 85 C-333.27617187 84.72027344 -334.55234375 84.44054687 -335.8671875 84.15234375 C-338.92094899 83.46916728 -341.96034995 82.74320034 -345 82 C-346.25425781 81.70480469 -347.50851562 81.40960937 -348.80078125 81.10546875 C-355.62303371 79.47613883 -362.3010715 77.6520249 -368.9375 75.375 C-375.57086252 73.10110286 -381.90811498 71.34908379 -388.875 70.5625 C-392 70 -392 70 -393.28125 68.62890625 C-395.75945113 66.28024745 -398.42160629 65.51258862 -401.625 64.375 C-402.2530957 64.15118652 -402.88119141 63.92737305 -403.52832031 63.69677734 C-406.98113208 62.51657897 -410.10874311 61.755511 -413.75 61.625 C-418.6652665 61.32517783 -421.60738989 58.70230928 -425.42578125 55.7890625 C-429.31999596 53.08261282 -433.53610098 51.52912285 -438 50 C-438 49.34 -438 48.68 -438 48 C-439.19625 47.67 -440.3925 47.34 -441.625 47 C-452.54818163 43.34745346 -466.69535275 35.91566812 -473 26 C-473 25.01 -473 24.02 -473 23 C-468.12335991 22.65166856 -465.22949995 23.58314288 -461 26 C-461 26.66 -461 27.32 -461 28 C-460.16339844 28.25265625 -459.32679688 28.5053125 -458.46484375 28.765625 C-454.64989466 30.12472749 -451.14389106 31.88344249 -447.5625 33.75 C-442.11583309 36.5164804 -436.64179722 39.15374934 -431 41.5 C-429.845 41.9846875 -428.69 42.469375 -427.5 42.96875 C-423.39900634 44.17707849 -420.25881943 44.08817432 -416 44 C-412.625 45.25 -412.625 45.25 -410 47 C-409.71382813 47.67289063 -409.42765625 48.34578125 -409.1328125 49.0390625 C-408.16459277 51.20762496 -408.16459277 51.20762496 -405.828125 51.7578125 C-404.55195313 51.93957031 -404.55195313 51.93957031 -403.25 52.125 C-399.31282946 52.76711365 -395.78208355 53.7124822 -392 55 C-390.54439788 55.32498434 -389.08572879 55.63639577 -387.625 55.9375 C-384.67314837 56.56722835 -381.93308223 57.33268076 -379.125 58.4375 C-372.92003044 60.87251794 -366.46296247 62.84671292 -359.8125 63.5 C-356 64 -356 64 -352.734375 65.3359375 C-346.22078844 67.85441397 -339.27780824 68.85353175 -332.4375 70.125 C-331.03959654 70.39131367 -329.64180898 70.65823646 -328.24414062 70.92578125 C-319.00684822 72.68019655 -310.28764124 74.14570264 -300.8671875 73.83984375 C-298 74 -298 74 -295.63085938 74.97192383 C-285.00261576 79.12518421 -270.6625758 77.24116266 -259.375 77.25 C-258.36432465 77.25133942 -257.35364929 77.25267883 -256.31234741 77.25405884 C-217.16907502 78.29803066 -217.16907502 78.29803066 -179.64453125 69.97265625 C-176.34448956 68.75890384 -173.25347453 68.59603797 -169.76464844 68.29980469 C-164.97322645 67.78021212 -160.31817511 66.69772574 -155.625 65.625 C-154.65433594 65.41617188 -153.68367188 65.20734375 -152.68359375 64.9921875 C-151.74902344 64.78078125 -150.81445312 64.569375 -149.8515625 64.3515625 C-149.01447754 64.16416504 -148.17739258 63.97676758 -147.31494141 63.78369141 C-144.75464993 62.91694013 -143.11987928 61.64891856 -141 60 C-138.36328125 59.48046875 -138.36328125 59.48046875 -135.3125 59.1875 C-129.61868435 58.41370852 -124.41367025 57.04901606 -119 55.1875 C-117.92359253 54.8330481 -117.92359253 54.8330481 -116.82543945 54.47143555 C-112.11102158 52.78830906 -109.48335757 50.69150196 -106 47 C-100.19181537 45.57342834 -100.19181537 45.57342834 -97.19921875 46.64453125 C-93.82548005 47.18984248 -91.48929907 45.85953878 -88.375 44.5625 C-82.16076294 42 -82.16076294 42 -80 42 C-79.690625 41.360625 -79.38125 40.72125 -79.0625 40.0625 C-78 38 -78 38 -77 37 C-75.84757812 37.05929687 -74.69515625 37.11859375 -73.5078125 37.1796875 C-68.31697995 37.23282019 -64.45662799 35.40593574 -59.875 33.125 C-59.04387695 32.72079834 -58.21275391 32.31659668 -57.35644531 31.90014648 C-50.28254558 28.35434403 -44.03849964 24.06846363 -37.74755859 19.30566406 C-34.57463058 16.93505509 -31.32918643 14.67636941 -28.0625 12.4375 C-27.45954102 12.00767822 -26.85658203 11.57785645 -26.23535156 11.13500977 C-22.1030643 8.31852976 -18.89159034 7.6182276 -14 7 C-11.41782371 5.99982554 -9.00275502 4.74155163 -6.5625 3.4375 C-5.92634766 3.10814453 -5.29019531 2.77878906 -4.63476562 2.43945312 C-3.08505424 1.63546752 -1.54181678 0.81902334 0 0 Z " fill="#2B2933" transform="translate(751,868)"/>
<path d="M0 0 C0 0.99 0 1.98 0 3 C-6.22806516 8.88388261 -14.8465906 12.94684015 -22.171875 17.30102539 C-27.9283045 20.73039902 -33.62113983 24.23989183 -39.25 27.875 C-39.91588135 28.30264648 -40.5817627 28.73029297 -41.26782227 29.17089844 C-45.36388119 31.83511943 -49.28382783 34.67561904 -53.17480469 37.63037109 C-55.39624887 39.29734566 -57.67828978 40.85137767 -60 42.375 C-60.763125 42.87773438 -61.52625 43.38046875 -62.3125 43.8984375 C-62.869375 44.26195312 -63.42625 44.62546875 -64 45 C-64.66 44.67 -65.32 44.34 -66 44 C-64.02 41.69 -62.04 39.38 -60 37 C-60.78375 37.20625 -61.5675 37.4125 -62.375 37.625 C-63.24125 37.74875 -64.1075 37.8725 -65 38 C-65.66 37.34 -66.32 36.68 -67 36 C-65.93523438 35.53851562 -64.87046875 35.07703125 -63.7734375 34.6015625 C-54.28291593 30.37890753 -46.06690597 25.54836797 -37.77978516 19.32177734 C-34.59074467 16.95340077 -31.33819005 14.68389653 -28.0625 12.4375 C-27.45970215 12.00775879 -26.8569043 11.57801758 -26.23583984 11.13525391 C-22.10329213 8.31880419 -18.89183214 7.61825816 -14 7 C-11.41782371 5.99982554 -9.00275502 4.74155163 -6.5625 3.4375 C-5.92634766 3.10814453 -5.29019531 2.77878906 -4.63476562 2.43945312 C-3.08505424 1.63546752 -1.54181678 0.81902334 0 0 Z " fill="#22212F" transform="translate(751,868)"/>
<path d="M0 0 C4.87664009 -0.34833144 7.77050005 0.58314288 12 3 C12 3.66 12 4.32 12 5 C12.82371094 5.2475 13.64742188 5.495 14.49609375 5.75 C18.54389092 7.19403021 22.24851239 9.03424728 26.0625 11 C30.31882003 13.18151221 34.51292822 15.32062811 39 17 C38 20 38 20 36 21 C36.99 21.66 37.98 22.32 39 23 C39 23.99 39 24.98 39 26 C39.99 26.33 40.98 26.66 42 27 C42 27.66 42 28.32 42 29 C39.69 28.34 37.38 27.68 35 27 C35 26.34 35 25.68 35 25 C33.80375 24.67 32.6075 24.34 31.375 24 C20.45181837 20.34745346 6.30464725 12.91566812 0 3 C0 2.01 0 1.02 0 0 Z " fill="#23212F" transform="translate(278,891)"/>
<path d="M0 0 C0 1.98 0 3.96 0 6 C-4.95036281 7.5236831 -9.72210978 8.50895109 -14.875 9.1875 C-15.55046875 9.28224609 -16.2259375 9.37699219 -16.921875 9.47460938 C-18.60908777 9.6965219 -20.30451957 9.85412949 -22 10 C-23 9 -23 9 -23.0625 5.9375 C-23.041875 4.968125 -23.02125 3.99875 -23 3 C-15.19923076 0.21401099 -8.20856657 -0.13145391 0 0 Z " fill="#E2BA09" transform="translate(570,944)"/>
<path d="M0 0 C-0.33 1.65 -0.66 3.3 -1 5 C-5.26616316 6.13764351 -8.56486311 7 -13 7 C-13 7.66 -13 8.32 -13 9 C-16.67410785 10.17571451 -20.16929183 10.07366746 -24 10 C-24 8.35 -24 6.7 -24 5 C-20.37579876 4.1631665 -16.75051363 3.33112766 -13.125 2.5 C-11.57619141 2.14228516 -11.57619141 2.14228516 -9.99609375 1.77734375 C-9.00996094 1.55175781 -8.02382813 1.32617188 -7.0078125 1.09375 C-5.64100342 0.77954102 -5.64100342 0.77954102 -4.24658203 0.45898438 C-2 0 -2 0 0 0 Z " fill="#F2C704" transform="translate(606,936)"/>
<path d="M0 0 C0 1.65 0 3.3 0 5 C-6.69613196 5.797837 -13.25766581 6.12910853 -20 6 C-20.33 4.35 -20.66 2.7 -21 1 C-13.97360585 0.25194283 -7.06608191 -0.13794954 0 0 Z " fill="#FCCF01" transform="translate(535,949)"/>
<path d="M0 0 C2.60590351 0.44981073 5.20940531 0.90944222 7.8125 1.375 C8.55048828 1.50132812 9.28847656 1.62765625 10.04882812 1.7578125 C13.60594646 2.40163482 15.95494084 2.96996056 19 5 C18.67 6.32 18.34 7.64 18 9 C11.57409836 8.0122936 5.85797948 6.86390108 0 4 C0 2.68 0 1.36 0 0 Z " fill="#DDB60A" transform="translate(398,938)"/>
<path d="M0 0 C0 0.66 0 1.32 0 2 C-7.26 4.64 -14.52 7.28 -22 10 C-22.33 8.68 -22.66 7.36 -23 6 C-19.73443413 4.79764762 -16.46184085 3.61572409 -13.1875 2.4375 C-12.25873047 2.09525391 -11.32996094 1.75300781 -10.37304688 1.40039062 C-9.48037109 1.08134766 -8.58769531 0.76230469 -7.66796875 0.43359375 C-6.84578857 0.13509521 -6.0236084 -0.16340332 -5.17651367 -0.47094727 C-3 -1 -3 -1 0 0 Z " fill="#F8CC02" transform="translate(643,926)"/>
<path d="M0 0 C5.28 0.33 10.56 0.66 16 1 C16 2.65 16 4.3 16 6 C10.72 5.67 5.44 5.34 0 5 C0 3.35 0 1.7 0 0 Z " fill="#F4C803" transform="translate(458,949)"/>
<path d="M0 0 C4.62 0 9.24 0 14 0 C13.67 1.65 13.34 3.3 13 5 C8.71 5 4.42 5 0 5 C0 3.35 0 1.7 0 0 Z " fill="#ECC205" transform="translate(487,951)"/>
<path d="M0 0 C6.0509304 1.16554807 12.03466226 2.45343096 18 4 C18 5.32 18 6.64 18 8 C11.16018724 7.48378772 5.36123316 5.51409031 -1 3 C-0.67 2.01 -0.34 1.02 0 0 Z " fill="#CEAA0E" transform="translate(370,931)"/>
<path d="M0 0 C1.11375 0.3403125 1.11375 0.3403125 2.25 0.6875 C3 2.4375 3 2.4375 3.25 4.6875 C1.625 7 1.625 7 -0.75 8.6875 C-3.5 8.4375 -3.5 8.4375 -5.75 7.6875 C-6.08 6.0375 -6.41 4.3875 -6.75 2.6875 C-4.29511132 0.41445492 -3.41240272 -0.38777304 0 0 Z " fill="#E2F3F4" transform="translate(614.75,931.3125)"/>
<path d="M0 0 C0.763125 0.20625 1.52625 0.4125 2.3125 0.625 C3 2.9375 3 2.9375 3.3125 5.625 C2.1875 7.5 2.1875 7.5 0.3125 8.625 C-4.10855263 8.20394737 -4.10855263 8.20394737 -5.6875 6.625 C-5.9375 4.1875 -5.9375 4.1875 -5.6875 1.625 C-2.6875 -0.375 -2.6875 -0.375 0 0 Z " fill="#E1F2F3" transform="translate(576.6875,941.375)"/>
<path d="M0 0 C2.27113803 0.14100857 4.54190725 0.28796755 6.8125 0.4375 C8.07707031 0.51871094 9.34164063 0.59992187 10.64453125 0.68359375 C14 1 14 1 17 2 C17 2.99 17 3.98 17 5 C5.47835991 4.22095672 5.47835991 4.22095672 0 2 C0 1.34 0 0.68 0 0 Z " fill="#F5C903" transform="translate(428,946)"/>
<path d="M0 0 C1.2684375 0.12375 1.2684375 0.12375 2.5625 0.25 C4.5625 3.25 4.5625 3.25 4.1875 5.4375 C3.98125 6.035625 3.775 6.63375 3.5625 7.25 C1.1875 7.875 1.1875 7.875 -1.4375 8.25 C-3.4375 6.25 -3.4375 6.25 -3.625 3.6875 C-3.37283591 0.40936685 -3.26721129 0.33509859 0 0 Z " fill="#E2F2F4" transform="translate(648.4375,918.75)"/>
<path d="M0 0 C2.00720923 0.28674418 4.0085944 0.61866701 6 1 C6.6875 2.8125 6.6875 2.8125 7 5 C5.8125 6.8125 5.8125 6.8125 4 8 C1.02602384 7.72963853 0.14553974 7.14553974 -2 5 C-1.46428571 1.46428571 -1.46428571 1.46428571 0 0 Z " fill="#E1F1F3" transform="translate(505,950)"/>
<path d="M0 0 C2.5 0.125 2.5 0.125 3.5 1.125 C3.54063832 2.79117115 3.542721 4.45888095 3.5 6.125 C1.85 6.785 0.2 7.445 -1.5 8.125 C-3.0625 6.875 -3.0625 6.875 -4.5 5.125 C-4.08147866 1.5675686 -3.71072057 0.18553603 0 0 Z " fill="#E3F4F5" transform="translate(451.5,945.875)"/>
<path d="M0 0 C1.67542976 0.28604898 3.34385343 0.61781233 5 1 C5.33 2.65 5.66 4.3 6 6 C4.35 6.66 2.7 7.32 1 8 C-0.5625 6.75 -0.5625 6.75 -2 5 C-1.74853421 2.86254078 -1.54074221 1.54074221 0 0 Z " fill="#E3F4F5" transform="translate(478,949)"/>
<path d="M0 0 C8.415 1.98 8.415 1.98 17 4 C17 4.99 17 5.98 17 7 C10.81839396 6.46246904 5.673142 4.45417612 0 2 C0 1.34 0 0.68 0 0 Z " fill="#EBC308" transform="translate(342,923)"/>
<path d="M0 0 C1.67542976 0.28604898 3.34385343 0.61781233 5 1 C5.33 2.65 5.66 4.3 6 6 C3.6875 6.625 3.6875 6.625 1 7 C0.01 6.34 -0.98 5.68 -2 5 C-1.125 1.125 -1.125 1.125 0 0 Z " fill="#E2F3F4" transform="translate(333,917)"/>
<path d="M0 0 C1.1446875 0.3403125 1.1446875 0.3403125 2.3125 0.6875 C1.9825 2.3375 1.6525 3.9875 1.3125 5.6875 C-0.6675 6.0175 -2.6475 6.3475 -4.6875 6.6875 C-5.375 4.875 -5.375 4.875 -5.6875 2.6875 C-3.97309355 -0.07459928 -3.26180423 -0.37927956 0 0 Z " fill="#E3F3F5" transform="translate(542.6875,947.3125)"/>
<path d="M0 0 C2.5625 0.1875 2.5625 0.1875 4.5625 2.1875 C4.1875 4.3125 4.1875 4.3125 3.5625 6.1875 C1.9125 6.1875 0.2625 6.1875 -1.4375 6.1875 C-2.0975 4.5375 -2.7575 2.8875 -3.4375 1.1875 C-2.4375 0.1875 -2.4375 0.1875 0 0 Z " fill="#E5F5F7" transform="translate(421.4375,942.8125)"/>
<path d="M0 0 C2.125 0.9375 2.125 0.9375 4 2 C3.67 3.65 3.34 5.3 3 7 C1.35 6.67 -0.3 6.34 -2 6 C-2 4.35 -2 2.7 -2 1 C-1.34 0.67 -0.68 0.34 0 0 Z " fill="#DEEEF0" transform="translate(391,935)"/>
<path d="M0 0 C-2.10016623 1.17441535 -4.20458755 2.33964012 -6.3125 3.5 C-6.90740234 3.83386719 -7.50230469 4.16773438 -8.11523438 4.51171875 C-10.95828844 6.06825114 -12.70660988 7 -16 7 C-15 4 -15 4 -12.3828125 2.578125 C-11.30773437 2.13984375 -10.23265625 1.7015625 -9.125 1.25 C-8.05507813 0.80140625 -6.98515625 0.3528125 -5.8828125 -0.109375 C-3 -1 -3 -1 0 0 Z " fill="#F0C605" transform="translate(672,915)"/>
<path d="M0 0 C1.65 0.33 3.3 0.66 5 1 C4.67 2.65 4.34 4.3 4 6 C2.35 5.67 0.7 5.34 -1 5 C-0.67 3.35 -0.34 1.7 0 0 Z " fill="#E7F8F9" transform="translate(362,928)"/>
<path d="M0 0 C4.89331723 1.46799517 9.63043025 3.33028674 14 6 C14.33 6.66 14.66 7.32 15 8 C10.25779349 7.40722419 6.00706312 5.56522805 2 3 C1.34 2.01 0.68 1.02 0 0 Z " fill="#E6BF09" transform="translate(313,911)"/>
<path d="M0 0 C1.98 0.495 1.98 0.495 4 1 C3.67 2.65 3.34 4.3 3 6 C1.68 5.67 0.36 5.34 -1 5 C-0.67 3.35 -0.34 1.7 0 0 Z " fill="#E3F3F5" transform="translate(676,909)"/>
<path d="M0 0 C-0.99 1.485 -0.99 1.485 -2 3 C-4.625 3.1875 -4.625 3.1875 -7 3 C-7.33 2.01 -7.66 1.02 -8 0 C-2.25 -1.125 -2.25 -1.125 0 0 Z " fill="#1C1B27" transform="translate(571,940)"/>
<path d="M0 0 C2.64 0.99 5.28 1.98 8 3 C7.67 3.66 7.34 4.32 7 5 C3 5 3 5 1.25 3.625 C0 2 0 2 0 0 Z " fill="#3C3939" transform="translate(317,915)"/>
</svg>
