<svg version="1.1" id="Layer_1" xmlns="http://www.w3.org/2000/svg" xmlns:xlink="http://www.w3.org/1999/xlink" x="0px" y="0px"
	 width="100%" viewBox="0 0 1080 1080" enable-background="new 0 0 1080 1080" xml:space="preserve">

<path fill="#C6E8EF" opacity="1.000000" stroke="none" 
	d="
M550.000000,1.000000 
	C563.354248,1.000000 576.708435,1.000000 590.570557,1.375643 
	C596.534912,18.832596 602.316406,35.819382 607.321899,53.031837 
	C610.173401,62.837074 611.757690,73.010803 613.888916,83.294235 
	C613.857056,83.938560 613.848938,84.307259 613.552917,84.901611 
	C601.739258,110.838989 599.962646,137.055435 610.014648,163.557983 
	C614.846802,176.298126 621.906982,187.719360 633.909180,195.430176 
	C633.929016,195.613068 634.039307,195.964050 634.015503,196.428085 
	C633.336548,203.968506 632.681519,211.044876 631.699341,217.978241 
	C624.406372,211.685150 615.964600,211.775925 607.394043,211.916412 
	C595.563721,212.110336 585.867798,219.357727 582.864075,230.839127 
	C580.664001,239.248627 582.857422,247.025238 587.107727,254.215881 
	C592.874146,263.971344 601.954041,268.609497 612.848511,270.244934 
	C604.352539,284.833252 593.683533,297.275604 581.660583,308.507721 
	C577.643372,312.260620 572.555542,314.867340 567.977844,317.616577 
	C573.101990,304.989655 574.068481,292.390076 570.299866,279.702209 
	C562.912354,254.830597 541.273987,241.051605 513.061340,243.259384 
	C478.584351,245.957352 463.175446,276.316345 467.648987,303.014343 
	C471.307495,324.848328 485.148560,338.183685 504.977661,346.049011 
	C490.671661,347.525238 476.672821,348.883209 462.645355,349.807129 
	C457.720886,350.131409 452.726196,349.390167 447.351929,349.135956 
	C440.022308,347.951233 433.104309,346.766052 426.138977,345.236450 
	C419.731354,329.604614 408.149841,320.744232 391.952148,318.539795 
	C380.895782,317.035095 370.597412,320.408813 360.729004,326.075073 
	C344.215027,319.458099 328.999176,311.088745 315.838104,299.723694 
	C291.807343,278.972321 286.073273,263.434296 298.369598,234.750854 
	C309.653748,208.428482 322.037628,182.403351 336.199524,157.535782 
	C351.647339,130.410248 369.514984,104.646706 386.698669,78.533478 
	C393.901123,67.588257 402.057587,57.270779 409.884369,47.026680 
	C414.163910,50.191254 418.016602,54.626961 422.569244,55.528717 
	C445.788391,60.127785 461.109192,40.640110 459.656219,21.020021 
	C459.046356,12.784388 454.977478,6.382391 449.000000,1.000000 
	C460.687561,1.000000 472.375122,1.000000 484.483826,1.387468 
	C487.433136,11.571281 493.040863,18.616385 503.443268,19.983969 
	C509.575867,20.790216 516.122070,21.060635 522.109863,19.801319 
	C533.708191,17.362038 543.882080,11.971327 550.000000,1.000000 
M497.887360,120.305908 
	C484.769165,129.100006 477.106384,141.485092 475.470276,157.026398 
	C472.369598,186.479950 491.654541,207.985062 522.620056,200.973175 
	C544.030212,196.125015 562.417603,173.211441 562.977783,151.216476 
	C563.378479,135.482208 554.616882,120.817345 541.212646,116.248070 
	C526.590149,111.263512 512.097107,111.284271 497.887360,120.305908 
M373.183563,126.551788 
	C355.499725,133.203415 343.574158,153.038651 346.450531,169.854309 
	C350.235901,191.984253 370.832397,201.627228 391.706390,198.569321 
	C408.777374,196.068558 420.534576,185.780655 429.296478,171.648026 
	C439.878265,154.580078 430.585785,130.305435 411.051544,125.606430 
	C398.864746,122.674850 386.196320,121.332230 373.183563,126.551788 
M532.971741,38.557251 
	C529.027039,44.434605 527.400574,50.898346 527.785461,57.965382 
	C528.405884,69.359688 536.053589,79.285599 547.407104,83.199394 
	C558.498474,87.022804 571.579224,83.781509 578.976318,75.376778 
	C587.504028,65.687340 589.515625,53.494350 583.780945,43.045010 
	C578.445557,33.323315 570.454590,28.085501 558.809143,27.824108 
	C548.583069,27.594576 539.540833,28.721764 532.971741,38.557251 
M326.440613,247.098175 
	C321.266205,255.993988 320.287415,265.298279 324.374512,274.788208 
	C330.527924,289.075958 347.300537,295.688171 362.015991,289.880127 
	C376.353180,284.221436 383.675659,267.361115 378.292664,252.169617 
	C374.887909,242.560883 367.939514,236.455490 358.018219,235.135239 
	C345.961548,233.530853 334.172028,234.307190 326.440613,247.098175 
M424.547028,209.988174 
	C418.291687,212.130722 411.893158,213.893204 407.894562,219.962585 
	C401.467804,229.717636 402.616180,242.919281 410.882996,251.686691 
	C420.541687,261.930298 434.286499,263.938416 446.306366,256.862152 
	C455.886047,251.222443 459.757141,239.400497 456.472717,227.643997 
	C452.718048,214.204147 436.280579,203.952454 424.547028,209.988174 
M446.197845,106.564171 
	C448.393066,107.290993 450.541534,108.246834 452.791351,108.706398 
	C464.746124,111.148361 477.469086,98.924164 475.615112,86.870293 
	C474.089508,76.951393 467.121460,69.722366 458.351746,68.960327 
	C448.095917,68.069160 439.900116,73.038757 436.760529,82.052391 
	C433.527893,91.333160 436.818420,100.321472 446.197845,106.564171 
z"/>
<path fill="#2C2B3C" opacity="1.000000" stroke="none" 
	d="
M426.186310,345.580872 
	C433.104309,346.766052 440.022308,347.951233 447.693207,349.372894 
	C458.202209,350.686188 467.934479,352.121063 477.718964,352.771118 
	C504.512878,354.551270 531.296143,354.485931 558.084106,352.073853 
	C587.157471,349.456024 615.787659,344.607727 643.583862,335.627258 
	C661.319946,329.897064 678.583191,322.928711 694.322754,311.987854 
	C706.061157,305.010071 716.084961,296.526703 722.981140,285.071167 
	C725.527649,280.841003 727.413879,275.519958 727.495361,270.661102 
	C727.618896,263.293762 726.295959,255.818420 724.864624,248.530960 
	C723.248047,240.300476 720.831543,232.227097 718.711670,223.730667 
	C717.648132,220.741501 716.712830,218.074310 715.610413,215.478119 
	C709.807190,201.811935 703.961670,188.163696 698.123474,174.173859 
	C697.828796,173.061234 697.599304,172.256607 697.245850,171.510696 
	C685.641968,147.020035 674.116455,122.491615 662.375793,98.066620 
	C656.046509,84.899269 649.345825,71.910416 642.794067,58.492599 
	C633.850281,39.096107 624.925110,20.048061 616.000000,1.000007 
	C619.692932,1.000000 623.385803,1.000000 627.539368,0.999999 
	C629.552429,5.406247 630.782776,9.960086 632.721313,14.189369 
	C637.380981,24.355371 642.616333,34.260551 647.168518,44.472000 
	C652.810913,57.129181 657.872253,70.044273 663.421326,82.744476 
	C667.995178,93.212502 672.941956,103.517029 677.670532,113.918053 
	C681.348633,122.008469 684.887085,130.162643 688.596313,138.238525 
	C691.660339,144.909546 694.973083,151.466690 698.012878,158.148300 
	C701.525208,165.868500 704.796570,173.698151 708.290466,181.427002 
	C711.090759,187.621613 714.131897,193.707184 716.944946,199.896255 
	C719.234558,204.933640 721.099182,210.176651 723.590942,215.106766 
	C727.433533,222.709702 731.736328,230.079117 735.649841,237.647919 
	C736.625854,239.535599 736.859314,241.807205 737.684875,244.396790 
	C738.065430,245.850220 738.126770,246.824387 738.335754,247.765732 
	C740.141846,255.900436 741.095215,264.011078 737.824219,272.036469 
	C734.478088,283.415253 727.960266,293.177155 720.544739,302.017426 
	C715.130981,308.471344 707.754578,313.290680 701.185242,318.757141 
	C698.906372,320.653412 696.621338,322.702942 694.002075,324.003754 
	C676.119690,332.884460 657.905945,341.152130 638.741577,346.758240 
	C624.375732,350.960693 609.624207,353.959167 594.916260,356.838806 
	C584.818054,358.815918 574.505066,359.710083 564.279053,361.017548 
	C545.724854,363.389801 527.045959,364.525818 508.398865,363.752106 
	C489.367950,362.962433 470.346466,361.236786 451.408875,359.129669 
	C435.782928,357.390991 420.245331,354.724762 404.753265,351.989838 
	C399.449310,351.053467 394.400543,348.667206 389.238190,346.934479 
	C382.900635,344.807312 376.701569,342.000977 370.200317,340.687683 
	C359.109955,338.447357 349.395477,333.186157 339.460846,328.312134 
	C335.314148,326.277710 330.757446,324.647095 327.276550,321.760406 
	C309.914276,307.362091 291.541168,293.689331 284.248077,269.908630 
	C283.362488,267.482727 282.572357,265.691315 282.493774,263.869171 
	C282.147888,255.847748 280.668854,247.720215 284.174500,239.963501 
	C286.153809,235.237366 288.137848,230.513184 290.105011,225.781998 
	C290.294128,225.327133 290.238678,224.708221 290.531769,224.367905 
	C303.651886,209.135651 309.351685,189.785980 319.226868,172.766479 
	C331.882599,150.954788 344.662170,129.203156 357.953003,107.775894 
	C366.619568,93.803818 376.246613,80.424782 385.526642,66.836937 
	C391.406006,58.228325 397.355988,49.665276 403.421265,41.186909 
	C412.870605,27.978149 422.444824,14.858715 431.983093,1.350718 
	C435.030609,1.000000 438.061188,1.000000 441.505493,1.344167 
	C437.735291,7.477426 433.522522,13.245912 429.374176,19.060366 
	C422.820190,28.246677 416.309418,37.463825 409.780334,46.667915 
	C402.057587,57.270779 393.901123,67.588257 386.698669,78.533478 
	C369.514984,104.646706 351.647339,130.410248 336.199524,157.535782 
	C322.037628,182.403351 309.653748,208.428482 298.369598,234.750854 
	C286.073273,263.434296 291.807343,278.972321 315.838104,299.723694 
	C328.999176,311.088745 344.215027,319.458099 360.953217,326.322235 
	C382.374237,335.395050 403.873322,341.876251 426.186310,345.580872 
z"/>
<path fill="#7CB3EF" opacity="1.000000" stroke="none" 
	d="
M615.531372,1.000007 
	C624.925110,20.048061 633.850281,39.096107 642.398743,58.481689 
	C639.393616,59.717308 636.609619,60.312256 634.164429,61.567368 
	C624.920227,66.312614 619.553528,74.815331 613.912598,83.018608 
	C611.757690,73.010803 610.173401,62.837074 607.321899,53.031837 
	C602.316406,35.819382 596.534912,18.832596 591.039185,1.375643 
	C599.020935,1.000000 607.041809,1.000000 615.531372,1.000007 
z"/>
<path fill="#1A6EA5" opacity="1.000000" stroke="none" 
	d="
M409.884399,47.026688 
	C416.309418,37.463825 422.820190,28.246677 429.374176,19.060366 
	C433.522522,13.245912 437.735291,7.477426 441.959595,1.344167 
	C444.041656,1.000000 446.083344,1.000000 448.562500,1.000000 
	C454.977478,6.382391 459.046356,12.784388 459.656219,21.020021 
	C461.109192,40.640110 445.788391,60.127785 422.569244,55.528717 
	C418.016602,54.626961 414.163910,50.191254 409.884399,47.026688 
z"/>
<path fill="#FF884D" opacity="1.000000" stroke="none" 
	d="
M549.531372,1.000000 
	C543.882080,11.971327 533.708191,17.362038 522.109863,19.801319 
	C516.122070,21.060635 509.575867,20.790216 503.443268,19.983969 
	C493.040863,18.616385 487.433136,11.571281 484.952454,1.387468 
	C506.354218,1.000000 527.708435,1.000000 549.531372,1.000000 
z"/>
<path fill="#7CB3EF" opacity="1.000000" stroke="none" 
	d="
M693.990662,312.101501 
	C678.583191,322.928711 661.319946,329.897064 643.583862,335.627258 
	C615.787659,344.607727 587.157471,349.456024 558.084106,352.073853 
	C531.296143,354.485931 504.512878,354.551270 477.718964,352.771118 
	C467.934479,352.121063 458.202209,350.686188 448.104858,349.372437 
	C452.726196,349.390167 457.720886,350.131409 462.645355,349.807129 
	C476.672821,348.883209 490.671661,347.525238 505.366882,346.099976 
	C520.325806,349.159912 533.936340,347.723114 546.814026,340.395538 
	C555.769348,335.299744 561.731323,327.434509 567.368958,318.900879 
	C567.827515,318.558258 567.974121,318.285217 568.007812,317.977112 
	C568.008301,318.002899 567.957092,317.998016 567.957092,317.998016 
	C572.555542,314.867340 577.643372,312.260620 581.660583,308.507721 
	C593.683533,297.275604 604.352539,284.833252 613.102783,270.100494 
	C613.629272,269.521667 613.792969,269.416138 614.327881,269.421692 
	C627.760254,268.201050 637.609802,262.181763 641.657043,249.281525 
	C645.397949,237.357773 640.249878,227.631775 632.220215,218.811935 
	C632.138855,218.586761 632.026428,218.121246 632.026489,218.121246 
	C632.681519,211.044876 633.336548,203.968506 634.356873,196.511459 
	C644.399841,202.308807 655.141968,204.343002 666.280334,202.898865 
	C679.161987,201.228699 696.550293,191.470093 698.130859,174.509201 
	C703.961670,188.163696 709.807190,201.811935 715.610413,215.478119 
	C716.712830,218.074310 717.648132,220.741501 718.267090,223.663696 
	C708.957031,223.482864 700.263672,224.043365 692.550659,229.301147 
	C664.917786,248.137787 661.744080,294.878967 693.990662,312.101501 
z"/>
<path fill="#FF52B2" opacity="1.000000" stroke="none" 
	d="
M567.170288,319.031342 
	C561.731323,327.434509 555.769348,335.299744 546.814026,340.395538 
	C533.936340,347.723114 520.325806,349.159912 505.662781,345.810913 
	C485.148560,338.183685 471.307495,324.848328 467.648987,303.014343 
	C463.175446,276.316345 478.584351,245.957352 513.061340,243.259384 
	C541.273987,241.051605 562.912354,254.830597 570.299866,279.702209 
	C574.068481,292.390076 573.101990,304.989655 567.977844,317.616577 
	C567.957092,317.998016 568.008301,318.002899 567.775635,318.069611 
	C567.418823,318.434662 567.294556,318.733002 567.170288,319.031342 
z"/>
<path fill="#1055A5" opacity="1.000000" stroke="none" 
	d="
M698.123474,174.173859 
	C696.550293,191.470093 679.161987,201.228699 666.280334,202.898865 
	C655.141968,204.343002 644.399841,202.308807 634.380737,196.047424 
	C634.039307,195.964050 633.929016,195.613068 633.939331,194.984482 
	C633.908508,186.299911 635.217896,177.958252 633.585022,170.238968 
	C627.528442,141.606949 620.502625,113.179939 613.840820,84.675949 
	C613.848938,84.307259 613.857056,83.938560 613.888916,83.294235 
	C619.553528,74.815331 624.920227,66.312614 634.164429,61.567368 
	C636.609619,60.312256 639.393616,59.717308 642.417358,58.830132 
	C649.345825,71.910416 656.046509,84.899269 662.375793,98.066620 
	C674.116455,122.491615 685.641968,147.020035 697.245850,171.510696 
	C697.599304,172.256607 697.828796,173.061234 698.123474,174.173859 
z"/>
<path fill="#6BE658" opacity="1.000000" stroke="none" 
	d="
M498.188751,120.101074 
	C512.097107,111.284271 526.590149,111.263512 541.212646,116.248070 
	C554.616882,120.817345 563.378479,135.482208 562.977783,151.216476 
	C562.417603,173.211441 544.030212,196.125015 522.620056,200.973175 
	C491.654541,207.985062 472.369598,186.479950 475.470276,157.026398 
	C477.106384,141.485092 484.769165,129.100006 498.188751,120.101074 
z"/>
<path fill="#FF52B2" opacity="1.000000" stroke="none" 
	d="
M373.538757,126.380554 
	C386.196320,121.332230 398.864746,122.674850 411.051544,125.606430 
	C430.585785,130.305435 439.878265,154.580078 429.296478,171.648026 
	C420.534576,185.780655 408.777374,196.068558 391.706390,198.569321 
	C370.832397,201.627228 350.235901,191.984253 346.450531,169.854309 
	C343.574158,153.038651 355.499725,133.203415 373.538757,126.380554 
z"/>
<path fill="#FF52B2" opacity="1.000000" stroke="none" 
	d="
M533.176331,38.255741 
	C539.540833,28.721764 548.583069,27.594576 558.809143,27.824108 
	C570.454590,28.085501 578.445557,33.323315 583.780945,43.045010 
	C589.515625,53.494350 587.504028,65.687340 578.976318,75.376778 
	C571.579224,83.781509 558.498474,87.022804 547.407104,83.199394 
	C536.053589,79.285599 528.405884,69.359688 527.785461,57.965382 
	C527.400574,50.898346 529.027039,44.434605 533.176331,38.255741 
z"/>
<path fill="#1A6EA5" opacity="1.000000" stroke="none" 
	d="
M326.658508,246.802246 
	C334.172028,234.307190 345.961548,233.530853 358.018219,235.135239 
	C367.939514,236.455490 374.887909,242.560883 378.292664,252.169617 
	C383.675659,267.361115 376.353180,284.221436 362.015991,289.880127 
	C347.300537,295.688171 330.527924,289.075958 324.374512,274.788208 
	C320.287415,265.298279 321.266205,255.993988 326.658508,246.802246 
z"/>
<path fill="#FF884D" opacity="1.000000" stroke="none" 
	d="
M424.951965,209.965424 
	C436.280579,203.952454 452.718048,214.204147 456.472717,227.643997 
	C459.757141,239.400497 455.886047,251.222443 446.306366,256.862152 
	C434.286499,263.938416 420.541687,261.930298 410.882996,251.686691 
	C402.616180,242.919281 401.467804,229.717636 407.894562,219.962585 
	C411.893158,213.893204 418.291687,212.130722 424.951965,209.965424 
z"/>
<path fill="#FF884D" opacity="1.000000" stroke="none" 
	d="
M613.956726,269.310638 
	C613.792969,269.416138 613.629272,269.521667 613.211304,269.771637 
	C601.954041,268.609497 592.874146,263.971344 587.107727,254.215881 
	C582.857422,247.025238 580.664001,239.248627 582.864075,230.839127 
	C585.867798,219.357727 595.563721,212.110336 607.394043,211.916412 
	C615.964600,211.775925 624.406372,211.685150 631.699341,217.978241 
	C632.026428,218.121246 632.138855,218.586761 632.118408,219.222931 
	C631.764893,221.970047 631.620300,224.131699 631.068359,226.183792 
	C627.025940,241.214050 621.760132,255.768402 613.956726,269.310638 
z"/>
<path fill="#1A6EA5" opacity="1.000000" stroke="none" 
	d="
M613.552856,84.901611 
	C620.502625,113.179939 627.528442,141.606949 633.585022,170.238968 
	C635.217896,177.958252 633.908508,186.299911 633.919434,194.801605 
	C621.906982,187.719360 614.846802,176.298126 610.014648,163.557983 
	C599.962646,137.055435 601.739258,110.838989 613.552856,84.901611 
z"/>
<path fill="#FF884D" opacity="1.000000" stroke="none" 
	d="
M445.887573,106.350243 
	C436.818420,100.321472 433.527893,91.333160 436.760529,82.052391 
	C439.900116,73.038757 448.095917,68.069160 458.351746,68.960327 
	C467.121460,69.722366 474.089508,76.951393 475.615112,86.870293 
	C477.469086,98.924164 464.746124,111.148361 452.791351,108.706398 
	C450.541534,108.246834 448.393066,107.290993 445.887573,106.350243 
z"/>
<path fill="#6BE658" opacity="1.000000" stroke="none" 
	d="
M426.138977,345.236450 
	C403.873322,341.876251 382.374237,335.395050 361.319580,326.385437 
	C370.597412,320.408813 380.895782,317.035095 391.952148,318.539795 
	C408.149841,320.744232 419.731354,329.604614 426.138977,345.236450 
z"/>
<path fill="#44B058" opacity="1.000000" stroke="none" 
	d="
M694.322754,311.987854 
	C661.744080,294.878967 664.917786,248.137787 692.550659,229.301147 
	C700.263672,224.043365 708.957031,223.482864 718.318237,224.018433 
	C720.831543,232.227097 723.248047,240.300476 724.864624,248.530960 
	C726.295959,255.818420 727.618896,263.293762 727.495361,270.661102 
	C727.413879,275.519958 725.527649,280.841003 722.981140,285.071167 
	C716.084961,296.526703 706.061157,305.010071 694.322754,311.987854 
z"/>
<path fill="#A2694E" opacity="1.000000" stroke="none" 
	d="
M614.327881,269.421692 
	C621.760132,255.768402 627.025940,241.214050 631.068359,226.183792 
	C631.620300,224.131699 631.764893,221.970047 632.199829,219.448120 
	C640.249878,227.631775 645.397949,237.357773 641.657043,249.281525 
	C637.609802,262.181763 627.760254,268.201050 614.327881,269.421692 
z"/>
<path fill="#C6E8EF" opacity="1.000000" stroke="none" 
	d="
M567.368896,318.900879 
	C567.294556,318.733002 567.418823,318.434662 567.775208,318.043823 
	C567.974121,318.285217 567.827515,318.558258 567.368896,318.900879 
z"/>
</svg>