<svg version="1.1" id="Layer_1" xmlns="http://www.w3.org/2000/svg" xmlns:xlink="http://www.w3.org/1999/xlink" x="0px" y="0px"
	 width="100%" viewBox="0 0 1080 1080" enable-background="new 0 0 1080 1080" xml:space="preserve">

<path fill="#322F54" opacity="1.000000" stroke="none" 
	d="
M778.663452,1012.409302 
	C781.911316,1026.167969 785.365479,1039.882324 788.332336,1053.701416 
	C790.213013,1062.461060 791.368225,1071.376343 792.924377,1080.610962 
	C720.312439,1081.000000 647.624878,1081.000000 574.468628,1081.000000 
	C572.543457,1070.838745 571.031128,1060.684937 569.654297,1050.512817 
	C568.988403,1045.593262 568.577209,1040.639282 568.450928,1035.257080 
	C587.663086,1030.705933 606.399109,1026.201660 625.304138,1022.580017 
	C657.680054,1016.377747 690.330139,1011.777771 723.313293,1010.971558 
	C741.740601,1010.521179 760.211975,1011.870789 778.663452,1012.409302 
z"/>
<path fill="#333054" opacity="1.000000" stroke="none" 
	d="
M747.982788,884.060486 
	C763.554626,877.423767 779.208740,870.971619 794.666626,864.079346 
	C803.602661,860.095093 812.222290,855.401184 821.517029,851.309509 
	C826.342407,857.707397 831.702515,863.341980 834.713928,870.033508 
	C841.796387,885.771240 847.924805,901.949219 854.119446,918.072021 
	C859.168274,931.212585 861.928467,944.880127 862.002991,959.021362 
	C853.646179,961.014709 845.366760,963.463135 836.915588,964.902100 
	C821.565186,967.515808 806.133789,969.688721 790.695068,971.735962 
	C780.683228,973.063538 770.598450,973.841980 760.069946,974.450623 
	C759.306824,970.068359 758.464661,966.051025 758.822998,962.143738 
	C761.289612,935.246643 753.521667,909.816284 747.982788,884.060486 
z"/>
<path fill="#333054" opacity="1.000000" stroke="none" 
	d="
M278.413696,885.990479 
	C283.953796,887.614014 289.496094,889.230103 295.033569,890.862488 
	C313.148712,896.202698 331.262085,901.548767 349.683350,907.401123 
	C349.826538,909.557373 349.651184,911.204102 349.500183,912.853027 
	C347.033783,939.778198 339.235168,965.441956 331.015869,991.006348 
	C304.745911,989.768066 278.349579,990.628296 252.271774,986.166443 
	C248.365341,985.497986 244.378113,985.301819 240.098572,984.494263 
	C246.583603,966.102844 253.231445,948.038757 260.264893,930.126038 
	C266.078033,915.321350 272.346832,900.695557 278.413696,885.990479 
z"/>
<path fill="#333054" opacity="1.000000" stroke="none" 
	d="
M510.484863,998.704346 
	C493.584076,998.498840 476.683258,998.294250 459.782501,998.085815 
	C458.621002,998.071533 457.459869,998.027222 456.298492,998.000427 
	C440.058624,997.625977 423.818726,997.252258 407.176575,996.454224 
	C407.536438,992.970032 408.665558,989.949829 409.002197,986.843628 
	C411.488831,963.899658 413.817566,940.938599 416.195923,917.982910 
	C436.629974,918.663330 457.063477,919.360535 477.498291,920.018005 
	C489.796234,920.413696 502.096161,920.747620 514.844421,921.605713 
	C513.690735,947.636230 512.087769,973.170288 510.484863,998.704346 
z"/>
<path fill="#333054" opacity="1.000000" stroke="none" 
	d="
M589.878784,918.276245 
	C595.676025,917.205688 601.460449,916.058655 607.272888,915.078186 
	C629.291992,911.363708 651.324219,907.726440 673.339783,903.991089 
	C675.940491,903.549866 678.468750,902.681396 681.459534,902.391602 
	C690.199951,928.835938 692.792603,955.778320 694.200745,982.902710 
	C670.036133,985.948547 645.897156,989.223206 621.695374,991.938110 
	C610.511292,993.192749 599.204468,993.354492 587.456543,993.590576 
	C587.230103,991.547180 587.410278,989.903625 587.784729,988.305542 
	C591.665833,971.742493 593.406311,955.002319 591.903442,938.006775 
	C591.321106,931.421753 590.559021,924.852600 589.878784,918.276245 
z"/>
<path fill="#F8F4EF" opacity="1.000000" stroke="none" 
	d="
M862.420288,959.138428 
	C861.928467,944.880127 859.168274,931.212585 854.119446,918.072021 
	C847.924805,901.949219 841.796387,885.771240 834.713928,870.033508 
	C831.702515,863.341980 826.342407,857.707397 821.873413,851.289062 
	C837.500977,843.054932 853.304932,835.124146 869.608154,827.448364 
	C877.404663,837.340881 885.462280,846.502319 891.851929,856.708069 
	C908.765259,883.722656 922.925537,912.026123 928.009277,944.008179 
	C919.474487,946.536377 911.043701,949.523804 902.380615,951.485413 
	C889.284546,954.450745 876.026672,956.701172 862.420288,959.138428 
z"/>
<path fill="#F8F4EF" opacity="1.000000" stroke="none" 
	d="
M589.444824,918.160156 
	C590.559021,924.852600 591.321106,931.421753 591.903442,938.006775 
	C593.406311,955.002319 591.665833,971.742493 587.784729,988.305542 
	C587.410278,989.903625 587.230103,991.547180 586.994019,993.587341 
	C578.000244,994.981934 568.993835,996.370728 559.939392,996.845337 
	C543.721130,997.695557 527.473938,997.995422 510.861847,998.614868 
	C512.087769,973.170288 513.690735,947.636230 515.335083,921.647705 
	C537.765686,920.212097 560.154724,919.229004 582.544067,918.253357 
	C584.698608,918.159424 586.855286,918.112671 589.444824,918.160156 
z"/>
<path fill="#F8F4EF" opacity="1.000000" stroke="none" 
	d="
M694.634033,982.901123 
	C692.792603,955.778320 690.199951,928.835938 681.840210,902.363831 
	C703.595825,896.001709 725.399780,890.048096 747.593262,884.077454 
	C753.521667,909.816284 761.289612,935.246643 758.822998,962.143738 
	C758.464661,966.051025 759.306824,970.068359 759.636719,974.437256 
	C743.922668,977.015198 728.175049,979.264099 712.403015,981.327026 
	C706.654236,982.079041 700.847534,982.388306 694.634033,982.901123 
z"/>
<path fill="#F8F4EF" opacity="1.000000" stroke="none" 
	d="
M415.807770,917.833557 
	C413.817566,940.938599 411.488831,963.899658 409.002197,986.843628 
	C408.665558,989.949829 407.536438,992.970032 406.684357,996.409302 
	C385.727753,995.472412 364.859253,994.183594 343.995880,992.816833 
	C339.865051,992.546265 335.753906,991.976013 331.324768,991.275146 
	C339.235168,965.441956 347.033783,939.778198 349.500183,912.853027 
	C349.651184,911.204102 349.826538,909.557373 350.069153,907.494751 
	C365.154663,909.753479 380.144958,912.526062 395.176178,915.055481 
	C401.881561,916.183838 408.669250,916.823059 415.807770,917.833557 
z"/>
<path fill="#F8F4EF" opacity="1.000000" stroke="none" 
	d="
M278.082336,885.791992 
	C272.346832,900.695557 266.078033,915.321350 260.264893,930.126038 
	C253.231445,948.038757 246.583603,966.102844 239.638763,984.450989 
	C239.508636,984.800537 239.476715,984.884338 239.305481,984.665222 
	C238.773285,984.424744 238.412292,984.403381 238.051315,984.382080 
	C223.119125,981.610474 208.429657,978.036194 194.392914,970.727783 
	C201.970688,934.131653 219.133316,902.853210 243.020309,875.033325 
	C251.325714,877.482239 259.639282,879.904053 267.932526,882.393494 
	C271.228546,883.382874 274.479492,884.522339 278.082336,885.791992 
z"/>
<path fill="#F6F2ED" opacity="1.000000" stroke="none" 
	d="
M778.544373,1012.056519 
	C760.211975,1011.870789 741.740601,1010.521179 723.313293,1010.971558 
	C690.330139,1011.777771 657.680054,1016.377747 625.304138,1022.580017 
	C606.399109,1026.201660 587.663086,1030.705933 568.471497,1034.814941 
	C566.557922,1025.345215 565.023987,1015.873718 563.562317,1006.848755 
	C634.825500,998.986328 706.102112,991.122437 778.425293,983.143066 
	C778.425293,992.553589 778.425293,1002.128723 778.544373,1012.056519 
z"/>
<path fill="#333055" opacity="1.000000" stroke="none" 
	d="
M928.386475,943.985840 
	C922.925537,912.026123 908.765259,883.722656 891.851929,856.708069 
	C885.462280,846.502319 877.404663,837.340881 869.954773,827.402344 
	C873.435181,825.453613 877.011719,823.663818 880.714539,822.191833 
	C886.151978,820.030273 889.719666,824.356995 893.814453,826.451721 
	C901.131042,830.194641 903.738708,837.477051 905.931641,844.624268 
	C909.174927,855.195312 915.955261,863.000610 924.551697,869.241699 
	C935.489685,877.182861 943.661316,886.636169 947.695862,899.986755 
	C951.981689,914.169006 944.812073,933.113953 934.682800,941.607849 
	C933.137756,942.903564 930.757507,943.203247 928.386475,943.985840 
z"/>
<path fill="#333055" opacity="1.000000" stroke="none" 
	d="
M242.772629,874.779419 
	C219.133316,902.853210 201.970688,934.131653 194.075897,970.574829 
	C188.798416,967.548279 183.306381,964.417480 178.318069,960.624207 
	C173.334503,956.834595 171.688629,950.931702 173.630890,945.383301 
	C176.228271,937.963257 179.512482,930.521851 183.928391,924.065430 
	C189.653580,915.694763 192.861633,906.850403 194.091034,896.931702 
	C195.446320,885.997437 199.353470,876.351562 209.707169,870.664246 
	C215.437164,867.516907 221.190994,865.811890 227.691055,868.859253 
	C232.470657,871.100037 237.568771,872.661316 242.772629,874.779419 
z"/>
<path fill="#333054" opacity="1.000000" stroke="none" 
	d="
M238.275421,984.522217 
	C238.412292,984.403381 238.773285,984.424744 239.339691,984.637573 
	C239.196579,984.773438 238.848053,984.717896 238.275421,984.522217 
z"/>
</svg>