<?xml version="1.0" encoding="UTF-8"?>
<svg version="1.1" xmlns="http://www.w3.org/2000/svg" width="1080" height="1080">
<path d="M0 0 C9.04935274 1.68661771 17.43367031 6.19956302 23.1796875 13.40625 C26.92968456 19.528659 29.78722336 26.17723857 32.625 32.7578125 C36.31096022 40.90905024 41.30033806 45.78125487 48.1796875 51.40625 C50.24984256 53.1878817 52.3054044 54.98386555 54.3515625 56.79296875 C55.53291273 57.83548508 56.73008997 58.86045381 57.9453125 59.86328125 C66.08214426 67.10212933 70.73007945 78.39517742 74.390625 88.453125 C75.21004005 90.67130507 75.21004005 90.67130507 77.1796875 93.40625 C79.81422945 104.14707487 75.99832281 115.29751259 70.80859375 124.7265625 C70.27105469 125.61085938 69.73351562 126.49515625 69.1796875 127.40625 C68.51259766 128.51613281 68.51259766 128.51613281 67.83203125 129.6484375 C52.63108078 150.48387361 9.35278813 152.89937307 -14.18310547 157.55053711 C-18.55180451 158.41404411 -22.91658829 159.29579555 -27.28065872 160.18235588 C-77.72268363 170.40625 -77.72268363 170.40625 -94.8203125 170.40625 C-93.02607724 185.12481403 -90.55098215 199.38213582 -86.8203125 213.71875 C-84.44031409 222.88442953 -82.12685937 232.01705027 -80.4453125 241.34375 C-80.30222656 242.1272583 -80.15914062 242.9107666 -80.01171875 243.71801758 C-78.6023214 251.91698142 -77.79494918 260.12183821 -76.8203125 268.40625 C-158.3303125 268.40625 -239.8403125 268.40625 -323.8203125 268.40625 C-327.26608218 246.58304201 -327.26608218 246.58304201 -327.953125 239.73828125 C-328.03529266 238.96288498 -328.11746033 238.18748871 -328.20211792 237.38859558 C-328.45444504 234.99910036 -328.70019686 232.60899447 -328.9453125 230.21875 C-329.19909163 227.78940922 -329.45427008 225.36021952 -329.70993042 222.93107605 C-329.86606326 221.44303349 -330.02090007 219.95485405 -330.17410278 218.46650696 C-330.53388207 214.99357807 -330.92486435 211.52850148 -331.3684082 208.06518555 C-331.73220983 205.11959128 -331.92904138 202.36489834 -331.8828125 199.40625 C-331.87378906 198.643125 -331.86476563 197.88 -331.85546875 197.09375 C-331.84386719 196.536875 -331.83226562 195.98 -331.8203125 195.40625 C-332.68063583 195.56792664 -333.54095917 195.72960327 -334.42735291 195.8961792 C-337.71135027 196.38986948 -340.78968355 196.54631596 -344.10766602 196.56738281 C-345.34878143 196.57684433 -346.58989685 196.58630585 -347.86862183 196.59605408 C-349.22881947 196.60088507 -350.58901859 196.60531238 -351.94921875 196.609375 C-353.386892 196.6163955 -354.82456493 196.62348233 -356.26223755 196.63063049 C-360.96909905 196.65047679 -365.67591358 196.65508158 -370.3828125 196.65625 C-371.19275791 196.65669186 -372.00270332 196.65713371 -372.83719254 196.65758896 C-427.83900773 196.67329554 -482.57491767 193.513728 -537.40046692 189.3399353 C-546.68121011 188.63440868 -555.9640884 187.97061347 -565.25 187.3359375 C-589.85480346 185.64543149 -614.39350649 183.88523001 -638.8203125 180.40625 C-639.85687988 180.26251953 -640.89344727 180.11878906 -641.96142578 179.97070312 C-662.61151941 177.01045849 -688.06027249 171.59722822 -703.8203125 156.90625 C-707.49500386 153.8440072 -709.19100716 154.22819979 -713.8203125 154.40625 C-718.44063171 149.59388818 -719.91681078 141.85538554 -720.1953125 135.34375 C-719.1117629 123.96647924 -713.72606321 115.1790881 -707.43359375 105.84765625 C-703.19669979 99.53859927 -699.6312844 94.11691934 -698.8203125 86.40625 C-697.24676224 74.19977762 -694.73847005 62.79279313 -684.6796875 54.6796875 C-676.42943135 48.98308206 -667.94429725 45.46789723 -657.8203125 45.40625 C-655.06868293 46.0972977 -652.52306728 46.85807117 -649.859375 47.79296875 C-648.16844792 48.35537892 -646.47629273 48.91410454 -644.78320312 49.4699707 C-643.8424292 49.77971832 -642.90165527 50.08946594 -641.93237305 50.40859985 C-635.91041069 52.33909302 -629.83541533 54.09429457 -623.765625 55.8671875 C-622.39456418 56.26851291 -621.0235112 56.66986512 -619.65246582 57.07124329 C-616.83834544 57.89448272 -614.02380711 58.71627481 -611.20898438 59.53710938 C-607.68491969 60.5648734 -604.16198528 61.59645191 -600.63933849 62.62906361 C-586.42196106 66.79497323 -572.1897941 70.89988 -557.91015625 74.84765625 C-556.74336334 75.1706369 -555.57657043 75.49361755 -554.37442017 75.8263855 C-522.69589175 84.52434011 -489.08362003 90.61609857 -456.24121094 92.22802734 C-453.10363522 92.3914894 -449.97068956 92.59532461 -446.83625793 92.80984497 C-421.5529804 94.5047328 -396.23674528 94.64918996 -370.90726852 94.71041107 C-368.23917764 94.71861512 -365.57116648 94.7322487 -362.90310669 94.74737549 C-329.90993928 94.91863485 -298.36563307 92.56807008 -265.8828125 86.40625 C-263.48789028 85.9621369 -261.09270705 85.51942906 -258.69726562 85.078125 C-255.21998719 84.43737601 -251.74302946 83.79528283 -248.26742554 83.14550781 C-241.8211844 81.9424597 -235.36922529 80.8192422 -228.89453125 79.78125 C-222.01781855 78.66952723 -215.30227064 77.19297459 -208.5703125 75.40625 C-206.50174868 74.87326372 -204.43274043 74.34199915 -202.36328125 73.8125 C-201.39825684 73.565 -200.43323242 73.3175 -199.43896484 73.0625 C-196.26793428 72.2678207 -193.08413484 71.56777786 -189.8828125 70.90625 C-160.96414109 64.83818346 -131.92134108 57.35794177 -104.8203125 45.40625 C-103.76521484 44.94379883 -102.71011719 44.48134766 -101.62304688 44.00488281 C-81.65507335 35.22189277 -61.84373212 26.07153087 -42.13987732 16.71246338 C-39.62076495 15.51726569 -37.09853185 14.32874093 -34.57595825 13.14086914 C-32.82022713 12.31075963 -31.06907672 11.47098285 -29.31811523 10.63085938 C-23.33844084 7.81689495 -17.62334131 5.58470085 -11.16235352 4.14892578 C-6.81180849 2.76934088 -4.93044516 -0.25392851 0 0 Z " fill="#2A293A" transform="translate(882.8203125,811.59375)"/>
<path d="M0 0 C9.17451964 6.2564587 15.26467522 16.94120665 20.84375 26.25732422 C21.62540527 27.54413086 21.62540527 27.54413086 22.42285156 28.85693359 C57.84375 87.31861063 57.84375 87.31861063 57.84375 117.25732422 C40.60715724 123.24477223 22.79176384 126.42899482 4.92095947 129.87585449 C-0.6268857 130.94875545 -6.15575989 132.08972156 -11.67749023 133.29052734 C-36.90780731 138.76232555 -62.31902418 142.48157754 -87.98826599 145.09115601 C-88.74237259 145.16790558 -89.49647919 145.24465515 -90.2734375 145.32373047 C-91.02073624 145.39975494 -91.76803497 145.47577942 -92.53797913 145.55410767 C-108.42229698 147.19370234 -124.22915319 149.53713127 -140.03125 151.81982422 C-170.44667715 156.20448644 -170.44667715 156.20448644 -182.96875 156.75732422 C-189.61683698 157.05307743 -196.05740903 157.91966696 -202.61669922 159.02636719 C-210.25009445 160.31027158 -217.9114007 161.300557 -225.59228516 162.25488281 C-226.51960449 162.3717041 -227.44692383 162.48852539 -228.40234375 162.60888672 C-229.63488892 162.76091553 -229.63488892 162.76091553 -230.89233398 162.91601562 C-233.11408732 163.20706642 -233.11408732 163.20706642 -235.06738281 163.77319336 C-237.82839654 164.41310573 -240.50080657 164.51573691 -243.33203125 164.65185547 C-244.61021729 164.71840332 -245.88840332 164.78495117 -247.20532227 164.85351562 C-247.89570587 164.88842102 -248.58608948 164.92332642 -249.2973938 164.95928955 C-260.36027337 165.52245451 -271.39304218 166.23311053 -282.421875 167.27685547 C-308.09283995 169.6915816 -333.37223275 170.79966258 -359.15625 170.25732422 C-358.67494721 155.68128454 -357.95681777 141.1394224 -356.90478516 126.59277344 C-356.11714238 115.48995044 -355.62940001 104.37739535 -355.15625 93.25732422 C-354.2868428 93.23306366 -354.2868428 93.23306366 -353.39987183 93.20831299 C-316.84305821 92.21149981 -316.84305821 92.21149981 -280.40625 89.25732422 C-279.62973083 89.17373657 -278.85321167 89.09014893 -278.05316162 89.00402832 C-271.11537857 88.24449159 -264.27152668 87.39664339 -257.48291016 85.74414062 C-251.96494674 84.58959508 -246.3123097 84.1099575 -240.71875 83.44482422 C-220.84642535 80.99407303 -201.35955764 77.4770738 -182.13427734 71.82177734 C-179.058071 70.94394606 -175.95248719 70.19805703 -172.84375 69.44482422 C-155.50613331 65.18537132 -138.30710867 60.31885795 -121.2383728 55.08773804 C-119.39290429 54.52238254 -117.5457157 53.96265145 -115.69848633 53.40307617 C-110.20600026 51.6968432 -105.0483243 49.90463289 -99.97753906 47.18432617 C-98.05438497 46.20547683 -96.12650395 45.45502262 -94.09765625 44.72216797 C-90.29517795 43.34491421 -86.6935526 41.65765584 -83.09375 39.81982422 C-82.08235962 39.30983887 -82.08235962 39.30983887 -81.05053711 38.78955078 C-76.97572157 36.72457661 -72.9250384 34.61578114 -68.8828125 32.48779297 C-57.88963916 26.700748 -46.84474754 21.0962676 -35.61083984 15.7890625 C-30.15152799 13.20343257 -24.74322853 10.55082836 -19.3828125 7.76513672 C-17.73817017 6.91628906 -17.73817017 6.91628906 -16.06030273 6.05029297 C-13.95653958 4.95937002 -11.85933667 3.85567755 -9.76977539 2.73779297 C-8.8286792 2.25181641 -7.88758301 1.76583984 -6.91796875 1.26513672 C-6.09256592 0.82830566 -5.26716309 0.39147461 -4.41674805 -0.05859375 C-2.15625 -0.74267578 -2.15625 -0.74267578 0 0 Z " fill="#322F54" transform="translate(869.15625,826.74267578125)"/>
<path d="M0 0 C3.12893662 0.6782861 6.13915192 1.49470286 9.19604492 2.44433594 C10.30915039 2.78851562 11.42225586 3.13269531 12.5690918 3.48730469 C13.71829102 3.84695313 14.86749023 4.20660156 16.05151367 4.57714844 C17.18911133 4.9290625 18.32670898 5.28097656 19.4987793 5.64355469 C25.02696701 7.35974914 30.53839955 9.11401956 36.02441406 10.96044922 C52.64377462 16.5810371 52.64377462 16.5810371 69.60620117 20.99902344 C72.47549978 21.76530496 75.18989895 22.81814696 77.96166992 23.87695312 C107.03789204 34.41271972 139.59052102 38.69756933 170.23901367 41.70214844 C170.50271785 53.44961368 169.73444085 64.84878183 168.42651367 76.51464844 C168.24296834 78.20026425 168.05953815 79.8858926 167.8762207 81.5715332 C164.80165463 109.46956492 164.80165463 109.46956492 161.23901367 121.70214844 C147.78937581 121.06582347 134.35036077 120.31342121 120.91308594 119.45483398 C117.93922309 119.26545778 114.96511156 119.08039701 111.9909668 118.89550781 C102.14805829 118.27373419 92.32905514 117.54660123 82.50854492 116.63574219 C71.25984417 115.60750159 60.05885983 115.31551407 48.76977539 115.17041016 C39.2183955 115.03646823 29.93047115 114.61626686 20.48095703 113.16479492 C17.25021041 112.70374628 14.05863031 112.449974 10.80151367 112.26464844 C3.87314003 111.77459274 -2.84312047 110.54449712 -9.63110352 109.13916016 C-11.78854416 108.69649409 -13.95001455 108.27928912 -16.11254883 107.86230469 C-28.03366262 105.47677192 -41.53482744 102.5195877 -51.76098633 95.70214844 C-48.10340534 64.52958323 -30.5089344 34.190209 -11.76098633 9.70214844 C-11.33124512 9.1377002 -10.90150391 8.57325195 -10.45874023 7.99169922 C-3.9255932 -0.42348782 -3.9255932 -0.42348782 0 0 Z " fill="#322F54" transform="translate(244.760986328125,874.2978515625)"/>
<path d="M0 0 C-0.03480469 1.22332031 -0.06960938 2.44664062 -0.10546875 3.70703125 C-0.46488726 21.7285282 2.47310475 37.54928341 7.36791992 54.85131836 C10.39728321 65.84394805 12.13126669 76.94075074 13.63037109 88.23120117 C14.0654677 91.49040238 14.53499029 94.74493203 15 98 C-57.27 98 -129.54 98 -204 98 C-206.25473684 90.10842105 -206.25473684 90.10842105 -206.78125 86.49609375 C-206.89976318 85.68479004 -207.01827637 84.87348633 -207.14038086 84.03759766 C-207.25905518 83.17956543 -207.37772949 82.3215332 -207.5 81.4375 C-207.62963135 80.52274902 -207.7592627 79.60799805 -207.89282227 78.66552734 C-208.9063056 71.26527008 -209.5559728 63.85952206 -210.15576172 56.41650391 C-211.01643924 46.53719321 -212.79903238 36.83512088 -214.66455078 27.1027832 C-215 25 -215 25 -215 22 C-214.41214218 21.95432892 -213.82428436 21.90865784 -213.21861267 21.86160278 C-206.97026895 21.37595352 -200.72204312 20.88880699 -194.47387695 20.40087891 C-192.15749923 20.22017426 -189.84109396 20.03982245 -187.5246582 19.85986328 C-180.76718829 19.33475492 -174.01033092 18.80265793 -167.25421143 18.26043701 C-165.13858445 18.09112178 -163.02282673 17.92342966 -160.90692139 17.75762939 C-148.17038966 16.75492261 -135.56265302 15.36419157 -122.92205811 13.51416016 C-106.22076218 11.08177333 -89.53965034 9.20206659 -72.72470093 7.77508545 C-56.98500997 6.42720785 -41.4068114 4.36964141 -25.80029297 1.9296875 C-17.13406589 0.59351194 -8.80391421 -0.43541277 0 0 Z " fill="#322F54" transform="translate(777,982)"/>
<path d="M0 0 C1.1255836 4.33318196 2.25036178 8.66657259 3.375 13 C3.85066406 14.83111328 3.85066406 14.83111328 4.3359375 16.69921875 C4.6453125 17.89160156 4.9546875 19.08398438 5.2734375 20.3125 C5.55622559 21.40175781 5.83901367 22.49101563 6.13037109 23.61328125 C6.41734863 24.73089844 6.70432617 25.84851563 7 27 C7.17246246 27.62858917 7.34492493 28.25717834 7.52261353 28.90481567 C8.80278817 33.70266205 9.46895367 38.35906244 9.8515625 43.3046875 C9.91532074 44.0687088 9.97907898 44.8327301 10.04476929 45.61990356 C10.1772274 47.2246963 10.30647021 48.82975743 10.43261719 50.43505859 C10.62400612 52.86239493 10.82680853 55.28857561 11.03125 57.71484375 C11.67161262 65.49683695 12.17367737 73.18451856 12 81 C12.66 81.33 13.32 81.66 14 82 C12.99324219 82.03738281 11.98648438 82.07476563 10.94921875 82.11328125 C2.3682213 82.49176342 -5.9857753 83.33849916 -14.45458984 84.76831055 C-22.09006863 86.05176046 -29.75317155 87.04298687 -37.43603516 87.99755859 C-38.36335449 88.11437988 -39.29067383 88.23120117 -40.24609375 88.3515625 C-41.47863892 88.50359131 -41.47863892 88.50359131 -42.73608398 88.65869141 C-44.95783732 88.9497422 -44.95783732 88.9497422 -46.91113281 89.51586914 C-49.67214654 90.15578151 -52.34455657 90.25841269 -55.17578125 90.39453125 C-56.45396729 90.4610791 -57.73215332 90.52762695 -59.04907227 90.59619141 C-59.73945587 90.6310968 -60.42983948 90.6660022 -61.1411438 90.70196533 C-72.20402337 91.26513029 -83.23679218 91.97578631 -94.265625 93.01953125 C-119.93658995 95.43425738 -145.21598275 96.54233836 -171 96 C-170.51869721 81.42396032 -169.80056777 66.88209818 -168.74853516 52.33544922 C-167.96089238 41.23262622 -167.47315001 30.12007114 -167 19 C-166.1305928 18.97573944 -166.1305928 18.97573944 -165.24362183 18.95098877 C-128.68680821 17.95417559 -128.68680821 17.95417559 -92.25 15 C-91.47348083 14.91641235 -90.69696167 14.83282471 -89.89691162 14.7467041 C-82.95912857 13.98716737 -76.11527668 13.13931917 -69.32666016 11.48681641 C-63.80875394 10.33228283 -58.15607217 9.85208969 -52.5625 9.1875 C-42.11952971 7.90747782 -31.77186027 6.37560615 -21.4375 4.375 C-20.36894775 4.1689917 -19.30039551 3.9629834 -18.19946289 3.75073242 C-12.12705159 2.53801983 -6.14523266 0 0 0 Z " fill="#322F54" transform="translate(681,901)"/>
<path d="M0 0 C49.005 1.98 49.005 1.98 99 4 C99 29.30227557 99 29.30227557 98.37890625 37.89453125 C98.28258156 39.34734749 98.28258156 39.34734749 98.18431091 40.82951355 C98.05066866 42.82610715 97.91367773 44.82247967 97.77319336 46.81860352 C97.55945127 49.85582162 97.35602356 52.89360276 97.15429688 55.93164062 C97.02141294 57.89847675 96.88797053 59.86527523 96.75390625 61.83203125 C96.6934462 62.72275833 96.63298615 63.61348541 96.57069397 64.53120422 C96.51070724 65.38046982 96.45072052 66.22973541 96.38891602 67.10473633 C96.33784195 67.83557938 96.28676788 68.56642242 96.23414612 69.31941223 C95.89345518 73.21976285 95.43236171 77.1087446 95 81 C104.57 81 114.14 81 124 81 C124 81.33 124 81.66 124 82 C112.52087931 82.06175372 101.04176346 82.1021478 89.5625 82.125 C88.28168297 82.12756805 88.28168297 82.12756805 86.97499084 82.13018799 C54.93955049 82.18687551 23.00427322 81.47048258 -9 80 C-8.34042251 75.32594327 -7.64104365 70.66009855 -6.9140625 65.99609375 C-6.59167781 63.86627278 -6.27186228 61.7360827 -5.953125 59.60571289 C-5.74266516 58.21501807 -5.52787927 56.82496704 -5.30761719 55.43579102 C-2.3999639 37.03340638 -1.47087442 18.631076 0 0 Z " fill="#322F54" transform="translate(415,916)"/>
<path d="M0 0 C9.18693999 6.2085762 15.28145833 16.95264377 20.84906006 26.24960327 C21.37016357 27.10747437 21.89126709 27.96534546 22.42816162 28.84921265 C57.84906006 87.31088968 57.84906006 87.31088968 57.84906006 117.24960327 C44.47733466 121.89451841 30.83079399 124.85673028 16.97406006 127.62460327 C16.07840332 127.80531372 15.18274658 127.98602417 14.25994873 128.17221069 C11.66869878 128.69264 9.07579013 129.20359104 6.48187256 129.71054077 C5.31091537 129.94449051 5.31091537 129.94449051 4.11630249 130.1831665 C-0.03796363 130.97856999 -3.89745545 131.4158935 -8.15093994 131.24960327 C-8.24890869 130.31503296 -8.34687744 129.38046265 -8.44781494 128.41757202 C-10.44021731 110.4627563 -14.45797059 94.02686788 -21.15093994 77.24960327 C-21.84794596 75.47501738 -22.54455255 73.70027456 -23.24078369 71.92538452 C-26.38634357 63.95784079 -29.61667086 56.05362874 -33.15093994 48.24960327 C-33.60855713 47.23253296 -34.06617432 46.21546265 -34.53765869 45.16757202 C-37.80679751 38.30532567 -41.68642153 32.56637394 -46.39312744 26.64804077 C-48.15093994 24.24960327 -48.15093994 24.24960327 -48.15093994 22.24960327 C-41.68435694 18.91508132 -35.2054767 15.60547741 -28.71734619 12.31307983 C-26.51064071 11.18958343 -24.30683844 10.06036598 -22.10601807 8.92538452 C-18.94612371 7.29704256 -15.77643616 5.68940975 -12.60406494 4.08554077 C-11.61851624 3.57212128 -10.63296753 3.05870178 -9.61755371 2.52972412 C-8.23657501 1.83878159 -8.23657501 1.83878159 -6.82769775 1.13388062 C-6.01939514 0.72084686 -5.21109253 0.30781311 -4.3782959 -0.11773682 C-2.15093994 -0.75039673 -2.15093994 -0.75039673 0 0 Z " fill="#F7F3EF" transform="translate(869.1509399414063,826.7503967285156)"/>
<path d="M0 0 C0.92167969 0.00902344 1.84335937 0.01804687 2.79296875 0.02734375 C3.79263672 0.04474609 3.79263672 0.04474609 4.8125 0.0625 C8.71167927 27.21157267 7.73087942 50.27124298 1.8125 77.0625 C-23.57927454 79.79160164 -48.6610327 80.44128861 -74.1875 80.0625 C-73.70619721 65.48646032 -72.98806777 50.94459818 -71.93603516 36.39794922 C-71.14839238 25.29512622 -70.66065001 14.18257114 -70.1875 3.0625 C-69.54793869 3.03966446 -68.90837738 3.01682892 -68.24943542 2.99330139 C-61.54872434 2.75345832 -54.84817645 2.50938653 -48.14770508 2.26293945 C-45.65230122 2.1717013 -43.15685866 2.08151497 -40.66137695 1.99243164 C-37.05929873 1.86365752 -33.45738002 1.73100945 -29.85546875 1.59765625 C-28.75293259 1.55906998 -27.65039642 1.5204837 -26.51445007 1.48072815 C-20.51136609 1.25444681 -14.56226731 0.85160637 -8.58345032 0.27073669 C-5.7150318 0.02143687 -2.87834694 -0.03738113 0 0 Z " fill="#F7F3EE" transform="translate(584.1875,916.9375)"/>
<path d="M0 0 C0.13051758 0.63800537 0.26103516 1.27601074 0.39550781 1.93334961 C2.83170148 13.81246033 5.30928895 25.66444234 8.203125 37.44140625 C9.74333735 44.31951142 10.13866594 50.85851698 10.09765625 57.87109375 C10.0962413 58.793423 10.09482635 59.71575226 10.09336853 60.66603088 C10.08780506 63.58988798 10.07525942 66.51366635 10.0625 69.4375 C10.05748028 71.42903535 10.0529182 73.4205719 10.04882812 75.41210938 C10.03784762 80.27476956 10.02060839 85.13737147 10 90 C-5.10423245 92.69034162 -20.17578503 95.19275213 -35.4375 96.8125 C-36.59604492 96.9360083 -37.75458984 97.0595166 -38.94824219 97.18676758 C-44.33266583 97.73007298 -49.58264199 98.05180246 -55 98 C-55.09498779 96.71649658 -55.18997559 95.43299316 -55.2878418 94.1105957 C-55.6529582 89.23907054 -56.04063237 84.36953593 -56.43432617 79.50024414 C-56.60008595 77.41314145 -56.76013825 75.32557573 -56.91381836 73.23754883 C-58.16749527 56.28636688 -60.66915913 40.03701579 -66.4148407 23.9811554 C-67.21141953 21.28420358 -67.21443658 18.7876755 -67 16 C-65.89011719 15.75507812 -64.78023437 15.51015625 -63.63671875 15.2578125 C-47.13216397 11.51338708 -30.91888037 6.78876462 -14.67431641 2.06567383 C-13.46179199 1.71400146 -12.24926758 1.3623291 -11 1 C-9.77071777 0.60385498 -8.54143555 0.20770996 -7.27490234 -0.20043945 C-4.22090819 -0.94606573 -2.85814271 -1.14325708 0 0 Z " fill="#F7F3EE" transform="translate(748,884)"/>
<path d="M0 0 C1.16680298 0.19577637 1.16680298 0.19577637 2.35717773 0.39550781 C10.90090404 1.82771852 19.4459254 3.25195593 27.99243164 4.66748047 C29.89409093 4.98245797 31.79568036 5.29785717 33.69726562 5.61328125 C37.02660414 6.16349234 40.35684371 6.70782993 43.6875 7.25 C44.66968506 7.41274414 45.65187012 7.57548828 46.66381836 7.74316406 C53.09327299 8.78157748 59.50738622 9.49176574 66 10 C66.26370417 21.74746525 65.49542718 33.14663339 64.1875 44.8125 C64.00395467 46.49811581 63.82052448 48.18374416 63.63720703 49.86938477 C60.56264096 77.76741648 60.56264096 77.76741648 57 90 C43.29338101 89.35440182 29.59870368 88.57559544 15.9050293 87.69775391 C12.77733857 87.49775158 9.64942451 87.30152752 6.52148438 87.10546875 C4.49998557 86.97678893 2.47850066 86.84789078 0.45703125 86.71875 C-0.46184372 86.661427 -1.38071869 86.604104 -2.32743835 86.54504395 C-7.90881637 86.18330074 -13.44544245 85.65716885 -19 85 C-18.40569187 80.04690361 -17.37626924 75.57399298 -15.85546875 70.80078125 C-15.42284239 69.42333322 -14.99073288 68.04572278 -14.55908203 66.66796875 C-14.33464417 65.95688965 -14.1102063 65.24581055 -13.87896729 64.51318359 C-9.7745483 51.45034214 -6.17855396 38.53635154 -4 25 C-3.82243164 23.92556641 -3.64486328 22.85113281 -3.46191406 21.74414062 C-2.26703147 14.5023058 -1.11417458 7.25467374 0 0 Z " fill="#F7F3EE" transform="translate(349,906)"/>
<path d="M0 0 C5.45660354 1.18811513 10.75673643 2.87394904 16.08544922 4.52880859 C18.11916143 5.15832014 20.15642206 5.77528233 22.1940918 6.3918457 C23.48534162 6.79017585 24.77636583 7.18923823 26.06713867 7.58911133 C27.23865479 7.94932373 28.4101709 8.30953613 29.6171875 8.68066406 C32.29760742 9.71801758 32.29760742 9.71801758 33.29760742 11.71801758 C32.59594727 13.37573242 32.59594727 13.37573242 31.38354492 15.55395508 C26.90107826 24.18879623 23.51190476 33.31163553 19.92260742 42.34301758 C19.53275665 43.31969391 19.14290588 44.29637024 18.74124146 45.30264282 C12.21578983 61.65627318 5.930012 78.09349742 -0.1940918 94.60131836 C-0.49285721 95.40661484 -0.79162262 96.21191132 -1.09944153 97.04161072 C-1.65494787 98.54122559 -2.20913759 100.04132909 -2.76176453 101.54200745 C-4.59521045 106.50365332 -4.59521045 106.50365332 -5.70239258 108.71801758 C-19.41338895 108.66124327 -39.27639552 104.61275177 -50.70239258 96.71801758 C-51.81495688 93.05109645 -51.67700674 90.57464781 -50.58520508 86.93676758 C-50.31297119 86.02330566 -50.0407373 85.10984375 -49.76025391 84.16870117 C-49.45240967 83.19497559 -49.14456543 82.22125 -48.82739258 81.21801758 C-48.34919067 79.68975342 -48.34919067 79.68975342 -47.86132812 78.13061523 C-39.85789642 53.24003894 -27.58852444 30.46805154 -11.70239258 9.71801758 C-11.27265137 9.15356934 -10.84291016 8.58912109 -10.40014648 8.00756836 C-3.86995459 -0.40381223 -3.86995459 -0.40381223 0 0 Z " fill="#F7F3EF" transform="translate(244.702392578125,874.281982421875)"/>
<path d="M0 0 C0 9.57 0 19.14 0 29 C-4.5375 28.96519531 -9.075 28.93039062 -13.75 28.89453125 C-16.70313863 28.87912157 -19.65622455 28.86467485 -22.609375 28.85351562 C-27.25076153 28.83589092 -31.89196365 28.81555692 -36.53320312 28.77368164 C-65.6104111 28.51860616 -93.8096874 30.71170178 -122.54150391 35.4453125 C-126.29791108 36.04778018 -130.05966901 36.60764399 -133.82421875 37.15625 C-169.96120466 42.1180735 -169.96120466 42.1180735 -205.2109375 51.1171875 C-208 52 -208 52 -210 52 C-210.46512062 49.8139331 -210.92158267 47.62602426 -211.375 45.4375 C-211.63023437 44.21933594 -211.88546875 43.00117187 -212.1484375 41.74609375 C-213.40748927 35.21571076 -214.15952752 28.59484988 -215 22 C-214.41214218 21.95432892 -213.82428436 21.90865784 -213.21861267 21.86160278 C-206.97026895 21.37595352 -200.72204312 20.88880699 -194.47387695 20.40087891 C-192.15749923 20.22017426 -189.84109396 20.03982245 -187.5246582 19.85986328 C-180.76718829 19.33475492 -174.01033092 18.80265793 -167.25421143 18.26043701 C-165.13858445 18.09112178 -163.02282673 17.92342966 -160.90692139 17.75762939 C-148.17038966 16.75492261 -135.56265302 15.36419157 -122.92205811 13.51416016 C-106.22076218 11.08177333 -89.53965034 9.20206659 -72.72470093 7.77508545 C-56.98500997 6.42720785 -41.4068114 4.36964141 -25.80029297 1.9296875 C-24.54512627 1.73792938 -24.54512627 1.73792938 -23.26460266 1.54229736 C-21.73029577 1.30714876 -20.19706329 1.06478713 -18.66545105 0.81268311 C-12.25696946 -0.16625211 -6.71664701 0 0 0 Z " fill="#F4F0EC" transform="translate(777,982)"/>
<path d="M0 0 C9.38093612 6.46458292 11.89620659 14.66811544 15.76171875 24.99609375 C17.16393079 28.39767437 18.8432821 31.0444977 21 34 C21 34.66 21 35.32 21 36 C22.32 36.66 23.64 37.32 25 38 C25 38.66 25 39.32 25 40 C25.78117188 40.3403125 25.78117188 40.3403125 26.578125 40.6875 C29.87684535 42.47519361 32.78457421 44.71890324 35.75 47 C36.35199219 47.45117188 36.95398438 47.90234375 37.57421875 48.3671875 C39.08906356 49.52822502 40.54969821 50.75927939 42 52 C42 52.66 42 53.32 42 54 C43.485 54.495 43.485 54.495 45 55 C51.32174561 62.58010256 56.37924755 73.34405312 57.1875 83.3125 C57 85.1875 57 85.1875 56 89 C55.82082031 89.89847656 55.64164063 90.79695312 55.45703125 91.72265625 C53.63255027 100.29218811 50.73968337 110.09289494 44 116.125 C41.02626905 117.98358185 38.32777655 118.95544791 35 120 C34.79020508 118.97567871 34.79020508 118.97567871 34.57617188 117.93066406 C31.37675065 102.57652843 27.48202746 88.28402169 21 74 C20.37810791 72.59645264 20.37810791 72.59645264 19.74365234 71.16455078 C9.8569881 48.9914758 -2.20929403 26.58079312 -18 8 C-18.92284114 6.89403462 -19.8447013 5.78725002 -20.765625 4.6796875 C-21.50296875 3.79539062 -22.2403125 2.91109375 -23 2 C-22.34 2 -21.68 2 -21 2 C-21 1.34 -21 0.68 -21 0 C-12.88780687 -4.0098293 -7.83746807 -4.87404731 0 0 Z " fill="#322F54" transform="translate(892,824)"/>
<path d="M0 0 C1.12535156 0.36222656 2.25070313 0.72445312 3.41015625 1.09765625 C7.18630689 2.37778508 10.91315239 3.73187349 14.625 5.1875 C13.903125 5.88875 13.18125 6.59 12.4375 7.3125 C-2.587178 22.37938215 -13.51320669 42.01304264 -22.375 61.1875 C-22.89320313 62.27289062 -23.41140625 63.35828125 -23.9453125 64.4765625 C-27.77434579 72.87637899 -30.43599163 81.51691934 -33.01586914 90.36938477 C-33.43340454 91.79915649 -33.43340454 91.79915649 -33.859375 93.2578125 C-34.10397461 94.11133301 -34.34857422 94.96485352 -34.60058594 95.84423828 C-35.3443334 98.09470742 -36.25836389 100.10058301 -37.375 102.1875 C-54.15329967 93.24668271 -54.15329967 93.24668271 -57.0625 85.3125 C-58.92812989 72.62621676 -52.46063124 63.21750822 -45.70410156 53.08886719 C-40.58588939 45.33585479 -38.23322293 38.60088729 -37.0625 29.4375 C-35.57891457 19.51014734 -32.76282974 9.6621928 -24.36328125 3.3671875 C-16.02378968 -1.58080161 -9.35223093 -3.0230577 0 0 Z " fill="#322F54" transform="translate(229.375,867.8125)"/>
<path d="M0 0 C0.66 0.33 1.32 0.66 2 1 C-1.63 4.63 -5.26 8.26 -9 12 C-9 8.00102358 -7.64683965 6.93298448 -5 4 C-3.36643049 2.62631655 -1.7074998 1.28062485 0 0 Z " fill="#101024" transform="translate(201,864)"/>
</svg>
