<svg version="1.1" id="Layer_1" xmlns="http://www.w3.org/2000/svg" xmlns:xlink="http://www.w3.org/1999/xlink" x="0px" y="0px"
	 width="100%" viewBox="0 0 1080 1080" enable-background="new 0 0 1080 1080" xml:space="preserve">

<path fill="#2E2C3F" opacity="1.000000" stroke="none" 
	d="
M590.986023,464.268585 
	C592.073120,464.286438 593.160156,464.304291 594.764954,464.341644 
	C595.282654,464.361145 595.624939,464.365479 595.624939,464.365479 
	C595.624939,464.365479 595.960144,464.297363 595.960144,464.297363 
	C597.714783,464.329742 599.469482,464.362091 601.896851,464.458374 
	C603.371033,464.443542 604.172546,464.364838 604.973999,464.286102 
	C633.523254,463.407562 661.910828,465.633636 690.137024,469.540344 
	C703.288940,471.360718 716.260376,474.554871 729.257019,477.385956 
	C733.295166,478.265594 737.303101,479.664856 741.050049,481.414703 
	C747.412170,484.385773 750.919006,489.292450 751.110291,496.727142 
	C751.284668,503.505646 752.955261,510.260162 752.957275,517.025574 
	C752.961182,529.992493 752.766235,543.001770 751.714050,555.916870 
	C750.122681,575.451233 740.903748,592.207886 730.156311,607.967590 
	C721.723145,620.333618 712.445251,632.165649 702.976074,643.772766 
	C690.673096,658.853516 674.367737,668.368225 656.606384,675.833923 
	C639.651062,682.960876 622.081360,686.729980 603.762207,686.944946 
	C589.152161,687.116455 574.455383,687.880859 559.945312,686.643677 
	C540.399353,684.977173 522.160767,678.510437 504.623230,669.297668 
	C484.845184,658.907959 470.204468,643.660339 459.075073,624.966858 
	C451.014648,611.428223 443.468872,597.383179 437.625183,582.790466 
	C433.228760,571.811829 431.737518,559.638977 429.305176,547.924622 
	C428.628204,544.664368 427.821503,543.441772 424.221375,543.908142 
	C398.749115,547.208252 373.488342,545.459839 348.406555,540.258179 
	C346.972961,539.960938 345.500732,539.850037 343.390869,539.563293 
	C343.573669,542.379089 343.798920,544.768921 343.873291,547.163452 
	C344.492462,567.098511 339.184998,585.714722 331.084290,603.664124 
	C326.566559,613.674561 322.614868,624.060791 316.995819,633.430725 
	C301.560303,659.169800 278.306854,672.096558 248.363266,674.140869 
	C231.878113,675.266357 215.664047,673.845215 200.231232,668.905151 
	C190.006134,665.632080 180.416046,659.532776 171.434097,653.393127 
	C152.468521,640.429199 141.943405,620.728516 132.191574,600.736694 
	C121.902092,579.642700 114.863121,557.378540 112.644646,534.029907 
	C111.267838,519.539551 111.081772,504.715027 112.544029,490.261322 
	C113.381134,481.986969 118.328461,474.314056 128.002441,471.265808 
	C157.234314,462.054779 187.133621,460.859222 217.390839,462.692169 
	C228.181702,463.345856 239.010757,463.370728 249.801178,464.029877 
	C274.648499,465.547607 299.128021,469.046844 322.475250,478.304474 
	C331.444611,481.860962 337.252258,487.777222 337.730255,497.880859 
	C337.928589,502.072449 339.252808,505.275696 343.912079,506.260315 
	C353.648285,508.317780 363.326691,510.654968 373.080048,512.623596 
	C389.326569,515.902893 405.684174,517.274475 422.255737,515.319275 
	C425.949249,514.883545 427.734009,513.345459 427.889465,509.801880 
	C428.251434,501.550171 431.096985,494.197662 436.527557,488.081696 
	C439.210297,485.060364 442.355164,481.746826 445.975861,480.380341 
	C463.338440,473.827454 481.473206,470.361023 499.866211,468.030243 
	C529.503357,464.274658 559.247253,463.441010 589.655273,464.233673 
	C590.242004,464.281799 590.614929,464.320740 590.614929,464.320740 
	C590.614929,464.320740 590.986023,464.268585 590.986023,464.268585 
M696.456848,614.951782 
	C714.242004,592.227478 725.989380,566.816711 730.620911,538.232605 
	C732.485901,526.722778 734.374756,515.216736 736.279419,503.713409 
	C737.145996,498.479309 736.028870,496.827789 730.635498,495.919403 
	C718.150024,493.816498 705.717896,491.187164 693.149902,489.825836 
	C665.849976,486.868744 638.523926,483.449005 611.122681,482.342041 
	C587.060852,481.369934 562.778564,482.120331 538.781738,484.239960 
	C510.457184,486.741791 482.336212,491.543365 454.123352,495.320862 
	C449.692413,495.914185 448.577545,498.057770 449.228027,502.559570 
	C451.108887,515.576660 452.709137,528.649292 453.905182,541.747070 
	C456.151642,566.347534 462.928253,588.858521 476.830627,609.992065 
	C495.547607,638.444580 520.861084,655.976929 553.424561,663.204346 
	C581.549805,669.446716 609.765503,668.470154 637.106934,658.782288 
	C650.873657,653.904358 664.793396,648.638550 675.431152,637.931030 
	C682.575378,630.739929 689.164429,622.997131 696.456848,614.951782 
M219.494843,477.995728 
	C207.848770,478.347015 196.132690,478.018341 184.572937,479.208282 
	C167.027771,481.014313 149.594070,483.896606 132.106506,486.273682 
	C127.294960,486.927734 125.665230,489.413849 126.488235,494.229553 
	C127.609558,500.790741 128.576706,507.409943 129.052826,514.044250 
	C131.306366,545.444824 137.273712,575.553101 154.240051,602.990417 
	C166.496811,622.811523 181.820206,638.139832 203.786667,646.619690 
	C214.387177,650.711853 225.232010,652.684753 236.495300,652.625488 
	C263.784607,652.481689 286.419434,642.423401 301.538544,619.276123 
	C319.201813,592.233887 327.197601,562.084412 327.042542,529.751587 
	C326.995483,519.933899 327.389191,510.111847 327.706787,500.295837 
	C327.821503,496.749756 326.514465,494.670288 322.939941,493.847931 
	C315.471893,492.129822 308.080933,490.069000 300.596893,488.429596 
	C274.200287,482.647247 247.618362,478.210114 219.494843,477.995728 
z"/>
<path fill="#1C1A2B" opacity="1.000000" stroke="none" 
	d="
M604.613647,464.263763 
	C604.172546,464.364838 603.371033,464.443542 602.335693,464.463074 
	C602.818909,464.349701 603.536133,464.295563 604.613647,464.263763 
z"/>
<path fill="#1C1A2B" opacity="1.000000" stroke="none" 
	d="
M590.742432,464.233215 
	C590.986023,464.268585 590.614929,464.320740 590.614929,464.320740 
	C590.614929,464.320740 590.242004,464.281799 590.124268,464.239685 
	C590.006531,464.197571 590.498840,464.197815 590.742432,464.233215 
z"/>
<path fill="#1C1A2B" opacity="1.000000" stroke="none" 
	d="
M595.735474,464.283722 
	C595.960144,464.297363 595.624939,464.365479 595.624939,464.365479 
	C595.624939,464.365479 595.282654,464.361145 595.172607,464.335449 
	C595.062622,464.309723 595.510864,464.270081 595.735474,464.283722 
z"/>
<path fill="#353349" opacity="1.800000" stroke="none" 
	d="
M696.229370,615.226440 
	C689.164429,622.997131 682.575378,630.739929 675.431152,637.931030 
	C664.793396,648.638550 650.873657,653.904358 637.106934,658.782288 
	C609.765503,668.470154 581.549805,669.446716 553.424561,663.204346 
	C520.861084,655.976929 495.547607,638.444580 476.830627,609.992065 
	C462.928253,588.858521 456.151642,566.347534 453.905182,541.747070 
	C452.709137,528.649292 451.108887,515.576660 449.228027,502.559570 
	C448.577545,498.057770 449.692413,495.914185 454.123352,495.320862 
	C482.336212,491.543365 510.457184,486.741791 538.781738,484.239960 
	C562.778564,482.120331 587.060852,481.369934 611.122681,482.342041 
	C638.523926,483.449005 665.849976,486.868744 693.149902,489.825836 
	C705.717896,491.187164 718.150024,493.816498 730.635498,495.919403 
	C736.028870,496.827789 737.145996,498.479309 736.279419,503.713409 
	C734.374756,515.216736 732.485901,526.722778 730.620911,538.232605 
	C725.989380,566.816711 714.242004,592.227478 696.229370,615.226440 
z"/>
<path fill="#353349" opacity="1.000000" stroke="none" 
	d="
M219.993408,477.995789 
	C247.618362,478.210114 274.200287,482.647247 300.596893,488.429596 
	C308.080933,490.069000 315.471893,492.129822 322.939941,493.847931 
	C326.514465,494.670288 327.821503,496.749756 327.706787,500.295837 
	C327.389191,510.111847 326.995483,519.933899 327.042542,529.751587 
	C327.197601,562.084412 319.201813,592.233887 301.538544,619.276123 
	C286.419434,642.423401 263.784607,652.481689 236.495300,652.625488 
	C225.232010,652.684753 214.387177,650.711853 203.786667,646.619690 
	C181.820206,638.139832 166.496811,622.811523 154.240051,602.990417 
	C137.273712,575.553101 131.306366,545.444824 129.052826,514.044250 
	C128.576706,507.409943 127.609558,500.790741 126.488235,494.229553 
	C125.665230,489.413849 127.294960,486.927734 132.106506,486.273682 
	C149.594070,483.896606 167.027771,481.014313 184.572937,479.208282 
	C196.132690,478.018341 207.848770,478.347015 219.993408,477.995789 
z"/>
</svg>