<svg
    xmlns:dc="http://purl.org/dc/elements/1.1/"
    xmlns:svg="http://www.w3.org/2000/svg"
    xmlns="http://www.w3.org/2000/svg"
    style="enable-background:new 0 0 128 128;"
    viewBox="0 0 45 45"
    width = "128"
    height = "128"
    id="svg2">
    <g transform="matrix(1.25,0,0,-1.25,0,45)" id="g10">
        <g transform="translate(13,34)" id="g20">
            <path
                id="bottom-tail"
                style="stroke: black; stroke-width: 0.5; fill: white;"
                d="m 0,0 c -1,-1 -2.576,-5.03 -3,-8 -1,-7 -1,-18 -1,-18 0,0 2,-1 4,-1 2,0 1,-1 6,-1 0,0 -1.89,22.92 1,27 1.77,2.499 -6,2 -7,1"
            />
        </g>
        <g transform="translate(10.4087,30.2696)" id="g24">
            <path
                id="top-tail"
                style="stroke: black; stroke-width: 0.5; fill: white;"
                d="m 0,0 c -2.266,-1.306 -2.984,-3.3 -3.409,-6.27 -1,-7 -1,-18 -1,-18 0,0 2,-1 4,-1 2,0 1,-1 6,-1 0,0 -2,23 1,27 C 9.591,4.73 1.225,0.706 0,0"
            />
        </g>
        <g transform="translate(13.4825,31.7258)" id="g28">
            <path
                id="knot"
                style="stroke: black; stroke-width: 0.5; fill: white;"
                d="m 0,0 c 0,0 -2.649,-1.212 -3.074,-1.456 -1.423,-0.82 -2.235,-1.913 -2.748,-3.347 1.884,-0.775 5.205,-1.091 7.981,-1.189 0.009,0.097 1.588,1.099 1.588,1.099 L 3.748,-0.4 0,0 Z"
            />
        </g>
        <g transform="translate(28.9823,34.3586)" id="g32">
            <path
                id="outer-neck"
                style="stroke: black; stroke-width: 0.5; fill: white;"
                d="m 0,0 c -0.907,2.759 -6.352,0.92 -9.982,0.92 -3.692,0 -9.016,1.839 -9.939,-0.92 -0.923,-2.76 -4.615,-5.519 0.923,-6.439 5.539,-0.92 9.016,-0.92 9.016,-0.92 0,0 3.63,0 9.075,0.92 C 4.537,-5.519 0.907,-2.76 0,0"
            />
        </g>
        <g transform="translate(26.3852,35.1338)" id="g36">
            <path id="inner-neck"
                style="stroke: black; stroke-width: 0.5; fill: white;"
                d="m 0,0 c -0.923,0 -3.693,-0.751 -7.385,-0.751 -3.692,0 -6.462,0.751 -7.385,0.751 -0.923,0 0.923,-1.772 7.385,-1.772 C -0.923,-1.772 0.923,0 0,0"
            />
        </g>
    </g>
</svg>
