<svg width="20" height="20" viewBox="0 0 28 25" stroke = "#8ED1FC" fill="#8ED1FC" xmlns="http://www.w3.org/2000/svg">
<path d="M28 9.5C28 10.1922 27.7947 10.8689 27.4101 11.4445C27.0256 12.0201 26.4789 12.4687 25.8394 12.7336C25.1999 12.9985 24.4961 13.0678 23.8172 12.9327C23.1383 12.7977 22.5146 12.4644 22.0251 11.9749C21.5356 11.4854 21.2023 10.8618 21.0673 10.1828C20.9322 9.50388 21.0015 8.80015 21.2664 8.16061C21.5313 7.52107 21.9799 6.97444 22.5555 6.58986C23.1311 6.20527 23.8078 6 24.5 6C25.4283 6 26.3185 6.36875 26.9749 7.02513C27.6313 7.68151 28 8.57174 28 9.5ZM7 9.5C7 8.80777 6.79473 8.13108 6.41015 7.55551C6.02556 6.97993 5.47894 6.53133 4.83939 6.26642C4.19985 6.00152 3.49612 5.9322 2.81719 6.06725C2.13825 6.2023 1.51461 6.53564 1.02513 7.02513C0.535644 7.51461 0.202301 8.13825 0.0672531 8.81718C-0.0677952 9.49612 0.00151649 10.1999 0.266423 10.8394C0.53133 11.4789 0.979934 12.0256 1.55551 12.4101C2.13108 12.7947 2.80777 13 3.5 13C4.42826 13 5.3185 12.6313 5.97487 11.9749C6.63125 11.3185 7 10.4283 7 9.5ZM9.5 7C10.1922 7 10.8689 6.79473 11.4445 6.41015C12.0201 6.02556 12.4687 5.47893 12.7336 4.83939C12.9985 4.19985 13.0678 3.49612 12.9328 2.81719C12.7977 2.13825 12.4644 1.51461 11.9749 1.02513C11.4854 0.535644 10.8618 0.202301 10.1828 0.0672531C9.50388 -0.0677952 8.80015 0.00151649 8.16061 0.266423C7.52107 0.53133 6.97444 0.979934 6.58986 1.55551C6.20527 2.13108 6 2.80777 6 3.5C6 4.42826 6.36875 5.3185 7.02513 5.97487C7.68151 6.63125 8.57174 7 9.5 7ZM18.5 7C19.1922 7 19.8689 6.79473 20.4445 6.41015C21.0201 6.02556 21.4687 5.47893 21.7336 4.83939C21.9985 4.19985 22.0678 3.49612 21.9328 2.81719C21.7977 2.13825 21.4644 1.51461 20.9749 1.02513C20.4854 0.535644 19.8618 0.202301 19.1828 0.0672531C18.5039 -0.0677952 17.8002 0.00151649 17.1606 0.266423C16.5211 0.53133 15.9744 0.979934 15.5899 1.55551C15.2053 2.13108 15 2.80777 15 3.5C15 4.42826 15.3688 5.3185 16.0251 5.97487C16.6815 6.63125 17.5717 7 18.5 7ZM21.39 14.6075C20.8821 14.3273 20.4344 13.9497 20.0725 13.4962C19.7107 13.0428 19.4418 12.5225 19.2813 11.965C18.9488 10.8216 18.2541 9.81692 17.3018 9.10205C16.3494 8.38718 15.1908 8.00071 14 8.00071C12.8092 8.00071 11.6506 8.38718 10.6982 9.10205C9.74586 9.81692 9.05125 10.8216 8.71875 11.965C8.39757 13.0867 7.6446 14.0352 6.625 14.6025C5.6469 15.1318 4.87316 15.972 4.42616 16.9903C3.97916 18.0086 3.88441 19.1469 4.15691 20.2251C4.4294 21.3033 5.05358 22.2599 5.93072 22.9436C6.80786 23.6273 7.88789 23.999 9 24C9.66645 24.0019 10.3264 23.8688 10.94 23.6088C12.8963 22.8019 15.0924 22.8019 17.0488 23.6088C18.2337 24.1241 19.5721 24.1607 20.7835 23.7109C21.9948 23.2611 22.985 22.3598 23.5464 21.1959C24.1078 20.0321 24.1968 18.6961 23.7948 17.4681C23.3928 16.24 22.5309 15.2153 21.39 14.6088V14.6075Z" fill="#8ED1FC" stroke="black"/>
</svg>
